<?xml version="1.0" standalone="no"?><svg xmlns:xlink="http://www.w3.org/1999/xlink" xmlns="http://www.w3.org/2000/svg" viewBox="0 0 500 352.942050630466" preserveAspectRatio="xMaxYMax slice"><g transform="scale(0.37151794803206944)"><rect x="0" y="0" width="1345.8333333333335" height="950" fill="#ffffff"/><rect x="0" y="0" width="79.17" height="79.17" fill="#dadada"/><g transform="translate(0,0) scale(3.9585) rotate(0)"><rect width="20" height="2" fill="#ffffff"/><rect y="4" width="20" height="2" fill="#ffffff"/><rect y="8" width="20" height="2" fill="#ffffff"/><rect y="12" width="20" height="2" fill="#ffffff"/><rect y="16" width="20" height="2" fill="#ffffff"/></g><rect x="79.17" y="0" width="79.17" height="79.17" fill="#393939"/><rect x="79.17" y="0" width="79.17" height="79.17" fill="#f4d8a1"/><rect x="158.33" y="0" width="79.17" height="79.17" fill="#ebb349"/><g transform="translate(158.33,0) scale(3.9585) rotate(0)"><rect width="20" height="2" fill="#222222"/><rect y="4" width="20" height="2" fill="#222222"/><rect y="8" width="20" height="2" fill="#222222"/><rect y="12" width="20" height="2" fill="#222222"/><rect y="16" width="20" height="2" fill="#222222"/></g><rect x="237.5" y="0" width="79.17" height="79.17" fill="#fbf0da"/><polygon points="237.5,0 316.67,0 316.67,79.17" fill="#f0c87b"/><rect x="316.67" y="0" width="79.17" height="79.17" fill="#fefefe"/><rect x="316.67" y="0" width="79.17" height="79.17" fill="#eec16b"/><rect x="395.83" y="0" width="79.17" height="79.17" fill="#ebb44a"/><polygon points="395.83,0 475,79.17 395.83,79.17" fill="#ffffff"/><rect x="475" y="0" width="79.17" height="79.17" fill="#ffffff"/><rect x="475" y="0" width="79.17" height="79.17" fill="#2f2f2f"/><rect x="554.17" y="0" width="79.17" height="79.17" fill="#e59e16"/><rect x="554.17" y="0" width="79.17" height="79.17" fill="#ffffff"/><rect x="633.33" y="0" width="79.17" height="79.17" fill="#faebcf"/><g transform="translate(633.33,0) scale(3.9585) rotate(0)"><rect width="20" height="2" fill="#ffffff"/><rect y="4" width="20" height="2" fill="#ffffff"/><rect y="8" width="20" height="2" fill="#ffffff"/><rect y="12" width="20" height="2" fill="#ffffff"/><rect y="16" width="20" height="2" fill="#ffffff"/></g><rect x="712.5" y="0" width="79.17" height="79.17" fill="#ffffff"/><polygon points="712.5,0 791.67,0 712.5,79.17" fill="#ffffff"/><rect x="791.67" y="0" width="79.17" height="79.17" fill="#ffffff"/><rect x="791.67" y="0" width="79.17" height="79.17" fill="#ffffff"/><rect x="870.83" y="0" width="79.17" height="79.17" fill="#ededed"/><rect x="870.83" y="0" width="79.17" height="79.17" fill="#e59f18"/><rect x="950" y="0" width="79.17" height="79.17" fill="#e9ad3b"/><path d="M 950 79.17 A 79.17 79.17 0 0 1  1029.17 0 L 950 79.17 A 79.17 79.17 0 0 0 1029.17 0" fill="#ffffff"/><rect x="1029.17" y="0" width="79.17" height="79.17" fill="#c6c6c6"/><rect x="1029.17" y="0" width="79.17" height="79.17" fill="#414141"/><rect x="1108.33" y="0" width="79.17" height="79.17" fill="#bcbcbc"/><path d="M 1108.33 0 A 79.17 79.17 0 0 1  1187.5 79.17 L 1108.33 0 A 79.17 79.17 0 0 0 1187.5 79.17" fill="#efc574"/><rect x="1187.5" y="0" width="79.17" height="79.17" fill="#f8f8f8"/><path d="M 1187.5 0 A 79.17 79.17 0 0 0 1266.67 79.17 L 1266.67 0L1187.5 0" fill="#ffffff"/><rect x="1266.67" y="0" width="79.17" height="79.17" fill="#d4d4d4"/><path d="M 1266.67 79.17 A 79.17 79.17 0 0 1  1345.8400000000001 0 L 1266.67 79.17 A 79.17 79.17 0 0 0 1345.8400000000001 0" fill="#f5d9a3"/><rect x="0" y="79.17" width="79.17" height="79.17" fill="#ffffff"/><rect x="0" y="79.17" width="79.17" height="79.17" fill="#f6dfb3"/><rect x="79.17" y="79.17" width="79.17" height="79.17" fill="#646464"/><polygon points="79.17,79.17 158.34,79.17 158.34,158.34" fill="#ffffff"/><rect x="158.33" y="79.17" width="79.17" height="79.17" fill="#ffffff"/><path d="M 158.33 158.34 A 79.17 79.17 0 0 1  237.5 79.17 L 158.33 158.34 A 79.17 79.17 0 0 0 237.5 79.17" fill="#d1d1d1"/><rect x="237.5" y="79.17" width="79.17" height="79.17" fill="#ffffff"/><path d="M 237.5 158.34 A 79.17 79.17 0 0 1  316.67 79.17 L 316.67 158.34L237.5 158.34" fill="#e7a62a"/><rect x="316.67" y="79.17" width="79.17" height="79.17" fill="#ffffff"/><g transform="translate(316.67,79.17) scale(3.9585) rotate(0)"><rect width="20" height="2" fill="#e59f18"/><rect y="4" width="20" height="2" fill="#e59f18"/><rect y="8" width="20" height="2" fill="#e59f18"/><rect y="12" width="20" height="2" fill="#e59f18"/><rect y="16" width="20" height="2" fill="#e59f18"/></g><rect x="395.83" y="79.17" width="79.17" height="79.17" fill="#181818"/><polygon points="395.83,79.17 475,158.34 395.83,158.34" fill="#f2d08f"/><rect x="475" y="79.17" width="79.17" height="79.17" fill="#6e6e6e"/><g transform="translate(475,79.17) scale(3.9585) rotate(0)"><rect width="20" height="2" fill="#ffffff"/><rect y="4" width="20" height="2" fill="#ffffff"/><rect y="8" width="20" height="2" fill="#ffffff"/><rect y="12" width="20" height="2" fill="#ffffff"/><rect y="16" width="20" height="2" fill="#ffffff"/></g><rect x="554.17" y="79.17" width="79.17" height="79.17" fill="#e7a528"/><path d="M 554.17 158.34 A 79.17 79.17 0 0 1  633.3399999999999 79.17 L 554.17 158.34 A 79.17 79.17 0 0 0 633.3399999999999 79.17" fill="#b7b7b7"/><rect x="633.33" y="79.17" width="79.17" height="79.17" fill="#868686"/><polygon points="633.33,79.17 712.5,79.17 633.33,158.34" fill="#f7e1b6"/><rect x="712.5" y="79.17" width="79.17" height="79.17" fill="#d4d4d4"/><g transform="translate(712.5,79.17) scale(3.9585) rotate(0)"><rect width="20" height="2" fill="#a0a0a0"/><rect y="4" width="20" height="2" fill="#a0a0a0"/><rect y="8" width="20" height="2" fill="#a0a0a0"/><rect y="12" width="20" height="2" fill="#a0a0a0"/><rect y="16" width="20" height="2" fill="#a0a0a0"/></g><rect x="791.67" y="79.17" width="79.17" height="79.17" fill="#959595"/><path d="M 791.67 79.17 A 79.17 79.17 0 0 0 870.8399999999999 158.34 L 870.8399999999999 79.17L791.67 79.17" fill="#f9eace"/><rect x="870.83" y="79.17" width="79.17" height="79.17" fill="#fbefd9"/><g transform="translate(870.83,79.17) scale(3.9585) rotate(0)"><rect width="20" height="2" fill="#ffffff"/><rect y="4" width="20" height="2" fill="#ffffff"/><rect y="8" width="20" height="2" fill="#ffffff"/><rect y="12" width="20" height="2" fill="#ffffff"/><rect y="16" width="20" height="2" fill="#ffffff"/></g><rect x="950" y="79.17" width="79.17" height="79.17" fill="#cbcbcb"/><polygon points="950,79.17 1029.17,79.17 950,158.34" fill="#ffffff"/><rect x="1029.17" y="79.17" width="79.17" height="79.17" fill="#ffffff"/><path d="M 1029.17 158.34 A 79.17 79.17 0 0 1  1108.3400000000001 79.17 L 1029.17 158.34 A 79.17 79.17 0 0 0 1108.3400000000001 79.17" fill="#ffffff"/><rect x="1108.33" y="79.17" width="79.17" height="79.17" fill="#ffffff"/><path d="M 1108.33 158.34 A 79.17 79.17 0 0 1  1187.5 79.17 L 1108.33 158.34 A 79.17 79.17 0 0 0 1187.5 79.17" fill="#d4d4d4"/><rect x="1187.5" y="79.17" width="79.17" height="79.17" fill="#838383"/><g transform="translate(1187.5,79.17) scale(3.9585) rotate(0)"><rect width="20" height="2" fill="#e8aa33"/><rect y="4" width="20" height="2" fill="#e8aa33"/><rect y="8" width="20" height="2" fill="#e8aa33"/><rect y="12" width="20" height="2" fill="#e8aa33"/><rect y="16" width="20" height="2" fill="#e8aa33"/></g><rect x="1266.67" y="79.17" width="79.17" height="79.17" fill="#fdf6e9"/><g transform="translate(1266.67,79.17) scale(3.9585) rotate(0)"><rect width="20" height="2" fill="#b6b6b6"/><rect y="4" width="20" height="2" fill="#b6b6b6"/><rect y="8" width="20" height="2" fill="#b6b6b6"/><rect y="12" width="20" height="2" fill="#b6b6b6"/><rect y="16" width="20" height="2" fill="#b6b6b6"/></g><rect x="0" y="158.33" width="79.17" height="79.17" fill="#bcbcbc"/><path d="M 0 237.5 A 79.17 79.17 0 0 1  79.17 158.33 L 79.17 237.5L0 237.5" fill="#ffffff"/><rect x="79.17" y="158.33" width="79.17" height="79.17" fill="#ffffff"/><path d="M 79.17 158.33 A 79.17 79.17 0 0 1  158.34 237.5 L 79.17 158.33 A 79.17 79.17 0 0 0 158.34 237.5" fill="#f4d79f"/><rect x="158.33" y="158.33" width="79.17" height="79.17" fill="#e6e6e6"/><path d="M 158.33 237.5 A 79.17 79.17 0 0 0 237.5 158.33 L 158.33 158.33L158.33 237.5" fill="#ffffff"/><rect x="237.5" y="158.33" width="79.17" height="79.17" fill="#f8e6c3"/><path d="M 237.5 237.5 A 79.17 79.17 0 0 1  316.67 158.33 L 316.67 237.5L237.5 237.5" fill="#f6dcab"/><rect x="316.67" y="158.33" width="79.17" height="79.17" fill="#585858"/><polygon points="316.67,158.33 395.84000000000003,158.33 395.84000000000003,237.5" fill="#ecb854"/><rect x="395.83" y="158.33" width="79.17" height="79.17" fill="#adadad"/><polygon points="395.83,158.33 475,158.33 475,237.5" fill="#ffffff"/><rect x="475" y="158.33" width="79.17" height="79.17" fill="#212121"/><rect x="475" y="158.33" width="79.17" height="79.17" fill="#eebe64"/><rect x="554.17" y="158.33" width="79.17" height="79.17" fill="#ffffff"/><g transform="translate(554.17,158.33) scale(3.9585) rotate(0)"><rect width="20" height="2" fill="#fbefd7"/><rect y="4" width="20" height="2" fill="#fbefd7"/><rect y="8" width="20" height="2" fill="#fbefd7"/><rect y="12" width="20" height="2" fill="#fbefd7"/><rect y="16" width="20" height="2" fill="#fbefd7"/></g><rect x="633.33" y="158.33" width="79.17" height="79.17" fill="#ffffff"/><rect x="633.33" y="158.33" width="79.17" height="79.17" fill="#ffffff"/><rect x="712.5" y="158.33" width="79.17" height="79.17" fill="#6f6f6f"/><path d="M 712.5 237.5 A 79.17 79.17 0 0 1  791.67 158.33 L 712.5 237.5 A 79.17 79.17 0 0 0 791.67 158.33" fill="#ffffff"/><rect x="791.67" y="158.33" width="79.17" height="79.17" fill="#ffffff"/><polygon points="791.67,158.33 870.8399999999999,158.33 791.67,237.5" fill="#ffffff"/><rect x="870.83" y="158.33" width="79.17" height="79.17" fill="#ebb651"/><g transform="translate(870.83,158.33) scale(3.9585) rotate(0)"><rect width="20" height="2" fill="#ffffff"/><rect y="4" width="20" height="2" fill="#ffffff"/><rect y="8" width="20" height="2" fill="#ffffff"/><rect y="12" width="20" height="2" fill="#ffffff"/><rect y="16" width="20" height="2" fill="#ffffff"/></g><rect x="950" y="158.33" width="79.17" height="79.17" fill="#fefbf6"/><g transform="translate(950,158.33) scale(3.9585) rotate(0)"><rect width="20" height="2" fill="#1f1f1f"/><rect y="4" width="20" height="2" fill="#1f1f1f"/><rect y="8" width="20" height="2" fill="#1f1f1f"/><rect y="12" width="20" height="2" fill="#1f1f1f"/><rect y="16" width="20" height="2" fill="#1f1f1f"/></g><rect x="1029.17" y="158.33" width="79.17" height="79.17" fill="#1d1d1d"/><polygon points="1029.17,158.33 1108.3400000000001,237.5 1029.17,237.5" fill="#8d8d8d"/><rect x="1108.33" y="158.33" width="79.17" height="79.17" fill="#ffffff"/><path d="M 1108.33 158.33 A 79.17 79.17 0 0 1 1187.5 237.5 L 1108.33 237.5L1108.33 158.33" fill="#ffffff"/><rect x="1187.5" y="158.33" width="79.17" height="79.17" fill="#ffffff"/><polygon points="1187.5,158.33 1266.67,237.5 1187.5,237.5" fill="#ffffff"/><rect x="1266.67" y="158.33" width="79.17" height="79.17" fill="#e8e8e8"/><path d="M 1266.67 237.5 A 79.17 79.17 0 0 0 1345.8400000000001 158.33 L 1266.67 158.33L1266.67 237.5" fill="#ffffff"/><rect x="0" y="237.5" width="79.17" height="79.17" fill="#ffffff"/><rect x="0" y="237.5" width="79.17" height="79.17" fill="#ffffff"/><rect x="79.17" y="237.5" width="79.17" height="79.17" fill="#d7d7d7"/><rect x="79.17" y="237.5" width="79.17" height="79.17" fill="#cccccc"/><rect x="158.33" y="237.5" width="79.17" height="79.17" fill="#1c1c1c"/><rect x="158.33" y="237.5" width="79.17" height="79.17" fill="#f8e7c5"/><rect x="237.5" y="237.5" width="79.17" height="79.17" fill="#fbefd9"/><polygon points="237.5,237.5 316.67,237.5 316.67,316.67" fill="#464646"/><rect x="316.67" y="237.5" width="79.17" height="79.17" fill="#727272"/><path d="M 316.67 316.67 A 79.17 79.17 0 0 0 395.84000000000003 237.5 L 316.67 237.5L316.67 316.67" fill="#ffffff"/><rect x="395.83" y="237.5" width="79.17" height="79.17" fill="#d2d2d2"/><rect x="395.83" y="237.5" width="79.17" height="79.17" fill="#e7a72c"/><rect x="475" y="237.5" width="79.17" height="79.17" fill="#fefdfa"/><path d="M 475 316.67 A 79.17 79.17 0 0 1  554.17 237.5 L 475 316.67 A 79.17 79.17 0 0 0 554.17 237.5" fill="#efc26d"/><rect x="554.17" y="237.5" width="79.17" height="79.17" fill="#ffffff"/><path d="M 554.17 316.67 A 79.17 79.17 0 0 1  633.3399999999999 237.5 L 554.17 316.67 A 79.17 79.17 0 0 0 633.3399999999999 237.5" fill="#ffffff"/><rect x="633.33" y="237.5" width="79.17" height="79.17" fill="#ebb44b"/><g transform="translate(633.33,237.5) scale(3.9585) rotate(0)"><rect width="20" height="2" fill="#ffffff"/><rect y="4" width="20" height="2" fill="#ffffff"/><rect y="8" width="20" height="2" fill="#ffffff"/><rect y="12" width="20" height="2" fill="#ffffff"/><rect y="16" width="20" height="2" fill="#ffffff"/></g><rect x="712.5" y="237.5" width="79.17" height="79.17" fill="#8e8e8e"/><path d="M 712.5 316.67 A 79.17 79.17 0 0 1  791.67 237.5 L 712.5 316.67 A 79.17 79.17 0 0 0 791.67 237.5" fill="#f6ddae"/><rect x="791.67" y="237.5" width="79.17" height="79.17" fill="#838383"/><g transform="translate(791.67,237.5) scale(3.9585) rotate(0)"><rect width="20" height="2" fill="#f8e5c0"/><rect y="4" width="20" height="2" fill="#f8e5c0"/><rect y="8" width="20" height="2" fill="#f8e5c0"/><rect y="12" width="20" height="2" fill="#f8e5c0"/><rect y="16" width="20" height="2" fill="#f8e5c0"/></g><rect x="870.83" y="237.5" width="79.17" height="79.17" fill="#faebce"/><path d="M 870.83 237.5 A 79.17 79.17 0 0 1  950 316.67 L 870.83 237.5 A 79.17 79.17 0 0 0 950 316.67" fill="#ffffff"/><rect x="950" y="237.5" width="79.17" height="79.17" fill="#efefef"/><rect x="950" y="237.5" width="79.17" height="79.17" fill="#ffffff"/><rect x="1029.17" y="237.5" width="79.17" height="79.17" fill="#ffffff"/><path d="M 1029.17 237.5 A 79.17 79.17 0 0 1  1108.3400000000001 316.67 L 1029.17 237.5 A 79.17 79.17 0 0 0 1108.3400000000001 316.67" fill="#fefbf5"/><rect x="1108.33" y="237.5" width="79.17" height="79.17" fill="#ebb752"/><g transform="translate(1108.33,237.5) scale(3.9585) rotate(0)"><rect width="20" height="2" fill="#e7a72b"/><rect y="4" width="20" height="2" fill="#e7a72b"/><rect y="8" width="20" height="2" fill="#e7a72b"/><rect y="12" width="20" height="2" fill="#e7a72b"/><rect y="16" width="20" height="2" fill="#e7a72b"/></g><rect x="1187.5" y="237.5" width="79.17" height="79.17" fill="#f1cd86"/><polygon points="1187.5,237.5 1266.67,316.67 1187.5,316.67" fill="#e7a72d"/><rect x="1266.67" y="237.5" width="79.17" height="79.17" fill="#ffffff"/><rect x="1266.67" y="237.5" width="79.17" height="79.17" fill="#ffffff"/><rect x="0" y="316.67" width="79.17" height="79.17" fill="#f0c87b"/><polygon points="0,316.67 79.17,316.67 79.17,395.84000000000003" fill="#f6dfb2"/><rect x="79.17" y="316.67" width="79.17" height="79.17" fill="#fefcf8"/><polygon points="79.17,316.67 158.34,316.67 158.34,395.84000000000003" fill="#fdf7ec"/><rect x="158.33" y="316.67" width="79.17" height="79.17" fill="#ffffff"/><path d="M 158.33 316.67 A 79.17 79.17 0 0 0 237.5 395.84000000000003 L 237.5 316.67L158.33 316.67" fill="#3d3d3d"/><rect x="237.5" y="316.67" width="79.17" height="79.17" fill="#ffffff"/><g transform="translate(237.5,316.67) scale(3.9585) rotate(0)"><rect width="20" height="2" fill="#ffffff"/><rect y="4" width="20" height="2" fill="#ffffff"/><rect y="8" width="20" height="2" fill="#ffffff"/><rect y="12" width="20" height="2" fill="#ffffff"/><rect y="16" width="20" height="2" fill="#ffffff"/></g><rect x="316.67" y="316.67" width="79.17" height="79.17" fill="#404040"/><polygon points="316.67,316.67 395.84000000000003,316.67 395.84000000000003,395.84000000000003" fill="#2f2f2f"/><rect x="395.83" y="316.67" width="79.17" height="79.17" fill="#eab246"/><g transform="translate(395.83,316.67) scale(3.9585) rotate(0)"><rect width="20" height="2" fill="#ffffff"/><rect y="4" width="20" height="2" fill="#ffffff"/><rect y="8" width="20" height="2" fill="#ffffff"/><rect y="12" width="20" height="2" fill="#ffffff"/><rect y="16" width="20" height="2" fill="#ffffff"/></g><rect x="475" y="316.67" width="79.17" height="79.17" fill="#989898"/><rect x="475" y="316.67" width="79.17" height="79.17" fill="#ffffff"/><rect x="554.17" y="316.67" width="79.17" height="79.17" fill="#ffffff"/><path d="M 554.17 395.84000000000003 A 79.17 79.17 0 0 1  633.3399999999999 316.67 L 633.3399999999999 395.84000000000003L554.17 395.84000000000003" fill="#f9eacc"/><rect x="633.33" y="316.67" width="79.17" height="79.17" fill="#ffffff"/><path d="M 633.33 316.67 A 79.17 79.17 0 0 0 712.5 395.84000000000003 L 712.5 316.67L633.33 316.67" fill="#3d3d3d"/><rect x="712.5" y="316.67" width="79.17" height="79.17" fill="#ffffff"/><g transform="translate(712.5,316.67) scale(3.9585) rotate(0)"><rect width="20" height="2" fill="#979797"/><rect y="4" width="20" height="2" fill="#979797"/><rect y="8" width="20" height="2" fill="#979797"/><rect y="12" width="20" height="2" fill="#979797"/><rect y="16" width="20" height="2" fill="#979797"/></g><rect x="791.67" y="316.67" width="79.17" height="79.17" fill="#f3d395"/><rect x="791.67" y="316.67" width="79.17" height="79.17" fill="#e9ae3c"/><rect x="870.83" y="316.67" width="79.17" height="79.17" fill="#ffffff"/><rect x="870.83" y="316.67" width="79.17" height="79.17" fill="#f3d191"/><rect x="950" y="316.67" width="79.17" height="79.17" fill="#ffffff"/><path d="M 950 316.67 A 79.17 79.17 0 0 0 1029.17 395.84000000000003 L 1029.17 316.67L950 316.67" fill="#ffffff"/><rect x="1029.17" y="316.67" width="79.17" height="79.17" fill="#4a4a4a"/><path d="M 1029.17 316.67 A 79.17 79.17 0 0 1 1108.3400000000001 395.84000000000003 L 1029.17 395.84000000000003L1029.17 316.67" fill="#f0f0f0"/><rect x="1108.33" y="316.67" width="79.17" height="79.17" fill="#ebb54e"/><polygon points="1108.33,316.67 1187.5,395.84000000000003 1108.33,395.84000000000003" fill="#b6b6b6"/><rect x="1187.5" y="316.67" width="79.17" height="79.17" fill="#ecb854"/><path d="M 1187.5 316.67 A 79.17 79.17 0 0 1  1266.67 395.84000000000003 L 1187.5 316.67 A 79.17 79.17 0 0 0 1266.67 395.84000000000003" fill="#f7e1b8"/><rect x="1266.67" y="316.67" width="79.17" height="79.17" fill="#ffffff"/><rect x="1266.67" y="316.67" width="79.17" height="79.17" fill="#b8b8b8"/><rect x="0" y="395.83" width="79.17" height="79.17" fill="#f0c87b"/><g transform="translate(0,395.83) scale(3.9585) rotate(0)"><rect width="20" height="2" fill="#ffffff"/><rect y="4" width="20" height="2" fill="#ffffff"/><rect y="8" width="20" height="2" fill="#ffffff"/><rect y="12" width="20" height="2" fill="#ffffff"/><rect y="16" width="20" height="2" fill="#ffffff"/></g><rect x="79.17" y="395.83" width="79.17" height="79.17" fill="#efc26d"/><path d="M 79.17 395.83 A 79.17 79.17 0 0 1  158.34 475 L 79.17 395.83 A 79.17 79.17 0 0 0 158.34 475" fill="#fdf9f2"/><rect x="158.33" y="395.83" width="79.17" height="79.17" fill="#ecba59"/><rect x="158.33" y="395.83" width="79.17" height="79.17" fill="#585858"/><rect x="237.5" y="395.83" width="79.17" height="79.17" fill="#ffffff"/><path d="M 237.5 475 A 79.17 79.17 0 0 0 316.67 395.83 L 237.5 395.83L237.5 475" fill="#636363"/><rect x="316.67" y="395.83" width="79.17" height="79.17" fill="#bfbfbf"/><rect x="316.67" y="395.83" width="79.17" height="79.17" fill="#3b3b3b"/><rect x="395.83" y="395.83" width="79.17" height="79.17" fill="#e5a01b"/><g transform="translate(395.83,395.83) scale(3.9585) rotate(0)"><rect width="20" height="2" fill="#ffffff"/><rect y="4" width="20" height="2" fill="#ffffff"/><rect y="8" width="20" height="2" fill="#ffffff"/><rect y="12" width="20" height="2" fill="#ffffff"/><rect y="16" width="20" height="2" fill="#ffffff"/></g><rect x="475" y="395.83" width="79.17" height="79.17" fill="#ffffff"/><path d="M 475 475 A 79.17 79.17 0 0 1  554.17 395.83 L 475 475 A 79.17 79.17 0 0 0 554.17 395.83" fill="#e8aa33"/><rect x="554.17" y="395.83" width="79.17" height="79.17" fill="#606060"/><path d="M 554.17 475 A 79.17 79.17 0 0 1  633.3399999999999 395.83 L 633.3399999999999 475L554.17 475" fill="#afafaf"/><rect x="633.33" y="395.83" width="79.17" height="79.17" fill="#ecb957"/><path d="M 633.33 395.83 A 79.17 79.17 0 0 1  712.5 475 L 633.33 395.83 A 79.17 79.17 0 0 0 712.5 475" fill="#b5b5b5"/><rect x="712.5" y="395.83" width="79.17" height="79.17" fill="#868686"/><path d="M 712.5 395.83 A 79.17 79.17 0 0 0 791.67 475 L 791.67 395.83L712.5 395.83" fill="#ffffff"/><rect x="791.67" y="395.83" width="79.17" height="79.17" fill="#ffffff"/><rect x="791.67" y="395.83" width="79.17" height="79.17" fill="#a3a3a3"/><rect x="870.83" y="395.83" width="79.17" height="79.17" fill="#eec069"/><path d="M 870.83 395.83 A 79.17 79.17 0 0 1  950 475 L 870.83 395.83 A 79.17 79.17 0 0 0 950 475" fill="#eab247"/><rect x="950" y="395.83" width="79.17" height="79.17" fill="#f0c676"/><path d="M 950 395.83 A 79.17 79.17 0 0 1  1029.17 475 L 950 395.83 A 79.17 79.17 0 0 0 1029.17 475" fill="#f7e1b8"/><rect x="1029.17" y="395.83" width="79.17" height="79.17" fill="#fcf4e5"/><polygon points="1029.17,395.83 1108.3400000000001,475 1029.17,475" fill="#edbd60"/><rect x="1108.33" y="395.83" width="79.17" height="79.17" fill="#e3e3e3"/><path d="M 1108.33 395.83 A 79.17 79.17 0 0 1  1187.5 475 L 1108.33 395.83 A 79.17 79.17 0 0 0 1187.5 475" fill="#ffffff"/><rect x="1187.5" y="395.83" width="79.17" height="79.17" fill="#e5a01a"/><path d="M 1187.5 475 A 79.17 79.17 0 0 0 1266.67 395.83 L 1187.5 395.83L1187.5 475" fill="#dcdcdc"/><rect x="1266.67" y="395.83" width="79.17" height="79.17" fill="#ffffff"/><polygon points="1345.8400000000001,395.83 1345.8400000000001,475 1266.67,475" fill="#efefef"/><rect x="0" y="475" width="79.17" height="79.17" fill="#e49c11"/><rect x="0" y="475" width="79.17" height="79.17" fill="#292929"/><rect x="79.17" y="475" width="79.17" height="79.17" fill="#333333"/><polygon points="79.17,475 158.34,475 79.17,554.17" fill="#707070"/><rect x="158.33" y="475" width="79.17" height="79.17" fill="#fcf2e1"/><path d="M 158.33 475 A 79.17 79.17 0 0 1  237.5 554.17 L 158.33 475 A 79.17 79.17 0 0 0 237.5 554.17" fill="#eec16b"/><rect x="237.5" y="475" width="79.17" height="79.17" fill="#f0f0f0"/><path d="M 237.5 554.17 A 79.17 79.17 0 0 1  316.67 475 L 316.67 554.17L237.5 554.17" fill="#ffffff"/><rect x="316.67" y="475" width="79.17" height="79.17" fill="#ffffff"/><g transform="translate(316.67,475) scale(3.9585) rotate(0)"><rect width="20" height="2" fill="#ffffff"/><rect y="4" width="20" height="2" fill="#ffffff"/><rect y="8" width="20" height="2" fill="#ffffff"/><rect y="12" width="20" height="2" fill="#ffffff"/><rect y="16" width="20" height="2" fill="#ffffff"/></g><rect x="395.83" y="475" width="79.17" height="79.17" fill="#ffffff"/><rect x="395.83" y="475" width="79.17" height="79.17" fill="#b2b2b2"/><rect x="475" y="475" width="79.17" height="79.17" fill="#e6a423"/><path d="M 475 554.17 A 79.17 79.17 0 0 1  554.17 475 L 475 554.17 A 79.17 79.17 0 0 0 554.17 475" fill="#404040"/><rect x="554.17" y="475" width="79.17" height="79.17" fill="#ffffff"/><path d="M 554.17 475 A 79.17 79.17 0 0 1  633.3399999999999 554.17 L 554.17 475 A 79.17 79.17 0 0 0 633.3399999999999 554.17" fill="#ffffff"/><rect x="633.33" y="475" width="79.17" height="79.17" fill="#888888"/><rect x="633.33" y="475" width="79.17" height="79.17" fill="#f8e5c1"/><rect x="712.5" y="475" width="79.17" height="79.17" fill="#ffffff"/><path d="M 712.5 554.17 A 79.17 79.17 0 0 1  791.67 475 L 712.5 554.17 A 79.17 79.17 0 0 0 791.67 475" fill="#ffffff"/><rect x="791.67" y="475" width="79.17" height="79.17" fill="#ecb753"/><rect x="791.67" y="475" width="79.17" height="79.17" fill="#ffffff"/><rect x="870.83" y="475" width="79.17" height="79.17" fill="#aaaaaa"/><path d="M 870.83 554.17 A 79.17 79.17 0 0 1  950 475 L 870.83 554.17 A 79.17 79.17 0 0 0 950 475" fill="#f4d69d"/><rect x="950" y="475" width="79.17" height="79.17" fill="#fefbf5"/><g transform="translate(950,475) scale(3.9585) rotate(0)"><rect width="20" height="2" fill="#ffffff"/><rect y="4" width="20" height="2" fill="#ffffff"/><rect y="8" width="20" height="2" fill="#ffffff"/><rect y="12" width="20" height="2" fill="#ffffff"/><rect y="16" width="20" height="2" fill="#ffffff"/></g><rect x="1029.17" y="475" width="79.17" height="79.17" fill="#ffffff"/><g transform="translate(1029.17,475) scale(3.9585) rotate(0)"><rect width="20" height="2" fill="#ffffff"/><rect y="4" width="20" height="2" fill="#ffffff"/><rect y="8" width="20" height="2" fill="#ffffff"/><rect y="12" width="20" height="2" fill="#ffffff"/><rect y="16" width="20" height="2" fill="#ffffff"/></g><rect x="1108.33" y="475" width="79.17" height="79.17" fill="#ffffff"/><polygon points="1187.5,475 1187.5,554.17 1108.33,554.17" fill="#ebb44a"/><rect x="1187.5" y="475" width="79.17" height="79.17" fill="#ffffff"/><path d="M 1187.5 554.17 A 79.17 79.17 0 0 0 1266.67 475 L 1187.5 475L1187.5 554.17" fill="#ababab"/><rect x="1266.67" y="475" width="79.17" height="79.17" fill="#f3d293"/><rect x="1266.67" y="475" width="79.17" height="79.17" fill="#363636"/><rect x="0" y="554.17" width="79.17" height="79.17" fill="#fffefd"/><path d="M 0 633.3399999999999 A 79.17 79.17 0 0 1  79.17 554.17 L 0 633.3399999999999 A 79.17 79.17 0 0 0 79.17 554.17" fill="#1e1e1e"/><rect x="79.17" y="554.17" width="79.17" height="79.17" fill="#cfcfcf"/><rect x="79.17" y="554.17" width="79.17" height="79.17" fill="#888888"/><rect x="158.33" y="554.17" width="79.17" height="79.17" fill="#efc36e"/><path d="M 158.33 633.3399999999999 A 79.17 79.17 0 0 1  237.5 554.17 L 158.33 633.3399999999999 A 79.17 79.17 0 0 0 237.5 554.17" fill="#a9a9a9"/><rect x="237.5" y="554.17" width="79.17" height="79.17" fill="#e8a930"/><path d="M 237.5 554.17 A 79.17 79.17 0 0 1 316.67 633.3399999999999 L 237.5 633.3399999999999L237.5 554.17" fill="#626262"/><rect x="316.67" y="554.17" width="79.17" height="79.17" fill="#171717"/><path d="M 316.67 633.3399999999999 A 79.17 79.17 0 0 0 395.84000000000003 554.17 L 316.67 554.17L316.67 633.3399999999999" fill="#f7e1b8"/><rect x="395.83" y="554.17" width="79.17" height="79.17" fill="#525252"/><polygon points="475,554.17 475,633.3399999999999 395.83,633.3399999999999" fill="#f2d08e"/><rect x="475" y="554.17" width="79.17" height="79.17" fill="#444444"/><polygon points="475,554.17 554.17,554.17 475,633.3399999999999" fill="#e6a323"/><rect x="554.17" y="554.17" width="79.17" height="79.17" fill="#707070"/><rect x="554.17" y="554.17" width="79.17" height="79.17" fill="#c1c1c1"/><rect x="633.33" y="554.17" width="79.17" height="79.17" fill="#eec16a"/><rect x="633.33" y="554.17" width="79.17" height="79.17" fill="#f0c87c"/><rect x="712.5" y="554.17" width="79.17" height="79.17" fill="#faebce"/><path d="M 712.5 633.3399999999999 A 79.17 79.17 0 0 1  791.67 554.17 L 712.5 633.3399999999999 A 79.17 79.17 0 0 0 791.67 554.17" fill="#3b3b3b"/><rect x="791.67" y="554.17" width="79.17" height="79.17" fill="#c8c8c8"/><polygon points="791.67,554.17 870.8399999999999,633.3399999999999 791.67,633.3399999999999" fill="#ffffff"/><rect x="870.83" y="554.17" width="79.17" height="79.17" fill="#f2d08f"/><path d="M 870.83 633.3399999999999 A 79.17 79.17 0 0 0 950 554.17 L 870.83 554.17L870.83 633.3399999999999" fill="#ffffff"/><rect x="950" y="554.17" width="79.17" height="79.17" fill="#ffffff"/><rect x="950" y="554.17" width="79.17" height="79.17" fill="#ffffff"/><rect x="1029.17" y="554.17" width="79.17" height="79.17" fill="#f5d9a3"/><polygon points="1029.17,554.17 1108.3400000000001,554.17 1108.3400000000001,633.3399999999999" fill="#b7b7b7"/><rect x="1108.33" y="554.17" width="79.17" height="79.17" fill="#8d8d8d"/><rect x="1108.33" y="554.17" width="79.17" height="79.17" fill="#ffffff"/><rect x="1187.5" y="554.17" width="79.17" height="79.17" fill="#ffffff"/><path d="M 1187.5 554.17 A 79.17 79.17 0 0 0 1266.67 633.3399999999999 L 1266.67 554.17L1187.5 554.17" fill="#fdf9f1"/><rect x="1266.67" y="554.17" width="79.17" height="79.17" fill="#b9b9b9"/><path d="M 1266.67 554.17 A 79.17 79.17 0 0 1  1345.8400000000001 633.3399999999999 L 1266.67 554.17 A 79.17 79.17 0 0 0 1345.8400000000001 633.3399999999999" fill="#282828"/><rect x="0" y="633.33" width="79.17" height="79.17" fill="#f9e7c6"/><path d="M 0 633.33 A 79.17 79.17 0 0 1  79.17 712.5 L 0 633.33 A 79.17 79.17 0 0 0 79.17 712.5" fill="#ffffff"/><rect x="79.17" y="633.33" width="79.17" height="79.17" fill="#2c2c2c"/><rect x="79.17" y="633.33" width="79.17" height="79.17" fill="#ffffff"/><rect x="158.33" y="633.33" width="79.17" height="79.17" fill="#ffffff"/><path d="M 158.33 712.5 A 79.17 79.17 0 0 1  237.5 633.33 L 158.33 712.5 A 79.17 79.17 0 0 0 237.5 633.33" fill="#ffffff"/><rect x="237.5" y="633.33" width="79.17" height="79.17" fill="#f6deb1"/><path d="M 237.5 633.33 A 79.17 79.17 0 0 1  316.67 712.5 L 237.5 633.33 A 79.17 79.17 0 0 0 316.67 712.5" fill="#a1a1a1"/><rect x="316.67" y="633.33" width="79.17" height="79.17" fill="#1c1c1c"/><g transform="translate(316.67,633.33) scale(3.9585) rotate(0)"><rect width="20" height="2" fill="#ffffff"/><rect y="4" width="20" height="2" fill="#ffffff"/><rect y="8" width="20" height="2" fill="#ffffff"/><rect y="12" width="20" height="2" fill="#ffffff"/><rect y="16" width="20" height="2" fill="#ffffff"/></g><rect x="395.83" y="633.33" width="79.17" height="79.17" fill="#959595"/><path d="M 395.83 712.5 A 79.17 79.17 0 0 1  475 633.33 L 395.83 712.5 A 79.17 79.17 0 0 0 475 633.33" fill="#6d6d6d"/><rect x="475" y="633.33" width="79.17" height="79.17" fill="#797979"/><rect x="475" y="633.33" width="79.17" height="79.17" fill="#fdf6e9"/><rect x="554.17" y="633.33" width="79.17" height="79.17" fill="#e4e4e4"/><rect x="554.17" y="633.33" width="79.17" height="79.17" fill="#ffffff"/><rect x="633.33" y="633.33" width="79.17" height="79.17" fill="#fbf0db"/><path d="M 633.33 712.5 A 79.17 79.17 0 0 1  712.5 633.33 L 712.5 712.5L633.33 712.5" fill="#f5dba8"/><rect x="712.5" y="633.33" width="79.17" height="79.17" fill="#cbcbcb"/><rect x="712.5" y="633.33" width="79.17" height="79.17" fill="#ffffff"/><rect x="791.67" y="633.33" width="79.17" height="79.17" fill="#f9eacd"/><path d="M 791.67 712.5 A 79.17 79.17 0 0 1  870.8399999999999 633.33 L 791.67 712.5 A 79.17 79.17 0 0 0 870.8399999999999 633.33" fill="#626262"/><rect x="870.83" y="633.33" width="79.17" height="79.17" fill="#ffffff"/><path d="M 870.83 712.5 A 79.17 79.17 0 0 1  950 633.33 L 870.83 712.5 A 79.17 79.17 0 0 0 950 633.33" fill="#ffffff"/><rect x="950" y="633.33" width="79.17" height="79.17" fill="#9c9c9c"/><g transform="translate(950,633.33) scale(3.9585) rotate(0)"><rect width="20" height="2" fill="#ffffff"/><rect y="4" width="20" height="2" fill="#ffffff"/><rect y="8" width="20" height="2" fill="#ffffff"/><rect y="12" width="20" height="2" fill="#ffffff"/><rect y="16" width="20" height="2" fill="#ffffff"/></g><rect x="1029.17" y="633.33" width="79.17" height="79.17" fill="#ffffff"/><rect x="1029.17" y="633.33" width="79.17" height="79.17" fill="#f4d499"/><rect x="1108.33" y="633.33" width="79.17" height="79.17" fill="#e7a528"/><g transform="translate(1108.33,633.33) scale(3.9585) rotate(0)"><rect width="20" height="2" fill="#767676"/><rect y="4" width="20" height="2" fill="#767676"/><rect y="8" width="20" height="2" fill="#767676"/><rect y="12" width="20" height="2" fill="#767676"/><rect y="16" width="20" height="2" fill="#767676"/></g><rect x="1187.5" y="633.33" width="79.17" height="79.17" fill="#ffffff"/><rect x="1187.5" y="633.33" width="79.17" height="79.17" fill="#efc26c"/><rect x="1266.67" y="633.33" width="79.17" height="79.17" fill="#ffffff"/><path d="M 1266.67 712.5 A 79.17 79.17 0 0 0 1345.8400000000001 633.33 L 1266.67 633.33L1266.67 712.5" fill="#c8c8c8"/><rect x="0" y="712.5" width="79.17" height="79.17" fill="#e8aa33"/><polygon points="79.17,712.5 79.17,791.67 0,791.67" fill="#a2a2a2"/><rect x="79.17" y="712.5" width="79.17" height="79.17" fill="#ffffff"/><g transform="translate(79.17,712.5) scale(3.9585) rotate(0)"><rect width="20" height="2" fill="#f4d69c"/><rect y="4" width="20" height="2" fill="#f4d69c"/><rect y="8" width="20" height="2" fill="#f4d69c"/><rect y="12" width="20" height="2" fill="#f4d69c"/><rect y="16" width="20" height="2" fill="#f4d69c"/></g><rect x="158.33" y="712.5" width="79.17" height="79.17" fill="#ffffff"/><g transform="translate(158.33,712.5) scale(3.9585) rotate(0)"><rect width="20" height="2" fill="#ececec"/><rect y="4" width="20" height="2" fill="#ececec"/><rect y="8" width="20" height="2" fill="#ececec"/><rect y="12" width="20" height="2" fill="#ececec"/><rect y="16" width="20" height="2" fill="#ececec"/></g><rect x="237.5" y="712.5" width="79.17" height="79.17" fill="#bbbbbb"/><g transform="translate(237.5,712.5) scale(3.9585) rotate(0)"><rect width="20" height="2" fill="#4a4a4a"/><rect y="4" width="20" height="2" fill="#4a4a4a"/><rect y="8" width="20" height="2" fill="#4a4a4a"/><rect y="12" width="20" height="2" fill="#4a4a4a"/><rect y="16" width="20" height="2" fill="#4a4a4a"/></g><rect x="316.67" y="712.5" width="79.17" height="79.17" fill="#ffffff"/><rect x="316.67" y="712.5" width="79.17" height="79.17" fill="#f1f1f1"/><rect x="395.83" y="712.5" width="79.17" height="79.17" fill="#f0c97d"/><path d="M 395.83 791.67 A 79.17 79.17 0 0 0 475 712.5 L 395.83 712.5L395.83 791.67" fill="#b0b0b0"/><rect x="475" y="712.5" width="79.17" height="79.17" fill="#ffffff"/><path d="M 475 791.67 A 79.17 79.17 0 0 1  554.17 712.5 L 554.17 791.67L475 791.67" fill="#606060"/><rect x="554.17" y="712.5" width="79.17" height="79.17" fill="#ffffff"/><path d="M 554.17 791.67 A 79.17 79.17 0 0 0 633.3399999999999 712.5 L 554.17 712.5L554.17 791.67" fill="#bfbfbf"/><rect x="633.33" y="712.5" width="79.17" height="79.17" fill="#9b9b9b"/><polygon points="633.33,712.5 712.5,712.5 633.33,791.67" fill="#a4a4a4"/><rect x="712.5" y="712.5" width="79.17" height="79.17" fill="#e49c11"/><rect x="712.5" y="712.5" width="79.17" height="79.17" fill="#f4d69c"/><rect x="791.67" y="712.5" width="79.17" height="79.17" fill="#ffffff"/><rect x="791.67" y="712.5" width="79.17" height="79.17" fill="#ffffff"/><rect x="870.83" y="712.5" width="79.17" height="79.17" fill="#f8e5c0"/><path d="M 870.83 791.67 A 79.17 79.17 0 0 1  950 712.5 L 870.83 791.67 A 79.17 79.17 0 0 0 950 712.5" fill="#edbb5b"/><rect x="950" y="712.5" width="79.17" height="79.17" fill="#f8e4bf"/><rect x="950" y="712.5" width="79.17" height="79.17" fill="#ffffff"/><rect x="1029.17" y="712.5" width="79.17" height="79.17" fill="#e7a527"/><polygon points="1029.17,712.5 1108.3400000000001,791.67 1029.17,791.67" fill="#ffffff"/><rect x="1108.33" y="712.5" width="79.17" height="79.17" fill="#ffffff"/><path d="M 1108.33 712.5 A 79.17 79.17 0 0 1  1187.5 791.67 L 1108.33 712.5 A 79.17 79.17 0 0 0 1187.5 791.67" fill="#ffffff"/><rect x="1187.5" y="712.5" width="79.17" height="79.17" fill="#fdf8ef"/><rect x="1187.5" y="712.5" width="79.17" height="79.17" fill="#eab348"/><rect x="1266.67" y="712.5" width="79.17" height="79.17" fill="#676767"/><path d="M 1266.67 712.5 A 79.17 79.17 0 0 1  1345.8400000000001 791.67 L 1266.67 712.5 A 79.17 79.17 0 0 0 1345.8400000000001 791.67" fill="#e6a11e"/><rect x="0" y="791.67" width="79.17" height="79.17" fill="#e59d14"/><polygon points="0,791.67 79.17,791.67 0,870.8399999999999" fill="#ffffff"/><rect x="79.17" y="791.67" width="79.17" height="79.17" fill="#fcf2e0"/><rect x="79.17" y="791.67" width="79.17" height="79.17" fill="#ecb956"/><rect x="158.33" y="791.67" width="79.17" height="79.17" fill="#e4e4e4"/><polygon points="158.33,791.67 237.5,791.67 158.33,870.8399999999999" fill="#ffffff"/><rect x="237.5" y="791.67" width="79.17" height="79.17" fill="#969696"/><path d="M 237.5 791.67 A 79.17 79.17 0 0 1  316.67 870.8399999999999 L 237.5 791.67 A 79.17 79.17 0 0 0 316.67 870.8399999999999" fill="#ffffff"/><rect x="316.67" y="791.67" width="79.17" height="79.17" fill="#e7a526"/><rect x="316.67" y="791.67" width="79.17" height="79.17" fill="#252525"/><rect x="395.83" y="791.67" width="79.17" height="79.17" fill="#f3f3f3"/><rect x="395.83" y="791.67" width="79.17" height="79.17" fill="#b2b2b2"/><rect x="475" y="791.67" width="79.17" height="79.17" fill="#f8e4bd"/><g transform="translate(475,791.67) scale(3.9585) rotate(0)"><rect width="20" height="2" fill="#ffffff"/><rect y="4" width="20" height="2" fill="#ffffff"/><rect y="8" width="20" height="2" fill="#ffffff"/><rect y="12" width="20" height="2" fill="#ffffff"/><rect y="16" width="20" height="2" fill="#ffffff"/></g><rect x="554.17" y="791.67" width="79.17" height="79.17" fill="#424242"/><polygon points="633.3399999999999,791.67 633.3399999999999,870.8399999999999 554.17,870.8399999999999" fill="#edbb5d"/><rect x="633.33" y="791.67" width="79.17" height="79.17" fill="#fefefe"/><g transform="translate(633.33,791.67) scale(3.9585) rotate(0)"><rect width="20" height="2" fill="#ffffff"/><rect y="4" width="20" height="2" fill="#ffffff"/><rect y="8" width="20" height="2" fill="#ffffff"/><rect y="12" width="20" height="2" fill="#ffffff"/><rect y="16" width="20" height="2" fill="#ffffff"/></g><rect x="712.5" y="791.67" width="79.17" height="79.17" fill="#f3d191"/><path d="M 712.5 791.67 A 79.17 79.17 0 0 1  791.67 870.8399999999999 L 712.5 791.67 A 79.17 79.17 0 0 0 791.67 870.8399999999999" fill="#c1c1c1"/><rect x="791.67" y="791.67" width="79.17" height="79.17" fill="#3d3d3d"/><polygon points="791.67,791.67 870.8399999999999,791.67 791.67,870.8399999999999" fill="#535353"/><rect x="870.83" y="791.67" width="79.17" height="79.17" fill="#fdfdfd"/><g transform="translate(870.83,791.67) scale(3.9585) rotate(0)"><rect width="20" height="2" fill="#ffffff"/><rect y="4" width="20" height="2" fill="#ffffff"/><rect y="8" width="20" height="2" fill="#ffffff"/><rect y="12" width="20" height="2" fill="#ffffff"/><rect y="16" width="20" height="2" fill="#ffffff"/></g><rect x="950" y="791.67" width="79.17" height="79.17" fill="#d0d0d0"/><g transform="translate(950,791.67) scale(3.9585) rotate(0)"><rect width="20" height="2" fill="#5c5c5c"/><rect y="4" width="20" height="2" fill="#5c5c5c"/><rect y="8" width="20" height="2" fill="#5c5c5c"/><rect y="12" width="20" height="2" fill="#5c5c5c"/><rect y="16" width="20" height="2" fill="#5c5c5c"/></g><rect x="1029.17" y="791.67" width="79.17" height="79.17" fill="#575757"/><rect x="1029.17" y="791.67" width="79.17" height="79.17" fill="#3a3a3a"/><rect x="1108.33" y="791.67" width="79.17" height="79.17" fill="#fefaf2"/><rect x="1108.33" y="791.67" width="79.17" height="79.17" fill="#fefefe"/><rect x="1187.5" y="791.67" width="79.17" height="79.17" fill="#ffffff"/><g transform="translate(1187.5,791.67) scale(3.9585) rotate(0)"><rect width="20" height="2" fill="#333333"/><rect y="4" width="20" height="2" fill="#333333"/><rect y="8" width="20" height="2" fill="#333333"/><rect y="12" width="20" height="2" fill="#333333"/><rect y="16" width="20" height="2" fill="#333333"/></g><rect x="1266.67" y="791.67" width="79.17" height="79.17" fill="#ffffff"/><path d="M 1266.67 791.67 A 79.17 79.17 0 0 1 1345.8400000000001 870.8399999999999 L 1266.67 870.8399999999999L1266.67 791.67" fill="#ffffff"/><rect x="0" y="870.83" width="79.17" height="79.17" fill="#2a2a2a"/><rect x="0" y="870.83" width="79.17" height="79.17" fill="#f1c97e"/><rect x="79.17" y="870.83" width="79.17" height="79.17" fill="#c9c9c9"/><path d="M 79.17 870.83 A 79.17 79.17 0 0 1  158.34 950 L 79.17 870.83 A 79.17 79.17 0 0 0 158.34 950" fill="#ffffff"/><rect x="158.33" y="870.83" width="79.17" height="79.17" fill="#f1ca80"/><rect x="158.33" y="870.83" width="79.17" height="79.17" fill="#7b7b7b"/><rect x="237.5" y="870.83" width="79.17" height="79.17" fill="#f5daa7"/><path d="M 237.5 950 A 79.17 79.17 0 0 1  316.67 870.83 L 316.67 950L237.5 950" fill="#888888"/><rect x="316.67" y="870.83" width="79.17" height="79.17" fill="#f0f0f0"/><rect x="316.67" y="870.83" width="79.17" height="79.17" fill="#e59e16"/><rect x="395.83" y="870.83" width="79.17" height="79.17" fill="#f8f8f8"/><path d="M 395.83 870.83 A 79.17 79.17 0 0 1  475 950 L 395.83 870.83 A 79.17 79.17 0 0 0 475 950" fill="#f9eacc"/><rect x="475" y="870.83" width="79.17" height="79.17" fill="#ffffff"/><path d="M 475 870.83 A 79.17 79.17 0 0 1  554.17 950 L 475 870.83 A 79.17 79.17 0 0 0 554.17 950" fill="#8f8f8f"/><rect x="554.17" y="870.83" width="79.17" height="79.17" fill="#ffffff"/><g transform="translate(554.17,870.83) scale(3.9585) rotate(0)"><rect width="20" height="2" fill="#363636"/><rect y="4" width="20" height="2" fill="#363636"/><rect y="8" width="20" height="2" fill="#363636"/><rect y="12" width="20" height="2" fill="#363636"/><rect y="16" width="20" height="2" fill="#363636"/></g><rect x="633.33" y="870.83" width="79.17" height="79.17" fill="#ffffff"/><polygon points="633.33,870.83 712.5,870.83 633.33,950" fill="#f6dcac"/><rect x="712.5" y="870.83" width="79.17" height="79.17" fill="#f1cb81"/><path d="M 712.5 870.83 A 79.17 79.17 0 0 1  791.67 950 L 712.5 870.83 A 79.17 79.17 0 0 0 791.67 950" fill="#edbc5f"/><rect x="791.67" y="870.83" width="79.17" height="79.17" fill="#bcbcbc"/><polygon points="791.67,870.83 870.8399999999999,870.83 791.67,950" fill="#ffffff"/><rect x="870.83" y="870.83" width="79.17" height="79.17" fill="#ffffff"/><polygon points="950,870.83 950,950 870.83,950" fill="#ffffff"/><rect x="950" y="870.83" width="79.17" height="79.17" fill="#2b2b2b"/><rect x="950" y="870.83" width="79.17" height="79.17" fill="#ffffff"/><rect x="1029.17" y="870.83" width="79.17" height="79.17" fill="#ffffff"/><path d="M 1029.17 870.83 A 79.17 79.17 0 0 1  1108.3400000000001 950 L 1029.17 870.83 A 79.17 79.17 0 0 0 1108.3400000000001 950" fill="#b8b8b8"/><rect x="1108.33" y="870.83" width="79.17" height="79.17" fill="#ffffff"/><path d="M 1108.33 870.83 A 79.17 79.17 0 0 1  1187.5 950 L 1108.33 870.83 A 79.17 79.17 0 0 0 1187.5 950" fill="#666666"/><rect x="1187.5" y="870.83" width="79.17" height="79.17" fill="#f2ce89"/><path d="M 1187.5 870.83 A 79.17 79.17 0 0 0 1266.67 950 L 1266.67 870.83L1187.5 870.83" fill="#ffffff"/><rect x="1266.67" y="870.83" width="79.17" height="79.17" fill="#e5a01a"/><path d="M 1266.67 870.83 A 79.17 79.17 0 0 1 1345.8400000000001 950 L 1266.67 950L1266.67 870.83" fill="#ffffff"/></g></svg>