<?xml version="1.0" standalone="no"?><svg xmlns:xlink="http://www.w3.org/1999/xlink" xmlns="http://www.w3.org/2000/svg" viewBox="0 0 500 352.942050630466" preserveAspectRatio="xMaxYMax slice"><g transform="scale(0.37151794803206944)"><rect x="0" y="0" width="1345.8333333333335" height="950" fill="#ffffff"/><rect x="0" y="0" width="79.17" height="79.17" fill="#ffffff"/><path d="M 0 0 A 79.17 79.17 0 0 1  79.17 79.17 L 0 0 A 79.17 79.17 0 0 0 79.17 79.17" fill="#969696"/><rect x="79.17" y="0" width="79.17" height="79.17" fill="#ffffff"/><rect x="79.17" y="0" width="79.17" height="79.17" fill="#5d5d5d"/><rect x="158.33" y="0" width="79.17" height="79.17" fill="#e4a477"/><path d="M 158.33 79.17 A 79.17 79.17 0 0 1  237.5 0 L 158.33 79.17 A 79.17 79.17 0 0 0 237.5 0" fill="#ececec"/><rect x="237.5" y="0" width="79.17" height="79.17" fill="#787878"/><polygon points="316.67,0 316.67,79.17 237.5,79.17" fill="#a9a9a9"/><rect x="316.67" y="0" width="79.17" height="79.17" fill="#ffffff"/><rect x="316.67" y="0" width="79.17" height="79.17" fill="#878787"/><rect x="395.83" y="0" width="79.17" height="79.17" fill="#f5ddcc"/><polygon points="395.83,0 475,79.17 395.83,79.17" fill="#f7f7f7"/><rect x="475" y="0" width="79.17" height="79.17" fill="#707070"/><rect x="475" y="0" width="79.17" height="79.17" fill="#313131"/><rect x="554.17" y="0" width="79.17" height="79.17" fill="#d1671b"/><path d="M 554.17 79.17 A 79.17 79.17 0 0 1  633.3399999999999 0 L 554.17 79.17 A 79.17 79.17 0 0 0 633.3399999999999 0" fill="#e8b38d"/><rect x="633.33" y="0" width="79.17" height="79.17" fill="#ffffff"/><path d="M 633.33 0 A 79.17 79.17 0 0 1  712.5 79.17 L 633.33 0 A 79.17 79.17 0 0 0 712.5 79.17" fill="#e8e8e8"/><rect x="712.5" y="0" width="79.17" height="79.17" fill="#5a5a5a"/><rect x="712.5" y="0" width="79.17" height="79.17" fill="#ffffff"/><rect x="791.67" y="0" width="79.17" height="79.17" fill="#ffffff"/><polygon points="791.67,0 870.8399999999999,0 870.8399999999999,79.17" fill="#ffffff"/><rect x="870.83" y="0" width="79.17" height="79.17" fill="#e5a87d"/><g transform="translate(870.83,0) scale(3.9585) rotate(0)"><rect width="20" height="2" fill="#ffffff"/><rect y="4" width="20" height="2" fill="#ffffff"/><rect y="8" width="20" height="2" fill="#ffffff"/><rect y="12" width="20" height="2" fill="#ffffff"/><rect y="16" width="20" height="2" fill="#ffffff"/></g><rect x="950" y="0" width="79.17" height="79.17" fill="#d36e25"/><path d="M 950 79.17 A 79.17 79.17 0 0 1  1029.17 0 L 950 79.17 A 79.17 79.17 0 0 0 1029.17 0" fill="#f2d5c0"/><rect x="1029.17" y="0" width="79.17" height="79.17" fill="#f2d3bd"/><path d="M 1029.17 0 A 79.17 79.17 0 0 1  1108.3400000000001 79.17 L 1029.17 0 A 79.17 79.17 0 0 0 1108.3400000000001 79.17" fill="#ffffff"/><rect x="1108.33" y="0" width="79.17" height="79.17" fill="#e7b089"/><polygon points="1108.33,0 1187.5,79.17 1108.33,79.17" fill="#eab894"/><rect x="1187.5" y="0" width="79.17" height="79.17" fill="#eaba97"/><polygon points="1187.5,0 1266.67,0 1187.5,79.17" fill="#ffffff"/><rect x="1266.67" y="0" width="79.17" height="79.17" fill="#b6b6b6"/><path d="M 1266.67 79.17 A 79.17 79.17 0 0 1  1345.8400000000001 0 L 1266.67 79.17 A 79.17 79.17 0 0 0 1345.8400000000001 0" fill="#707070"/><rect x="0" y="79.17" width="79.17" height="79.17" fill="#ffffff"/><path d="M 0 79.17 A 79.17 79.17 0 0 1  79.17 158.34 L 0 79.17 A 79.17 79.17 0 0 0 79.17 158.34" fill="#8c8c8c"/><rect x="79.17" y="79.17" width="79.17" height="79.17" fill="#b3b3b3"/><path d="M 79.17 158.34 A 79.17 79.17 0 0 1  158.34 79.17 L 79.17 158.34 A 79.17 79.17 0 0 0 158.34 79.17" fill="#363636"/><rect x="158.33" y="79.17" width="79.17" height="79.17" fill="#898989"/><path d="M 158.33 158.34 A 79.17 79.17 0 0 1  237.5 79.17 L 158.33 158.34 A 79.17 79.17 0 0 0 237.5 79.17" fill="#ffffff"/><rect x="237.5" y="79.17" width="79.17" height="79.17" fill="#e5a97d"/><polygon points="237.5,79.17 316.67,79.17 237.5,158.34" fill="#ffffff"/><rect x="316.67" y="79.17" width="79.17" height="79.17" fill="#b7b7b7"/><path d="M 316.67 158.34 A 79.17 79.17 0 0 1  395.84000000000003 79.17 L 316.67 158.34 A 79.17 79.17 0 0 0 395.84000000000003 79.17" fill="#d2d2d2"/><rect x="395.83" y="79.17" width="79.17" height="79.17" fill="#f8f8f8"/><path d="M 395.83 79.17 A 79.17 79.17 0 0 1  475 158.34 L 395.83 79.17 A 79.17 79.17 0 0 0 475 158.34" fill="#ffffff"/><rect x="475" y="79.17" width="79.17" height="79.17" fill="#bebebe"/><polygon points="554.17,79.17 554.17,158.34 475,158.34" fill="#e09662"/><rect x="554.17" y="79.17" width="79.17" height="79.17" fill="#ffffff"/><polygon points="554.17,79.17 633.3399999999999,79.17 554.17,158.34" fill="#1f1f1f"/><rect x="633.33" y="79.17" width="79.17" height="79.17" fill="#d26b20"/><path d="M 633.33 158.34 A 79.17 79.17 0 0 1  712.5 79.17 L 633.33 158.34 A 79.17 79.17 0 0 0 712.5 79.17" fill="#d46f28"/><rect x="712.5" y="79.17" width="79.17" height="79.17" fill="#ffffff"/><rect x="712.5" y="79.17" width="79.17" height="79.17" fill="#ffffff"/><rect x="791.67" y="79.17" width="79.17" height="79.17" fill="#ffffff"/><path d="M 791.67 79.17 A 79.17 79.17 0 0 1  870.8399999999999 158.34 L 791.67 79.17 A 79.17 79.17 0 0 0 870.8399999999999 158.34" fill="#e4a67a"/><rect x="870.83" y="79.17" width="79.17" height="79.17" fill="#2c2c2c"/><polygon points="870.83,79.17 950,79.17 870.83,158.34" fill="#cc5601"/><rect x="950" y="79.17" width="79.17" height="79.17" fill="#ffffff"/><g transform="translate(950,79.17) scale(3.9585) rotate(0)"><rect width="20" height="2" fill="#292929"/><rect y="4" width="20" height="2" fill="#292929"/><rect y="8" width="20" height="2" fill="#292929"/><rect y="12" width="20" height="2" fill="#292929"/><rect y="16" width="20" height="2" fill="#292929"/></g><rect x="1029.17" y="79.17" width="79.17" height="79.17" fill="#ffffff"/><path d="M 1029.17 79.17 A 79.17 79.17 0 0 1  1108.3400000000001 158.34 L 1029.17 79.17 A 79.17 79.17 0 0 0 1108.3400000000001 158.34" fill="#ffffff"/><rect x="1108.33" y="79.17" width="79.17" height="79.17" fill="#e19967"/><path d="M 1108.33 79.17 A 79.17 79.17 0 0 0 1187.5 158.34 L 1187.5 79.17L1108.33 79.17" fill="#f8e8dc"/><rect x="1187.5" y="79.17" width="79.17" height="79.17" fill="#ffffff"/><g transform="translate(1187.5,79.17) scale(3.9585) rotate(0)"><rect width="20" height="2" fill="#ffffff"/><rect y="4" width="20" height="2" fill="#ffffff"/><rect y="8" width="20" height="2" fill="#ffffff"/><rect y="12" width="20" height="2" fill="#ffffff"/><rect y="16" width="20" height="2" fill="#ffffff"/></g><rect x="1266.67" y="79.17" width="79.17" height="79.17" fill="#eec7ab"/><polygon points="1266.67,79.17 1345.8400000000001,158.34 1266.67,158.34" fill="#1a1a1a"/><rect x="0" y="158.33" width="79.17" height="79.17" fill="#db864a"/><g transform="translate(0,158.33) scale(3.9585) rotate(0)"><rect width="20" height="2" fill="#ffffff"/><rect y="4" width="20" height="2" fill="#ffffff"/><rect y="8" width="20" height="2" fill="#ffffff"/><rect y="12" width="20" height="2" fill="#ffffff"/><rect y="16" width="20" height="2" fill="#ffffff"/></g><rect x="79.17" y="158.33" width="79.17" height="79.17" fill="#f6e2d4"/><path d="M 79.17 237.5 A 79.17 79.17 0 0 1  158.34 158.33 L 79.17 237.5 A 79.17 79.17 0 0 0 158.34 158.33" fill="#313131"/><rect x="158.33" y="158.33" width="79.17" height="79.17" fill="#fcf6f2"/><g transform="translate(158.33,158.33) scale(3.9585) rotate(0)"><rect width="20" height="2" fill="#de925c"/><rect y="4" width="20" height="2" fill="#de925c"/><rect y="8" width="20" height="2" fill="#de925c"/><rect y="12" width="20" height="2" fill="#de925c"/><rect y="16" width="20" height="2" fill="#de925c"/></g><rect x="237.5" y="158.33" width="79.17" height="79.17" fill="#fffefd"/><g transform="translate(237.5,158.33) scale(3.9585) rotate(0)"><rect width="20" height="2" fill="#4a4a4a"/><rect y="4" width="20" height="2" fill="#4a4a4a"/><rect y="8" width="20" height="2" fill="#4a4a4a"/><rect y="12" width="20" height="2" fill="#4a4a4a"/><rect y="16" width="20" height="2" fill="#4a4a4a"/></g><rect x="316.67" y="158.33" width="79.17" height="79.17" fill="#d46f26"/><polygon points="316.67,158.33 395.84000000000003,158.33 395.84000000000003,237.5" fill="#ffffff"/><rect x="395.83" y="158.33" width="79.17" height="79.17" fill="#292929"/><polygon points="395.83,158.33 475,237.5 395.83,237.5" fill="#6f6f6f"/><rect x="475" y="158.33" width="79.17" height="79.17" fill="#4e4e4e"/><polygon points="554.17,158.33 554.17,237.5 475,237.5" fill="#e4e4e4"/><rect x="554.17" y="158.33" width="79.17" height="79.17" fill="#ffffff"/><g transform="translate(554.17,158.33) scale(3.9585) rotate(0)"><rect width="20" height="2" fill="#5e5e5e"/><rect y="4" width="20" height="2" fill="#5e5e5e"/><rect y="8" width="20" height="2" fill="#5e5e5e"/><rect y="12" width="20" height="2" fill="#5e5e5e"/><rect y="16" width="20" height="2" fill="#5e5e5e"/></g><rect x="633.33" y="158.33" width="79.17" height="79.17" fill="#e5aa7f"/><g transform="translate(633.33,158.33) scale(3.9585) rotate(0)"><rect width="20" height="2" fill="#faeee5"/><rect y="4" width="20" height="2" fill="#faeee5"/><rect y="8" width="20" height="2" fill="#faeee5"/><rect y="12" width="20" height="2" fill="#faeee5"/><rect y="16" width="20" height="2" fill="#faeee5"/></g><rect x="712.5" y="158.33" width="79.17" height="79.17" fill="#ffffff"/><path d="M 712.5 158.33 A 79.17 79.17 0 0 1 791.67 237.5 L 712.5 237.5L712.5 158.33" fill="#272727"/><rect x="791.67" y="158.33" width="79.17" height="79.17" fill="#ffffff"/><rect x="791.67" y="158.33" width="79.17" height="79.17" fill="#ffffff"/><rect x="870.83" y="158.33" width="79.17" height="79.17" fill="#e09966"/><rect x="870.83" y="158.33" width="79.17" height="79.17" fill="#2d2d2d"/><rect x="950" y="158.33" width="79.17" height="79.17" fill="#e6e6e6"/><path d="M 950 237.5 A 79.17 79.17 0 0 1  1029.17 158.33 L 1029.17 237.5L950 237.5" fill="#ffffff"/><rect x="1029.17" y="158.33" width="79.17" height="79.17" fill="#282828"/><path d="M 1029.17 158.33 A 79.17 79.17 0 0 1  1108.3400000000001 237.5 L 1029.17 158.33 A 79.17 79.17 0 0 0 1108.3400000000001 237.5" fill="#f1d0b8"/><rect x="1108.33" y="158.33" width="79.17" height="79.17" fill="#fffffe"/><g transform="translate(1108.33,158.33) scale(3.9585) rotate(0)"><rect width="20" height="2" fill="#f5f5f5"/><rect y="4" width="20" height="2" fill="#f5f5f5"/><rect y="8" width="20" height="2" fill="#f5f5f5"/><rect y="12" width="20" height="2" fill="#f5f5f5"/><rect y="16" width="20" height="2" fill="#f5f5f5"/></g><rect x="1187.5" y="158.33" width="79.17" height="79.17" fill="#e7e7e7"/><path d="M 1187.5 158.33 A 79.17 79.17 0 0 1  1266.67 237.5 L 1187.5 158.33 A 79.17 79.17 0 0 0 1266.67 237.5" fill="#ffffff"/><rect x="1266.67" y="158.33" width="79.17" height="79.17" fill="#616161"/><path d="M 1266.67 237.5 A 79.17 79.17 0 0 1  1345.8400000000001 158.33 L 1266.67 237.5 A 79.17 79.17 0 0 0 1345.8400000000001 158.33" fill="#ebbc9b"/><rect x="0" y="237.5" width="79.17" height="79.17" fill="#9e9e9e"/><rect x="0" y="237.5" width="79.17" height="79.17" fill="#ffffff"/><rect x="79.17" y="237.5" width="79.17" height="79.17" fill="#5e5e5e"/><path d="M 79.17 237.5 A 79.17 79.17 0 0 0 158.34 316.67 L 158.34 237.5L79.17 237.5" fill="#f9ebe1"/><rect x="158.33" y="237.5" width="79.17" height="79.17" fill="#7f7f7f"/><path d="M 158.33 237.5 A 79.17 79.17 0 0 1  237.5 316.67 L 158.33 237.5 A 79.17 79.17 0 0 0 237.5 316.67" fill="#929292"/><rect x="237.5" y="237.5" width="79.17" height="79.17" fill="#ffffff"/><path d="M 237.5 237.5 A 79.17 79.17 0 0 1  316.67 316.67 L 237.5 237.5 A 79.17 79.17 0 0 0 316.67 316.67" fill="#f5dfcf"/><rect x="316.67" y="237.5" width="79.17" height="79.17" fill="#ffffff"/><path d="M 316.67 316.67 A 79.17 79.17 0 0 1  395.84000000000003 237.5 L 316.67 316.67 A 79.17 79.17 0 0 0 395.84000000000003 237.5" fill="#fdf8f4"/><rect x="395.83" y="237.5" width="79.17" height="79.17" fill="#dd8c53"/><g transform="translate(395.83,237.5) scale(3.9585) rotate(0)"><rect width="20" height="2" fill="#ffffff"/><rect y="4" width="20" height="2" fill="#ffffff"/><rect y="8" width="20" height="2" fill="#ffffff"/><rect y="12" width="20" height="2" fill="#ffffff"/><rect y="16" width="20" height="2" fill="#ffffff"/></g><rect x="475" y="237.5" width="79.17" height="79.17" fill="#fefdfc"/><g transform="translate(475,237.5) scale(3.9585) rotate(0)"><rect width="20" height="2" fill="#ffffff"/><rect y="4" width="20" height="2" fill="#ffffff"/><rect y="8" width="20" height="2" fill="#ffffff"/><rect y="12" width="20" height="2" fill="#ffffff"/><rect y="16" width="20" height="2" fill="#ffffff"/></g><rect x="554.17" y="237.5" width="79.17" height="79.17" fill="#5c5c5c"/><rect x="554.17" y="237.5" width="79.17" height="79.17" fill="#ffffff"/><rect x="633.33" y="237.5" width="79.17" height="79.17" fill="#1f1f1f"/><path d="M 633.33 237.5 A 79.17 79.17 0 0 1  712.5 316.67 L 633.33 237.5 A 79.17 79.17 0 0 0 712.5 316.67" fill="#d47029"/><rect x="712.5" y="237.5" width="79.17" height="79.17" fill="#ffffff"/><polygon points="712.5,237.5 791.67,237.5 791.67,316.67" fill="#f6e2d4"/><rect x="791.67" y="237.5" width="79.17" height="79.17" fill="#999999"/><rect x="791.67" y="237.5" width="79.17" height="79.17" fill="#e9b691"/><rect x="870.83" y="237.5" width="79.17" height="79.17" fill="#edc3a5"/><rect x="870.83" y="237.5" width="79.17" height="79.17" fill="#ffffff"/><rect x="950" y="237.5" width="79.17" height="79.17" fill="#e1e1e1"/><path d="M 950 316.67 A 79.17 79.17 0 0 1  1029.17 237.5 L 950 316.67 A 79.17 79.17 0 0 0 1029.17 237.5" fill="#ffffff"/><rect x="1029.17" y="237.5" width="79.17" height="79.17" fill="#cc5500"/><rect x="1029.17" y="237.5" width="79.17" height="79.17" fill="#626262"/><rect x="1108.33" y="237.5" width="79.17" height="79.17" fill="#e19c6a"/><polygon points="1108.33,237.5 1187.5,237.5 1187.5,316.67" fill="#818181"/><rect x="1187.5" y="237.5" width="79.17" height="79.17" fill="#ecc0a1"/><path d="M 1187.5 237.5 A 79.17 79.17 0 0 1  1266.67 316.67 L 1187.5 237.5 A 79.17 79.17 0 0 0 1266.67 316.67" fill="#e7e7e7"/><rect x="1266.67" y="237.5" width="79.17" height="79.17" fill="#717171"/><path d="M 1266.67 316.67 A 79.17 79.17 0 0 1  1345.8400000000001 237.5 L 1266.67 316.67 A 79.17 79.17 0 0 0 1345.8400000000001 237.5" fill="#dd8d54"/><rect x="0" y="316.67" width="79.17" height="79.17" fill="#212121"/><rect x="0" y="316.67" width="79.17" height="79.17" fill="#ffffff"/><rect x="79.17" y="316.67" width="79.17" height="79.17" fill="#da8446"/><polygon points="79.17,316.67 158.34,316.67 158.34,395.84000000000003" fill="#d46e26"/><rect x="158.33" y="316.67" width="79.17" height="79.17" fill="#c3c3c3"/><polygon points="237.5,316.67 237.5,395.84000000000003 158.33,395.84000000000003" fill="#ffffff"/><rect x="237.5" y="316.67" width="79.17" height="79.17" fill="#ffffff"/><polygon points="237.5,316.67 316.67,395.84000000000003 237.5,395.84000000000003" fill="#3c3c3c"/><rect x="316.67" y="316.67" width="79.17" height="79.17" fill="#e7e7e7"/><polygon points="316.67,316.67 395.84000000000003,316.67 316.67,395.84000000000003" fill="#f6e1d2"/><rect x="395.83" y="316.67" width="79.17" height="79.17" fill="#e09763"/><path d="M 395.83 395.84000000000003 A 79.17 79.17 0 0 1  475 316.67 L 395.83 395.84000000000003 A 79.17 79.17 0 0 0 475 316.67" fill="#ffffff"/><rect x="475" y="316.67" width="79.17" height="79.17" fill="#ffffff"/><g transform="translate(475,316.67) scale(3.9585) rotate(0)"><rect width="20" height="2" fill="#ffffff"/><rect y="4" width="20" height="2" fill="#ffffff"/><rect y="8" width="20" height="2" fill="#ffffff"/><rect y="12" width="20" height="2" fill="#ffffff"/><rect y="16" width="20" height="2" fill="#ffffff"/></g><rect x="554.17" y="316.67" width="79.17" height="79.17" fill="#383838"/><rect x="554.17" y="316.67" width="79.17" height="79.17" fill="#a5a5a5"/><rect x="633.33" y="316.67" width="79.17" height="79.17" fill="#454545"/><path d="M 633.33 395.84000000000003 A 79.17 79.17 0 0 1  712.5 316.67 L 633.33 395.84000000000003 A 79.17 79.17 0 0 0 712.5 316.67" fill="#e09966"/><rect x="712.5" y="316.67" width="79.17" height="79.17" fill="#ffffff"/><rect x="712.5" y="316.67" width="79.17" height="79.17" fill="#ffffff"/><rect x="791.67" y="316.67" width="79.17" height="79.17" fill="#ebbd9c"/><path d="M 791.67 316.67 A 79.17 79.17 0 0 1  870.8399999999999 395.84000000000003 L 791.67 316.67 A 79.17 79.17 0 0 0 870.8399999999999 395.84000000000003" fill="#cecece"/><rect x="870.83" y="316.67" width="79.17" height="79.17" fill="#faede5"/><polygon points="870.83,316.67 950,316.67 950,395.84000000000003" fill="#ffffff"/><rect x="950" y="316.67" width="79.17" height="79.17" fill="#828282"/><g transform="translate(950,316.67) scale(3.9585) rotate(0)"><rect width="20" height="2" fill="#464646"/><rect y="4" width="20" height="2" fill="#464646"/><rect y="8" width="20" height="2" fill="#464646"/><rect y="12" width="20" height="2" fill="#464646"/><rect y="16" width="20" height="2" fill="#464646"/></g><rect x="1029.17" y="316.67" width="79.17" height="79.17" fill="#d36d24"/><polygon points="1029.17,316.67 1108.3400000000001,395.84000000000003 1029.17,395.84000000000003" fill="#dcdcdc"/><rect x="1108.33" y="316.67" width="79.17" height="79.17" fill="#454545"/><rect x="1108.33" y="316.67" width="79.17" height="79.17" fill="#303030"/><rect x="1187.5" y="316.67" width="79.17" height="79.17" fill="#d36d24"/><path d="M 1187.5 316.67 A 79.17 79.17 0 0 0 1266.67 395.84000000000003 L 1266.67 316.67L1187.5 316.67" fill="#f5dfcf"/><rect x="1266.67" y="316.67" width="79.17" height="79.17" fill="#e8b48e"/><path d="M 1266.67 316.67 A 79.17 79.17 0 0 1  1345.8400000000001 395.84000000000003 L 1266.67 316.67 A 79.17 79.17 0 0 0 1345.8400000000001 395.84000000000003" fill="#ffffff"/><rect x="0" y="395.83" width="79.17" height="79.17" fill="#dcdcdc"/><polygon points="0,395.83 79.17,395.83 79.17,475" fill="#df945f"/><rect x="79.17" y="395.83" width="79.17" height="79.17" fill="#ffffff"/><g transform="translate(79.17,395.83) scale(3.9585) rotate(0)"><rect width="20" height="2" fill="#ffffff"/><rect y="4" width="20" height="2" fill="#ffffff"/><rect y="8" width="20" height="2" fill="#ffffff"/><rect y="12" width="20" height="2" fill="#ffffff"/><rect y="16" width="20" height="2" fill="#ffffff"/></g><rect x="158.33" y="395.83" width="79.17" height="79.17" fill="#8b8b8b"/><path d="M 158.33 395.83 A 79.17 79.17 0 0 1  237.5 475 L 158.33 395.83 A 79.17 79.17 0 0 0 237.5 475" fill="#e7af87"/><rect x="237.5" y="395.83" width="79.17" height="79.17" fill="#ffffff"/><polygon points="237.5,395.83 316.67,475 237.5,475" fill="#e3a274"/><rect x="316.67" y="395.83" width="79.17" height="79.17" fill="#ebbb99"/><polygon points="316.67,395.83 395.84000000000003,395.83 395.84000000000003,475" fill="#909090"/><rect x="395.83" y="395.83" width="79.17" height="79.17" fill="#ffffff"/><path d="M 395.83 475 A 79.17 79.17 0 0 0 475 395.83 L 395.83 395.83L395.83 475" fill="#7e7e7e"/><rect x="475" y="395.83" width="79.17" height="79.17" fill="#ffffff"/><polygon points="475,395.83 554.17,395.83 475,475" fill="#ffffff"/><rect x="554.17" y="395.83" width="79.17" height="79.17" fill="#ffffff"/><path d="M 554.17 475 A 79.17 79.17 0 0 1  633.3399999999999 395.83 L 554.17 475 A 79.17 79.17 0 0 0 633.3399999999999 395.83" fill="#da8548"/><rect x="633.33" y="395.83" width="79.17" height="79.17" fill="#ffffff"/><path d="M 633.33 395.83 A 79.17 79.17 0 0 0 712.5 475 L 712.5 395.83L633.33 395.83" fill="#fbf3ed"/><rect x="712.5" y="395.83" width="79.17" height="79.17" fill="#525252"/><g transform="translate(712.5,395.83) scale(3.9585) rotate(0)"><rect width="20" height="2" fill="#ffffff"/><rect y="4" width="20" height="2" fill="#ffffff"/><rect y="8" width="20" height="2" fill="#ffffff"/><rect y="12" width="20" height="2" fill="#ffffff"/><rect y="16" width="20" height="2" fill="#ffffff"/></g><rect x="791.67" y="395.83" width="79.17" height="79.17" fill="#ffffff"/><path d="M 791.67 475 A 79.17 79.17 0 0 1  870.8399999999999 395.83 L 791.67 475 A 79.17 79.17 0 0 0 870.8399999999999 395.83" fill="#d9d9d9"/><rect x="870.83" y="395.83" width="79.17" height="79.17" fill="#d4712a"/><rect x="870.83" y="395.83" width="79.17" height="79.17" fill="#595959"/><rect x="950" y="395.83" width="79.17" height="79.17" fill="#cc5602"/><rect x="950" y="395.83" width="79.17" height="79.17" fill="#db864a"/><rect x="1029.17" y="395.83" width="79.17" height="79.17" fill="#e4a67a"/><path d="M 1029.17 395.83 A 79.17 79.17 0 0 1 1108.3400000000001 475 L 1029.17 475L1029.17 395.83" fill="#ffffff"/><rect x="1108.33" y="395.83" width="79.17" height="79.17" fill="#ffffff"/><path d="M 1108.33 475 A 79.17 79.17 0 0 1  1187.5 395.83 L 1108.33 475 A 79.17 79.17 0 0 0 1187.5 395.83" fill="#f6f6f6"/><rect x="1187.5" y="395.83" width="79.17" height="79.17" fill="#ffffff"/><polygon points="1187.5,395.83 1266.67,395.83 1187.5,475" fill="#4f4f4f"/><rect x="1266.67" y="395.83" width="79.17" height="79.17" fill="#ffffff"/><path d="M 1266.67 395.83 A 79.17 79.17 0 0 1 1345.8400000000001 475 L 1266.67 475L1266.67 395.83" fill="#e5a87c"/><rect x="0" y="475" width="79.17" height="79.17" fill="#f5decd"/><polygon points="0,475 79.17,475 79.17,554.17" fill="#ffffff"/><rect x="79.17" y="475" width="79.17" height="79.17" fill="#e5a97e"/><polygon points="158.34,475 158.34,554.17 79.17,554.17" fill="#d67632"/><rect x="158.33" y="475" width="79.17" height="79.17" fill="#f5dece"/><path d="M 158.33 554.17 A 79.17 79.17 0 0 0 237.5 475 L 158.33 475L158.33 554.17" fill="#d77936"/><rect x="237.5" y="475" width="79.17" height="79.17" fill="#d36c22"/><g transform="translate(237.5,475) scale(3.9585) rotate(0)"><rect width="20" height="2" fill="#747474"/><rect y="4" width="20" height="2" fill="#747474"/><rect y="8" width="20" height="2" fill="#747474"/><rect y="12" width="20" height="2" fill="#747474"/><rect y="16" width="20" height="2" fill="#747474"/></g><rect x="316.67" y="475" width="79.17" height="79.17" fill="#e8b28b"/><rect x="316.67" y="475" width="79.17" height="79.17" fill="#d36d24"/><rect x="395.83" y="475" width="79.17" height="79.17" fill="#ffffff"/><g transform="translate(395.83,475) scale(3.9585) rotate(0)"><rect width="20" height="2" fill="#9a9a9a"/><rect y="4" width="20" height="2" fill="#9a9a9a"/><rect y="8" width="20" height="2" fill="#9a9a9a"/><rect y="12" width="20" height="2" fill="#9a9a9a"/><rect y="16" width="20" height="2" fill="#9a9a9a"/></g><rect x="475" y="475" width="79.17" height="79.17" fill="#ffffff"/><path d="M 475 475 A 79.17 79.17 0 0 1  554.17 554.17 L 475 475 A 79.17 79.17 0 0 0 554.17 554.17" fill="#d9d9d9"/><rect x="554.17" y="475" width="79.17" height="79.17" fill="#323232"/><g transform="translate(554.17,475) scale(3.9585) rotate(0)"><rect width="20" height="2" fill="#ffffff"/><rect y="4" width="20" height="2" fill="#ffffff"/><rect y="8" width="20" height="2" fill="#ffffff"/><rect y="12" width="20" height="2" fill="#ffffff"/><rect y="16" width="20" height="2" fill="#ffffff"/></g><rect x="633.33" y="475" width="79.17" height="79.17" fill="#ffffff"/><g transform="translate(633.33,475) scale(3.9585) rotate(0)"><rect width="20" height="2" fill="#ffffff"/><rect y="4" width="20" height="2" fill="#ffffff"/><rect y="8" width="20" height="2" fill="#ffffff"/><rect y="12" width="20" height="2" fill="#ffffff"/><rect y="16" width="20" height="2" fill="#ffffff"/></g><rect x="712.5" y="475" width="79.17" height="79.17" fill="#333333"/><polygon points="712.5,475 791.67,475 791.67,554.17" fill="#ffffff"/><rect x="791.67" y="475" width="79.17" height="79.17" fill="#ffffff"/><rect x="791.67" y="475" width="79.17" height="79.17" fill="#efc9ad"/><rect x="870.83" y="475" width="79.17" height="79.17" fill="#ffffff"/><g transform="translate(870.83,475) scale(3.9585) rotate(0)"><rect width="20" height="2" fill="#ffffff"/><rect y="4" width="20" height="2" fill="#ffffff"/><rect y="8" width="20" height="2" fill="#ffffff"/><rect y="12" width="20" height="2" fill="#ffffff"/><rect y="16" width="20" height="2" fill="#ffffff"/></g><rect x="950" y="475" width="79.17" height="79.17" fill="#747474"/><polygon points="950,475 1029.17,475 950,554.17" fill="#dd8c53"/><rect x="1029.17" y="475" width="79.17" height="79.17" fill="#313131"/><rect x="1029.17" y="475" width="79.17" height="79.17" fill="#f3d8c5"/><rect x="1108.33" y="475" width="79.17" height="79.17" fill="#ffffff"/><polygon points="1108.33,475 1187.5,554.17 1108.33,554.17" fill="#f6e0d0"/><rect x="1187.5" y="475" width="79.17" height="79.17" fill="#ffffff"/><g transform="translate(1187.5,475) scale(3.9585) rotate(0)"><rect width="20" height="2" fill="#999999"/><rect y="4" width="20" height="2" fill="#999999"/><rect y="8" width="20" height="2" fill="#999999"/><rect y="12" width="20" height="2" fill="#999999"/><rect y="16" width="20" height="2" fill="#999999"/></g><rect x="1266.67" y="475" width="79.17" height="79.17" fill="#171717"/><g transform="translate(1266.67,475) scale(3.9585) rotate(0)"><rect width="20" height="2" fill="#ffffff"/><rect y="4" width="20" height="2" fill="#ffffff"/><rect y="8" width="20" height="2" fill="#ffffff"/><rect y="12" width="20" height="2" fill="#ffffff"/><rect y="16" width="20" height="2" fill="#ffffff"/></g><rect x="0" y="554.17" width="79.17" height="79.17" fill="#d46f27"/><path d="M 0 554.17 A 79.17 79.17 0 0 1  79.17 633.3399999999999 L 0 554.17 A 79.17 79.17 0 0 0 79.17 633.3399999999999" fill="#646464"/><rect x="79.17" y="554.17" width="79.17" height="79.17" fill="#cdcdcd"/><path d="M 79.17 633.3399999999999 A 79.17 79.17 0 0 1  158.34 554.17 L 158.34 633.3399999999999L79.17 633.3399999999999" fill="#c5c5c5"/><rect x="158.33" y="554.17" width="79.17" height="79.17" fill="#8b8b8b"/><path d="M 158.33 554.17 A 79.17 79.17 0 0 0 237.5 633.3399999999999 L 237.5 554.17L158.33 554.17" fill="#e7b089"/><rect x="237.5" y="554.17" width="79.17" height="79.17" fill="#ffffff"/><rect x="237.5" y="554.17" width="79.17" height="79.17" fill="#b7b7b7"/><rect x="316.67" y="554.17" width="79.17" height="79.17" fill="#c6c6c6"/><polygon points="316.67,554.17 395.84000000000003,633.3399999999999 316.67,633.3399999999999" fill="#ffffff"/><rect x="395.83" y="554.17" width="79.17" height="79.17" fill="#d87d3c"/><polygon points="395.83,554.17 475,554.17 475,633.3399999999999" fill="#fcf6f2"/><rect x="475" y="554.17" width="79.17" height="79.17" fill="#797979"/><polygon points="475,554.17 554.17,554.17 554.17,633.3399999999999" fill="#fffefd"/><rect x="554.17" y="554.17" width="79.17" height="79.17" fill="#fefbfa"/><g transform="translate(554.17,554.17) scale(3.9585) rotate(0)"><rect width="20" height="2" fill="#848484"/><rect y="4" width="20" height="2" fill="#848484"/><rect y="8" width="20" height="2" fill="#848484"/><rect y="12" width="20" height="2" fill="#848484"/><rect y="16" width="20" height="2" fill="#848484"/></g><rect x="633.33" y="554.17" width="79.17" height="79.17" fill="#ffffff"/><path d="M 633.33 554.17 A 79.17 79.17 0 0 1  712.5 633.3399999999999 L 633.33 554.17 A 79.17 79.17 0 0 0 712.5 633.3399999999999" fill="#d97f3f"/><rect x="712.5" y="554.17" width="79.17" height="79.17" fill="#ffffff"/><path d="M 712.5 633.3399999999999 A 79.17 79.17 0 0 1  791.67 554.17 L 712.5 633.3399999999999 A 79.17 79.17 0 0 0 791.67 554.17" fill="#ffffff"/><rect x="791.67" y="554.17" width="79.17" height="79.17" fill="#e4a77a"/><path d="M 791.67 633.3399999999999 A 79.17 79.17 0 0 1  870.8399999999999 554.17 L 791.67 633.3399999999999 A 79.17 79.17 0 0 0 870.8399999999999 554.17" fill="#ffffff"/><rect x="870.83" y="554.17" width="79.17" height="79.17" fill="#e9b793"/><path d="M 870.83 633.3399999999999 A 79.17 79.17 0 0 1  950 554.17 L 870.83 633.3399999999999 A 79.17 79.17 0 0 0 950 554.17" fill="#ffffff"/><rect x="950" y="554.17" width="79.17" height="79.17" fill="#353535"/><g transform="translate(950,554.17) scale(3.9585) rotate(0)"><rect width="20" height="2" fill="#e5e5e5"/><rect y="4" width="20" height="2" fill="#e5e5e5"/><rect y="8" width="20" height="2" fill="#e5e5e5"/><rect y="12" width="20" height="2" fill="#e5e5e5"/><rect y="16" width="20" height="2" fill="#e5e5e5"/></g><rect x="1029.17" y="554.17" width="79.17" height="79.17" fill="#252525"/><path d="M 1029.17 554.17 A 79.17 79.17 0 0 1  1108.3400000000001 633.3399999999999 L 1029.17 554.17 A 79.17 79.17 0 0 0 1108.3400000000001 633.3399999999999" fill="#555555"/><rect x="1108.33" y="554.17" width="79.17" height="79.17" fill="#565656"/><path d="M 1108.33 633.3399999999999 A 79.17 79.17 0 0 1  1187.5 554.17 L 1108.33 633.3399999999999 A 79.17 79.17 0 0 0 1187.5 554.17" fill="#f0cdb4"/><rect x="1187.5" y="554.17" width="79.17" height="79.17" fill="#ffffff"/><path d="M 1187.5 633.3399999999999 A 79.17 79.17 0 0 0 1266.67 554.17 L 1187.5 554.17L1187.5 633.3399999999999" fill="#b8b8b8"/><rect x="1266.67" y="554.17" width="79.17" height="79.17" fill="#d1671a"/><path d="M 1266.67 633.3399999999999 A 79.17 79.17 0 0 1  1345.8400000000001 554.17 L 1266.67 633.3399999999999 A 79.17 79.17 0 0 0 1345.8400000000001 554.17" fill="#ffffff"/><rect x="0" y="633.33" width="79.17" height="79.17" fill="#e2e2e2"/><path d="M 0 633.33 A 79.17 79.17 0 0 1  79.17 712.5 L 0 633.33 A 79.17 79.17 0 0 0 79.17 712.5" fill="#f5dccb"/><rect x="79.17" y="633.33" width="79.17" height="79.17" fill="#393939"/><path d="M 79.17 633.33 A 79.17 79.17 0 0 0 158.34 712.5 L 158.34 633.33L79.17 633.33" fill="#dc8c52"/><rect x="158.33" y="633.33" width="79.17" height="79.17" fill="#1f1f1f"/><rect x="158.33" y="633.33" width="79.17" height="79.17" fill="#3f3f3f"/><rect x="237.5" y="633.33" width="79.17" height="79.17" fill="#727272"/><polygon points="237.5,633.33 316.67,633.33 237.5,712.5" fill="#de9058"/><rect x="316.67" y="633.33" width="79.17" height="79.17" fill="#353535"/><g transform="translate(316.67,633.33) scale(3.9585) rotate(0)"><rect width="20" height="2" fill="#ffffff"/><rect y="4" width="20" height="2" fill="#ffffff"/><rect y="8" width="20" height="2" fill="#ffffff"/><rect y="12" width="20" height="2" fill="#ffffff"/><rect y="16" width="20" height="2" fill="#ffffff"/></g><rect x="395.83" y="633.33" width="79.17" height="79.17" fill="#d36d24"/><rect x="395.83" y="633.33" width="79.17" height="79.17" fill="#505050"/><rect x="475" y="633.33" width="79.17" height="79.17" fill="#fefefe"/><polygon points="475,633.33 554.17,633.33 554.17,712.5" fill="#dc894f"/><rect x="554.17" y="633.33" width="79.17" height="79.17" fill="#282828"/><polygon points="554.17,633.33 633.3399999999999,633.33 554.17,712.5" fill="#8e8e8e"/><rect x="633.33" y="633.33" width="79.17" height="79.17" fill="#f8f8f8"/><g transform="translate(633.33,633.33) scale(3.9585) rotate(0)"><rect width="20" height="2" fill="#eaba97"/><rect y="4" width="20" height="2" fill="#eaba97"/><rect y="8" width="20" height="2" fill="#eaba97"/><rect y="12" width="20" height="2" fill="#eaba97"/><rect y="16" width="20" height="2" fill="#eaba97"/></g><rect x="712.5" y="633.33" width="79.17" height="79.17" fill="#8e8e8e"/><path d="M 712.5 633.33 A 79.17 79.17 0 0 1  791.67 712.5 L 712.5 633.33 A 79.17 79.17 0 0 0 791.67 712.5" fill="#db864a"/><rect x="791.67" y="633.33" width="79.17" height="79.17" fill="#d26a20"/><polygon points="791.67,633.33 870.8399999999999,633.33 791.67,712.5" fill="#a9a9a9"/><rect x="870.83" y="633.33" width="79.17" height="79.17" fill="#ffffff"/><rect x="870.83" y="633.33" width="79.17" height="79.17" fill="#ffffff"/><rect x="950" y="633.33" width="79.17" height="79.17" fill="#ffffff"/><polygon points="950,633.33 1029.17,633.33 950,712.5" fill="#8e8e8e"/><rect x="1029.17" y="633.33" width="79.17" height="79.17" fill="#ffffff"/><g transform="translate(1029.17,633.33) scale(3.9585) rotate(0)"><rect width="20" height="2" fill="#fbf0e9"/><rect y="4" width="20" height="2" fill="#fbf0e9"/><rect y="8" width="20" height="2" fill="#fbf0e9"/><rect y="12" width="20" height="2" fill="#fbf0e9"/><rect y="16" width="20" height="2" fill="#fbf0e9"/></g><rect x="1108.33" y="633.33" width="79.17" height="79.17" fill="#ffffff"/><rect x="1108.33" y="633.33" width="79.17" height="79.17" fill="#ffffff"/><rect x="1187.5" y="633.33" width="79.17" height="79.17" fill="#f2d3bd"/><rect x="1187.5" y="633.33" width="79.17" height="79.17" fill="#e6ab81"/><rect x="1266.67" y="633.33" width="79.17" height="79.17" fill="#fdf9f6"/><rect x="1266.67" y="633.33" width="79.17" height="79.17" fill="#ffffff"/><rect x="0" y="712.5" width="79.17" height="79.17" fill="#9a9a9a"/><polygon points="0,712.5 79.17,791.67 0,791.67" fill="#e29d6d"/><rect x="79.17" y="712.5" width="79.17" height="79.17" fill="#d36b21"/><g transform="translate(79.17,712.5) scale(3.9585) rotate(0)"><rect width="20" height="2" fill="#ffffff"/><rect y="4" width="20" height="2" fill="#ffffff"/><rect y="8" width="20" height="2" fill="#ffffff"/><rect y="12" width="20" height="2" fill="#ffffff"/><rect y="16" width="20" height="2" fill="#ffffff"/></g><rect x="158.33" y="712.5" width="79.17" height="79.17" fill="#ffffff"/><path d="M 158.33 712.5 A 79.17 79.17 0 0 1 237.5 791.67 L 158.33 791.67L158.33 712.5" fill="#cd5a07"/><rect x="237.5" y="712.5" width="79.17" height="79.17" fill="#e19a68"/><g transform="translate(237.5,712.5) scale(3.9585) rotate(0)"><rect width="20" height="2" fill="#777777"/><rect y="4" width="20" height="2" fill="#777777"/><rect y="8" width="20" height="2" fill="#777777"/><rect y="12" width="20" height="2" fill="#777777"/><rect y="16" width="20" height="2" fill="#777777"/></g><rect x="316.67" y="712.5" width="79.17" height="79.17" fill="#8e8e8e"/><path d="M 316.67 712.5 A 79.17 79.17 0 0 1  395.84000000000003 791.67 L 316.67 712.5 A 79.17 79.17 0 0 0 395.84000000000003 791.67" fill="#ffffff"/><rect x="395.83" y="712.5" width="79.17" height="79.17" fill="#d06315"/><rect x="395.83" y="712.5" width="79.17" height="79.17" fill="#f8e9dd"/><rect x="475" y="712.5" width="79.17" height="79.17" fill="#ffffff"/><polygon points="554.17,712.5 554.17,791.67 475,791.67" fill="#666666"/><rect x="554.17" y="712.5" width="79.17" height="79.17" fill="#c0c0c0"/><path d="M 554.17 791.67 A 79.17 79.17 0 0 0 633.3399999999999 712.5 L 554.17 712.5L554.17 791.67" fill="#ffffff"/><rect x="633.33" y="712.5" width="79.17" height="79.17" fill="#ffffff"/><rect x="633.33" y="712.5" width="79.17" height="79.17" fill="#848484"/><rect x="712.5" y="712.5" width="79.17" height="79.17" fill="#e09662"/><path d="M 712.5 791.67 A 79.17 79.17 0 0 1  791.67 712.5 L 712.5 791.67 A 79.17 79.17 0 0 0 791.67 712.5" fill="#ebebeb"/><rect x="791.67" y="712.5" width="79.17" height="79.17" fill="#f5dfcf"/><path d="M 791.67 791.67 A 79.17 79.17 0 0 1  870.8399999999999 712.5 L 870.8399999999999 791.67L791.67 791.67" fill="#e2e2e2"/><rect x="870.83" y="712.5" width="79.17" height="79.17" fill="#fefdfc"/><path d="M 870.83 791.67 A 79.17 79.17 0 0 1  950 712.5 L 870.83 791.67 A 79.17 79.17 0 0 0 950 712.5" fill="#ffffff"/><rect x="950" y="712.5" width="79.17" height="79.17" fill="#fcf6f1"/><rect x="950" y="712.5" width="79.17" height="79.17" fill="#747474"/><rect x="1029.17" y="712.5" width="79.17" height="79.17" fill="#ffffff"/><polygon points="1029.17,712.5 1108.3400000000001,712.5 1029.17,791.67" fill="#ffffff"/><rect x="1108.33" y="712.5" width="79.17" height="79.17" fill="#ffffff"/><path d="M 1108.33 712.5 A 79.17 79.17 0 0 1 1187.5 791.67 L 1108.33 791.67L1108.33 712.5" fill="#d46f27"/><rect x="1187.5" y="712.5" width="79.17" height="79.17" fill="#232323"/><path d="M 1187.5 712.5 A 79.17 79.17 0 0 1  1266.67 791.67 L 1187.5 712.5 A 79.17 79.17 0 0 0 1266.67 791.67" fill="#ffffff"/><rect x="1266.67" y="712.5" width="79.17" height="79.17" fill="#ffffff"/><path d="M 1266.67 712.5 A 79.17 79.17 0 0 0 1345.8400000000001 791.67 L 1345.8400000000001 712.5L1266.67 712.5" fill="#d98143"/><rect x="0" y="791.67" width="79.17" height="79.17" fill="#1a1a1a"/><rect x="0" y="791.67" width="79.17" height="79.17" fill="#5e5e5e"/><rect x="79.17" y="791.67" width="79.17" height="79.17" fill="#a7a7a7"/><g transform="translate(79.17,791.67) scale(3.9585) rotate(0)"><rect width="20" height="2" fill="#e5e5e5"/><rect y="4" width="20" height="2" fill="#e5e5e5"/><rect y="8" width="20" height="2" fill="#e5e5e5"/><rect y="12" width="20" height="2" fill="#e5e5e5"/><rect y="16" width="20" height="2" fill="#e5e5e5"/></g><rect x="158.33" y="791.67" width="79.17" height="79.17" fill="#ffffff"/><path d="M 158.33 870.8399999999999 A 79.17 79.17 0 0 1  237.5 791.67 L 158.33 870.8399999999999 A 79.17 79.17 0 0 0 237.5 791.67" fill="#ffffff"/><rect x="237.5" y="791.67" width="79.17" height="79.17" fill="#ffffff"/><path d="M 237.5 791.67 A 79.17 79.17 0 0 0 316.67 870.8399999999999 L 316.67 791.67L237.5 791.67" fill="#f5dccb"/><rect x="316.67" y="791.67" width="79.17" height="79.17" fill="#ffffff"/><path d="M 316.67 791.67 A 79.17 79.17 0 0 1  395.84000000000003 870.8399999999999 L 316.67 791.67 A 79.17 79.17 0 0 0 395.84000000000003 870.8399999999999" fill="#e6ad84"/><rect x="395.83" y="791.67" width="79.17" height="79.17" fill="#ffffff"/><rect x="395.83" y="791.67" width="79.17" height="79.17" fill="#b9b9b9"/><rect x="475" y="791.67" width="79.17" height="79.17" fill="#ffffff"/><rect x="475" y="791.67" width="79.17" height="79.17" fill="#ffffff"/><rect x="554.17" y="791.67" width="79.17" height="79.17" fill="#7f7f7f"/><path d="M 554.17 791.67 A 79.17 79.17 0 0 1  633.3399999999999 870.8399999999999 L 554.17 791.67 A 79.17 79.17 0 0 0 633.3399999999999 870.8399999999999" fill="#ffffff"/><rect x="633.33" y="791.67" width="79.17" height="79.17" fill="#cd5905"/><path d="M 633.33 791.67 A 79.17 79.17 0 0 1  712.5 870.8399999999999 L 633.33 791.67 A 79.17 79.17 0 0 0 712.5 870.8399999999999" fill="#fbf0e9"/><rect x="712.5" y="791.67" width="79.17" height="79.17" fill="#ffffff"/><path d="M 712.5 870.8399999999999 A 79.17 79.17 0 0 0 791.67 791.67 L 712.5 791.67L712.5 870.8399999999999" fill="#ebbb99"/><rect x="791.67" y="791.67" width="79.17" height="79.17" fill="#b2b2b2"/><g transform="translate(791.67,791.67) scale(3.9585) rotate(0)"><rect width="20" height="2" fill="#5e5e5e"/><rect y="4" width="20" height="2" fill="#5e5e5e"/><rect y="8" width="20" height="2" fill="#5e5e5e"/><rect y="12" width="20" height="2" fill="#5e5e5e"/><rect y="16" width="20" height="2" fill="#5e5e5e"/></g><rect x="870.83" y="791.67" width="79.17" height="79.17" fill="#df935d"/><rect x="870.83" y="791.67" width="79.17" height="79.17" fill="#333333"/><rect x="950" y="791.67" width="79.17" height="79.17" fill="#db884d"/><path d="M 950 791.67 A 79.17 79.17 0 0 1  1029.17 870.8399999999999 L 950 791.67 A 79.17 79.17 0 0 0 1029.17 870.8399999999999" fill="#636363"/><rect x="1029.17" y="791.67" width="79.17" height="79.17" fill="#ffffff"/><rect x="1029.17" y="791.67" width="79.17" height="79.17" fill="#d67530"/><rect x="1108.33" y="791.67" width="79.17" height="79.17" fill="#ffffff"/><rect x="1108.33" y="791.67" width="79.17" height="79.17" fill="#606060"/><rect x="1187.5" y="791.67" width="79.17" height="79.17" fill="#f3d6c2"/><g transform="translate(1187.5,791.67) scale(3.9585) rotate(0)"><rect width="20" height="2" fill="#ffffff"/><rect y="4" width="20" height="2" fill="#ffffff"/><rect y="8" width="20" height="2" fill="#ffffff"/><rect y="12" width="20" height="2" fill="#ffffff"/><rect y="16" width="20" height="2" fill="#ffffff"/></g><rect x="1266.67" y="791.67" width="79.17" height="79.17" fill="#ffffff"/><path d="M 1266.67 791.67 A 79.17 79.17 0 0 1  1345.8400000000001 870.8399999999999 L 1266.67 791.67 A 79.17 79.17 0 0 0 1345.8400000000001 870.8399999999999" fill="#8b8b8b"/><rect x="0" y="870.83" width="79.17" height="79.17" fill="#e5a87c"/><g transform="translate(0,870.83) scale(3.9585) rotate(0)"><rect width="20" height="2" fill="#2f2f2f"/><rect y="4" width="20" height="2" fill="#2f2f2f"/><rect y="8" width="20" height="2" fill="#2f2f2f"/><rect y="12" width="20" height="2" fill="#2f2f2f"/><rect y="16" width="20" height="2" fill="#2f2f2f"/></g><rect x="79.17" y="870.83" width="79.17" height="79.17" fill="#ffffff"/><path d="M 79.17 870.83 A 79.17 79.17 0 0 1  158.34 950 L 79.17 870.83 A 79.17 79.17 0 0 0 158.34 950" fill="#ebbb9a"/><rect x="158.33" y="870.83" width="79.17" height="79.17" fill="#ffffff"/><polygon points="158.33,870.83 237.5,870.83 237.5,950" fill="#f8e6da"/><rect x="237.5" y="870.83" width="79.17" height="79.17" fill="#9a9a9a"/><polygon points="316.67,870.83 316.67,950 237.5,950" fill="#313131"/><rect x="316.67" y="870.83" width="79.17" height="79.17" fill="#3d3d3d"/><polygon points="316.67,870.83 395.84000000000003,950 316.67,950" fill="#ffffff"/><rect x="395.83" y="870.83" width="79.17" height="79.17" fill="#db874c"/><polygon points="395.83,870.83 475,950 395.83,950" fill="#c7c7c7"/><rect x="475" y="870.83" width="79.17" height="79.17" fill="#ffffff"/><rect x="475" y="870.83" width="79.17" height="79.17" fill="#df935d"/><rect x="554.17" y="870.83" width="79.17" height="79.17" fill="#ffffff"/><path d="M 554.17 870.83 A 79.17 79.17 0 0 1  633.3399999999999 950 L 554.17 870.83 A 79.17 79.17 0 0 0 633.3399999999999 950" fill="#ffffff"/><rect x="633.33" y="870.83" width="79.17" height="79.17" fill="#e6e6e6"/><path d="M 633.33 870.83 A 79.17 79.17 0 0 1  712.5 950 L 633.33 870.83 A 79.17 79.17 0 0 0 712.5 950" fill="#bcbcbc"/><rect x="712.5" y="870.83" width="79.17" height="79.17" fill="#ffffff"/><polygon points="791.67,870.83 791.67,950 712.5,950" fill="#848484"/><rect x="791.67" y="870.83" width="79.17" height="79.17" fill="#2b2b2b"/><path d="M 791.67 950 A 79.17 79.17 0 0 1  870.8399999999999 870.83 L 791.67 950 A 79.17 79.17 0 0 0 870.8399999999999 870.83" fill="#171717"/><rect x="870.83" y="870.83" width="79.17" height="79.17" fill="#ffffff"/><path d="M 870.83 870.83 A 79.17 79.17 0 0 1 950 950 L 870.83 950L870.83 870.83" fill="#ffffff"/><rect x="950" y="870.83" width="79.17" height="79.17" fill="#f5dccb"/><polygon points="950,870.83 1029.17,870.83 1029.17,950" fill="#f2d5c0"/><rect x="1029.17" y="870.83" width="79.17" height="79.17" fill="#c7c7c7"/><polygon points="1029.17,870.83 1108.3400000000001,950 1029.17,950" fill="#ffffff"/><rect x="1108.33" y="870.83" width="79.17" height="79.17" fill="#ffffff"/><polygon points="1187.5,870.83 1187.5,950 1108.33,950" fill="#e8b38d"/><rect x="1187.5" y="870.83" width="79.17" height="79.17" fill="#292929"/><path d="M 1187.5 950 A 79.17 79.17 0 0 1  1266.67 870.83 L 1266.67 950L1187.5 950" fill="#ffffff"/><rect x="1266.67" y="870.83" width="79.17" height="79.17" fill="#7b7b7b"/><rect x="1266.67" y="870.83" width="79.17" height="79.17" fill="#ffffff"/></g></svg>