<?xml version="1.0" standalone="no"?><svg xmlns:xlink="http://www.w3.org/1999/xlink" xmlns="http://www.w3.org/2000/svg" viewBox="0 0 500 352.942050630466" preserveAspectRatio="xMaxYMax slice"><g transform="scale(0.37151794803206944)"><rect x="0" y="0" width="1345.8333333333335" height="950" fill="#ffffff"/><rect x="0" y="0" width="79.17" height="79.17" fill="#909090"/><polygon points="0,0 79.17,79.17 0,79.17" fill="#343434"/><rect x="79.17" y="0" width="79.17" height="79.17" fill="#ffffff"/><polygon points="79.17,0 158.34,79.17 79.17,79.17" fill="#898989"/><rect x="158.33" y="0" width="79.17" height="79.17" fill="#42c470"/><rect x="158.33" y="0" width="79.17" height="79.17" fill="#ffffff"/><rect x="237.5" y="0" width="79.17" height="79.17" fill="#ffffff"/><rect x="237.5" y="0" width="79.17" height="79.17" fill="#dddddd"/><rect x="316.67" y="0" width="79.17" height="79.17" fill="#61ce88"/><path d="M 316.67 0 A 79.17 79.17 0 0 1  395.84000000000003 79.17 L 316.67 0 A 79.17 79.17 0 0 0 395.84000000000003 79.17" fill="#ffffff"/><rect x="395.83" y="0" width="79.17" height="79.17" fill="#ffffff"/><path d="M 395.83 79.17 A 79.17 79.17 0 0 1  475 0 L 475 79.17L395.83 79.17" fill="#ffffff"/><rect x="475" y="0" width="79.17" height="79.17" fill="#b3e7c5"/><path d="M 475 0 A 79.17 79.17 0 0 0 554.17 79.17 L 554.17 0L475 0" fill="#89daa5"/><rect x="554.17" y="0" width="79.17" height="79.17" fill="#3a3a3a"/><path d="M 554.17 0 A 79.17 79.17 0 0 0 633.3399999999999 79.17 L 633.3399999999999 0L554.17 0" fill="#454545"/><rect x="633.33" y="0" width="79.17" height="79.17" fill="#94deae"/><path d="M 633.33 0 A 79.17 79.17 0 0 1  712.5 79.17 L 633.33 0 A 79.17 79.17 0 0 0 712.5 79.17" fill="#34c065"/><rect x="712.5" y="0" width="79.17" height="79.17" fill="#cccccc"/><path d="M 712.5 79.17 A 79.17 79.17 0 0 0 791.67 0 L 712.5 0L712.5 79.17" fill="#ffffff"/><rect x="791.67" y="0" width="79.17" height="79.17" fill="#7e7e7e"/><g transform="translate(791.67,0) scale(3.9585) rotate(0)"><rect width="20" height="2" fill="#5d5d5d"/><rect y="4" width="20" height="2" fill="#5d5d5d"/><rect y="8" width="20" height="2" fill="#5d5d5d"/><rect y="12" width="20" height="2" fill="#5d5d5d"/><rect y="16" width="20" height="2" fill="#5d5d5d"/></g><rect x="870.83" y="0" width="79.17" height="79.17" fill="#323232"/><path d="M 870.83 79.17 A 79.17 79.17 0 0 0 950 0 L 870.83 0L870.83 79.17" fill="#393939"/><rect x="950" y="0" width="79.17" height="79.17" fill="#ffffff"/><path d="M 950 0 A 79.17 79.17 0 0 1 1029.17 79.17 L 950 79.17L950 0" fill="#cef0da"/><rect x="1029.17" y="0" width="79.17" height="79.17" fill="#2ebe61"/><rect x="1029.17" y="0" width="79.17" height="79.17" fill="#ffffff"/><rect x="1108.33" y="0" width="79.17" height="79.17" fill="#84d9a2"/><g transform="translate(1108.33,0) scale(3.9585) rotate(0)"><rect width="20" height="2" fill="#3c3c3c"/><rect y="4" width="20" height="2" fill="#3c3c3c"/><rect y="8" width="20" height="2" fill="#3c3c3c"/><rect y="12" width="20" height="2" fill="#3c3c3c"/><rect y="16" width="20" height="2" fill="#3c3c3c"/></g><rect x="1187.5" y="0" width="79.17" height="79.17" fill="#ffffff"/><path d="M 1187.5 0 A 79.17 79.17 0 0 1  1266.67 79.17 L 1187.5 0 A 79.17 79.17 0 0 0 1266.67 79.17" fill="#3fc46e"/><rect x="1266.67" y="0" width="79.17" height="79.17" fill="#ffffff"/><polygon points="1266.67,0 1345.8400000000001,79.17 1266.67,79.17" fill="#ffffff"/><rect x="0" y="79.17" width="79.17" height="79.17" fill="#afafaf"/><path d="M 0 158.34 A 79.17 79.17 0 0 1  79.17 79.17 L 0 158.34 A 79.17 79.17 0 0 0 79.17 79.17" fill="#575757"/><rect x="79.17" y="79.17" width="79.17" height="79.17" fill="#9b9b9b"/><path d="M 79.17 79.17 A 79.17 79.17 0 0 1  158.34 158.34 L 79.17 79.17 A 79.17 79.17 0 0 0 158.34 158.34" fill="#ffffff"/><rect x="158.33" y="79.17" width="79.17" height="79.17" fill="#515151"/><path d="M 158.33 158.34 A 79.17 79.17 0 0 1  237.5 79.17 L 158.33 158.34 A 79.17 79.17 0 0 0 237.5 79.17" fill="#fefefe"/><rect x="237.5" y="79.17" width="79.17" height="79.17" fill="#cbcbcb"/><rect x="237.5" y="79.17" width="79.17" height="79.17" fill="#ffffff"/><rect x="316.67" y="79.17" width="79.17" height="79.17" fill="#dadada"/><g transform="translate(316.67,79.17) scale(3.9585) rotate(0)"><rect width="20" height="2" fill="#8edcaa"/><rect y="4" width="20" height="2" fill="#8edcaa"/><rect y="8" width="20" height="2" fill="#8edcaa"/><rect y="12" width="20" height="2" fill="#8edcaa"/><rect y="16" width="20" height="2" fill="#8edcaa"/></g><rect x="395.83" y="79.17" width="79.17" height="79.17" fill="#ffffff"/><polygon points="395.83,79.17 475,158.34 395.83,158.34" fill="#cecece"/><rect x="475" y="79.17" width="79.17" height="79.17" fill="#ffffff"/><rect x="475" y="79.17" width="79.17" height="79.17" fill="#f2f2f2"/><rect x="554.17" y="79.17" width="79.17" height="79.17" fill="#ffffff"/><rect x="554.17" y="79.17" width="79.17" height="79.17" fill="#ffffff"/><rect x="633.33" y="79.17" width="79.17" height="79.17" fill="#e1e1e1"/><rect x="633.33" y="79.17" width="79.17" height="79.17" fill="#ffffff"/><rect x="712.5" y="79.17" width="79.17" height="79.17" fill="#ffffff"/><path d="M 712.5 79.17 A 79.17 79.17 0 0 1  791.67 158.34 L 712.5 79.17 A 79.17 79.17 0 0 0 791.67 158.34" fill="#ffffff"/><rect x="791.67" y="79.17" width="79.17" height="79.17" fill="#ffffff"/><polygon points="870.8399999999999,79.17 870.8399999999999,158.34 791.67,158.34" fill="#ffffff"/><rect x="870.83" y="79.17" width="79.17" height="79.17" fill="#838383"/><g transform="translate(870.83,79.17) scale(3.9585) rotate(0)"><rect width="20" height="2" fill="#4d4d4d"/><rect y="4" width="20" height="2" fill="#4d4d4d"/><rect y="8" width="20" height="2" fill="#4d4d4d"/><rect y="12" width="20" height="2" fill="#4d4d4d"/><rect y="16" width="20" height="2" fill="#4d4d4d"/></g><rect x="950" y="79.17" width="79.17" height="79.17" fill="#575757"/><rect x="950" y="79.17" width="79.17" height="79.17" fill="#a2e2b9"/><rect x="1029.17" y="79.17" width="79.17" height="79.17" fill="#4e4e4e"/><rect x="1029.17" y="79.17" width="79.17" height="79.17" fill="#eeeeee"/><rect x="1108.33" y="79.17" width="79.17" height="79.17" fill="#ffffff"/><polygon points="1108.33,79.17 1187.5,79.17 1108.33,158.34" fill="#f2fbf5"/><rect x="1187.5" y="79.17" width="79.17" height="79.17" fill="#2b2b2b"/><rect x="1187.5" y="79.17" width="79.17" height="79.17" fill="#d6f2e0"/><rect x="1266.67" y="79.17" width="79.17" height="79.17" fill="#82d8a0"/><polygon points="1266.67,79.17 1345.8400000000001,79.17 1266.67,158.34" fill="#d9f3e2"/><rect x="0" y="158.33" width="79.17" height="79.17" fill="#2a2a2a"/><g transform="translate(0,158.33) scale(3.9585) rotate(0)"><rect width="20" height="2" fill="#313131"/><rect y="4" width="20" height="2" fill="#313131"/><rect y="8" width="20" height="2" fill="#313131"/><rect y="12" width="20" height="2" fill="#313131"/><rect y="16" width="20" height="2" fill="#313131"/></g><rect x="79.17" y="158.33" width="79.17" height="79.17" fill="#f7fcf9"/><polygon points="79.17,158.33 158.34,158.33 158.34,237.5" fill="#c2c2c2"/><rect x="158.33" y="158.33" width="79.17" height="79.17" fill="#ffffff"/><g transform="translate(158.33,158.33) scale(3.9585) rotate(0)"><rect width="20" height="2" fill="#353535"/><rect y="4" width="20" height="2" fill="#353535"/><rect y="8" width="20" height="2" fill="#353535"/><rect y="12" width="20" height="2" fill="#353535"/><rect y="16" width="20" height="2" fill="#353535"/></g><rect x="237.5" y="158.33" width="79.17" height="79.17" fill="#47c674"/><rect x="237.5" y="158.33" width="79.17" height="79.17" fill="#66d08b"/><rect x="316.67" y="158.33" width="79.17" height="79.17" fill="#bbbbbb"/><g transform="translate(316.67,158.33) scale(3.9585) rotate(0)"><rect width="20" height="2" fill="#c1c1c1"/><rect y="4" width="20" height="2" fill="#c1c1c1"/><rect y="8" width="20" height="2" fill="#c1c1c1"/><rect y="12" width="20" height="2" fill="#c1c1c1"/><rect y="16" width="20" height="2" fill="#c1c1c1"/></g><rect x="395.83" y="158.33" width="79.17" height="79.17" fill="#ffffff"/><g transform="translate(395.83,158.33) scale(3.9585) rotate(0)"><rect width="20" height="2" fill="#6f6f6f"/><rect y="4" width="20" height="2" fill="#6f6f6f"/><rect y="8" width="20" height="2" fill="#6f6f6f"/><rect y="12" width="20" height="2" fill="#6f6f6f"/><rect y="16" width="20" height="2" fill="#6f6f6f"/></g><rect x="475" y="158.33" width="79.17" height="79.17" fill="#ffffff"/><g transform="translate(475,158.33) scale(3.9585) rotate(0)"><rect width="20" height="2" fill="#ffffff"/><rect y="4" width="20" height="2" fill="#ffffff"/><rect y="8" width="20" height="2" fill="#ffffff"/><rect y="12" width="20" height="2" fill="#ffffff"/><rect y="16" width="20" height="2" fill="#ffffff"/></g><rect x="554.17" y="158.33" width="79.17" height="79.17" fill="#41c46f"/><g transform="translate(554.17,158.33) scale(3.9585) rotate(0)"><rect width="20" height="2" fill="#59cc81"/><rect y="4" width="20" height="2" fill="#59cc81"/><rect y="8" width="20" height="2" fill="#59cc81"/><rect y="12" width="20" height="2" fill="#59cc81"/><rect y="16" width="20" height="2" fill="#59cc81"/></g><rect x="633.33" y="158.33" width="79.17" height="79.17" fill="#ffffff"/><rect x="633.33" y="158.33" width="79.17" height="79.17" fill="#ffffff"/><rect x="712.5" y="158.33" width="79.17" height="79.17" fill="#46c673"/><path d="M 712.5 237.5 A 79.17 79.17 0 0 1  791.67 158.33 L 712.5 237.5 A 79.17 79.17 0 0 0 791.67 158.33" fill="#ffffff"/><rect x="791.67" y="158.33" width="79.17" height="79.17" fill="#2fbf62"/><path d="M 791.67 158.33 A 79.17 79.17 0 0 1 870.8399999999999 237.5 L 791.67 237.5L791.67 158.33" fill="#ade6c1"/><rect x="870.83" y="158.33" width="79.17" height="79.17" fill="#cacaca"/><g transform="translate(870.83,158.33) scale(3.9585) rotate(0)"><rect width="20" height="2" fill="#ffffff"/><rect y="4" width="20" height="2" fill="#ffffff"/><rect y="8" width="20" height="2" fill="#ffffff"/><rect y="12" width="20" height="2" fill="#ffffff"/><rect y="16" width="20" height="2" fill="#ffffff"/></g><rect x="950" y="158.33" width="79.17" height="79.17" fill="#4a4a4a"/><g transform="translate(950,158.33) scale(3.9585) rotate(0)"><rect width="20" height="2" fill="#ffffff"/><rect y="4" width="20" height="2" fill="#ffffff"/><rect y="8" width="20" height="2" fill="#ffffff"/><rect y="12" width="20" height="2" fill="#ffffff"/><rect y="16" width="20" height="2" fill="#ffffff"/></g><rect x="1029.17" y="158.33" width="79.17" height="79.17" fill="#ecf9f1"/><polygon points="1029.17,158.33 1108.3400000000001,158.33 1108.3400000000001,237.5" fill="#e0f5e8"/><rect x="1108.33" y="158.33" width="79.17" height="79.17" fill="#a7a7a7"/><polygon points="1108.33,158.33 1187.5,237.5 1108.33,237.5" fill="#57cb80"/><rect x="1187.5" y="158.33" width="79.17" height="79.17" fill="#bdebcd"/><path d="M 1187.5 237.5 A 79.17 79.17 0 0 1  1266.67 158.33 L 1187.5 237.5 A 79.17 79.17 0 0 0 1266.67 158.33" fill="#dedede"/><rect x="1266.67" y="158.33" width="79.17" height="79.17" fill="#595959"/><polygon points="1266.67,158.33 1345.8400000000001,158.33 1345.8400000000001,237.5" fill="#d4d4d4"/><rect x="0" y="237.5" width="79.17" height="79.17" fill="#a9e4be"/><path d="M 0 316.67 A 79.17 79.17 0 0 1  79.17 237.5 L 0 316.67 A 79.17 79.17 0 0 0 79.17 237.5" fill="#d3d3d3"/><rect x="79.17" y="237.5" width="79.17" height="79.17" fill="#d6d6d6"/><path d="M 79.17 237.5 A 79.17 79.17 0 0 1  158.34 316.67 L 79.17 237.5 A 79.17 79.17 0 0 0 158.34 316.67" fill="#39c26a"/><rect x="158.33" y="237.5" width="79.17" height="79.17" fill="#29bd5d"/><rect x="158.33" y="237.5" width="79.17" height="79.17" fill="#bceacc"/><rect x="237.5" y="237.5" width="79.17" height="79.17" fill="#ffffff"/><path d="M 237.5 237.5 A 79.17 79.17 0 0 1 316.67 316.67 L 237.5 316.67L237.5 237.5" fill="#8edca9"/><rect x="316.67" y="237.5" width="79.17" height="79.17" fill="#97dfb0"/><g transform="translate(316.67,237.5) scale(3.9585) rotate(0)"><rect width="20" height="2" fill="#585858"/><rect y="4" width="20" height="2" fill="#585858"/><rect y="8" width="20" height="2" fill="#585858"/><rect y="12" width="20" height="2" fill="#585858"/><rect y="16" width="20" height="2" fill="#585858"/></g><rect x="395.83" y="237.5" width="79.17" height="79.17" fill="#1a1a1a"/><path d="M 395.83 316.67 A 79.17 79.17 0 0 1  475 237.5 L 395.83 316.67 A 79.17 79.17 0 0 0 475 237.5" fill="#ffffff"/><rect x="475" y="237.5" width="79.17" height="79.17" fill="#99dfb2"/><path d="M 475 316.67 A 79.17 79.17 0 0 1  554.17 237.5 L 475 316.67 A 79.17 79.17 0 0 0 554.17 237.5" fill="#a8a8a8"/><rect x="554.17" y="237.5" width="79.17" height="79.17" fill="#ababab"/><polygon points="554.17,237.5 633.3399999999999,237.5 554.17,316.67" fill="#c2ecd1"/><rect x="633.33" y="237.5" width="79.17" height="79.17" fill="#ffffff"/><g transform="translate(633.33,237.5) scale(3.9585) rotate(0)"><rect width="20" height="2" fill="#ffffff"/><rect y="4" width="20" height="2" fill="#ffffff"/><rect y="8" width="20" height="2" fill="#ffffff"/><rect y="12" width="20" height="2" fill="#ffffff"/><rect y="16" width="20" height="2" fill="#ffffff"/></g><rect x="712.5" y="237.5" width="79.17" height="79.17" fill="#848484"/><rect x="712.5" y="237.5" width="79.17" height="79.17" fill="#ffffff"/><rect x="791.67" y="237.5" width="79.17" height="79.17" fill="#ffffff"/><path d="M 791.67 316.67 A 79.17 79.17 0 0 1  870.8399999999999 237.5 L 791.67 316.67 A 79.17 79.17 0 0 0 870.8399999999999 237.5" fill="#ffffff"/><rect x="870.83" y="237.5" width="79.17" height="79.17" fill="#ffffff"/><path d="M 870.83 237.5 A 79.17 79.17 0 0 1  950 316.67 L 870.83 237.5 A 79.17 79.17 0 0 0 950 316.67" fill="#262626"/><rect x="950" y="237.5" width="79.17" height="79.17" fill="#daf3e3"/><rect x="950" y="237.5" width="79.17" height="79.17" fill="#cef0da"/><rect x="1029.17" y="237.5" width="79.17" height="79.17" fill="#34c065"/><g transform="translate(1029.17,237.5) scale(3.9585) rotate(0)"><rect width="20" height="2" fill="#ffffff"/><rect y="4" width="20" height="2" fill="#ffffff"/><rect y="8" width="20" height="2" fill="#ffffff"/><rect y="12" width="20" height="2" fill="#ffffff"/><rect y="16" width="20" height="2" fill="#ffffff"/></g><rect x="1108.33" y="237.5" width="79.17" height="79.17" fill="#ffffff"/><g transform="translate(1108.33,237.5) scale(3.9585) rotate(0)"><rect width="20" height="2" fill="#ffffff"/><rect y="4" width="20" height="2" fill="#ffffff"/><rect y="8" width="20" height="2" fill="#ffffff"/><rect y="12" width="20" height="2" fill="#ffffff"/><rect y="16" width="20" height="2" fill="#ffffff"/></g><rect x="1187.5" y="237.5" width="79.17" height="79.17" fill="#ffffff"/><g transform="translate(1187.5,237.5) scale(3.9585) rotate(0)"><rect width="20" height="2" fill="#a4a4a4"/><rect y="4" width="20" height="2" fill="#a4a4a4"/><rect y="8" width="20" height="2" fill="#a4a4a4"/><rect y="12" width="20" height="2" fill="#a4a4a4"/><rect y="16" width="20" height="2" fill="#a4a4a4"/></g><rect x="1266.67" y="237.5" width="79.17" height="79.17" fill="#ffffff"/><polygon points="1266.67,237.5 1345.8400000000001,237.5 1345.8400000000001,316.67" fill="#fbfefc"/><rect x="0" y="316.67" width="79.17" height="79.17" fill="#5acc82"/><polygon points="79.17,316.67 79.17,395.84000000000003 0,395.84000000000003" fill="#7fd79e"/><rect x="79.17" y="316.67" width="79.17" height="79.17" fill="#525252"/><path d="M 79.17 395.84000000000003 A 79.17 79.17 0 0 1  158.34 316.67 L 79.17 395.84000000000003 A 79.17 79.17 0 0 0 158.34 316.67" fill="#4b4b4b"/><rect x="158.33" y="316.67" width="79.17" height="79.17" fill="#ffffff"/><rect x="158.33" y="316.67" width="79.17" height="79.17" fill="#67d08c"/><rect x="237.5" y="316.67" width="79.17" height="79.17" fill="#dadada"/><rect x="237.5" y="316.67" width="79.17" height="79.17" fill="#ffffff"/><rect x="316.67" y="316.67" width="79.17" height="79.17" fill="#52c97c"/><rect x="316.67" y="316.67" width="79.17" height="79.17" fill="#46c673"/><rect x="395.83" y="316.67" width="79.17" height="79.17" fill="#ffffff"/><g transform="translate(395.83,316.67) scale(3.9585) rotate(0)"><rect width="20" height="2" fill="#ffffff"/><rect y="4" width="20" height="2" fill="#ffffff"/><rect y="8" width="20" height="2" fill="#ffffff"/><rect y="12" width="20" height="2" fill="#ffffff"/><rect y="16" width="20" height="2" fill="#ffffff"/></g><rect x="475" y="316.67" width="79.17" height="79.17" fill="#ffffff"/><g transform="translate(475,316.67) scale(3.9585) rotate(0)"><rect width="20" height="2" fill="#ffffff"/><rect y="4" width="20" height="2" fill="#ffffff"/><rect y="8" width="20" height="2" fill="#ffffff"/><rect y="12" width="20" height="2" fill="#ffffff"/><rect y="16" width="20" height="2" fill="#ffffff"/></g><rect x="554.17" y="316.67" width="79.17" height="79.17" fill="#c6edd4"/><g transform="translate(554.17,316.67) scale(3.9585) rotate(0)"><rect width="20" height="2" fill="#ffffff"/><rect y="4" width="20" height="2" fill="#ffffff"/><rect y="8" width="20" height="2" fill="#ffffff"/><rect y="12" width="20" height="2" fill="#ffffff"/><rect y="16" width="20" height="2" fill="#ffffff"/></g><rect x="633.33" y="316.67" width="79.17" height="79.17" fill="#606060"/><g transform="translate(633.33,316.67) scale(3.9585) rotate(0)"><rect width="20" height="2" fill="#5acc82"/><rect y="4" width="20" height="2" fill="#5acc82"/><rect y="8" width="20" height="2" fill="#5acc82"/><rect y="12" width="20" height="2" fill="#5acc82"/><rect y="16" width="20" height="2" fill="#5acc82"/></g><rect x="712.5" y="316.67" width="79.17" height="79.17" fill="#4f4f4f"/><rect x="712.5" y="316.67" width="79.17" height="79.17" fill="#c2ecd1"/><rect x="791.67" y="316.67" width="79.17" height="79.17" fill="#8d8d8d"/><path d="M 791.67 316.67 A 79.17 79.17 0 0 1  870.8399999999999 395.84000000000003 L 791.67 316.67 A 79.17 79.17 0 0 0 870.8399999999999 395.84000000000003" fill="#ffffff"/><rect x="870.83" y="316.67" width="79.17" height="79.17" fill="#ffffff"/><path d="M 870.83 395.84000000000003 A 79.17 79.17 0 0 1  950 316.67 L 870.83 395.84000000000003 A 79.17 79.17 0 0 0 950 316.67" fill="#747474"/><rect x="950" y="316.67" width="79.17" height="79.17" fill="#ffffff"/><polygon points="950,316.67 1029.17,316.67 950,395.84000000000003" fill="#919191"/><rect x="1029.17" y="316.67" width="79.17" height="79.17" fill="#ffffff"/><path d="M 1029.17 316.67 A 79.17 79.17 0 0 1  1108.3400000000001 395.84000000000003 L 1029.17 316.67 A 79.17 79.17 0 0 0 1108.3400000000001 395.84000000000003" fill="#ffffff"/><rect x="1108.33" y="316.67" width="79.17" height="79.17" fill="#252525"/><polygon points="1108.33,316.67 1187.5,316.67 1108.33,395.84000000000003" fill="#2e2e2e"/><rect x="1187.5" y="316.67" width="79.17" height="79.17" fill="#d8d8d8"/><path d="M 1187.5 316.67 A 79.17 79.17 0 0 1  1266.67 395.84000000000003 L 1187.5 316.67 A 79.17 79.17 0 0 0 1266.67 395.84000000000003" fill="#ffffff"/><rect x="1266.67" y="316.67" width="79.17" height="79.17" fill="#4bc776"/><path d="M 1266.67 395.84000000000003 A 79.17 79.17 0 0 1  1345.8400000000001 316.67 L 1266.67 395.84000000000003 A 79.17 79.17 0 0 0 1345.8400000000001 316.67" fill="#20ba56"/><rect x="0" y="395.83" width="79.17" height="79.17" fill="#8adba7"/><path d="M 0 395.83 A 79.17 79.17 0 0 1  79.17 475 L 0 395.83 A 79.17 79.17 0 0 0 79.17 475" fill="#ffffff"/><rect x="79.17" y="395.83" width="79.17" height="79.17" fill="#89daa6"/><polygon points="158.34,395.83 158.34,475 79.17,475" fill="#f4f4f4"/><rect x="158.33" y="395.83" width="79.17" height="79.17" fill="#414141"/><path d="M 158.33 395.83 A 79.17 79.17 0 0 1 237.5 475 L 158.33 475L158.33 395.83" fill="#f2f2f2"/><rect x="237.5" y="395.83" width="79.17" height="79.17" fill="#ffffff"/><path d="M 237.5 475 A 79.17 79.17 0 0 1  316.67 395.83 L 237.5 475 A 79.17 79.17 0 0 0 316.67 395.83" fill="#c2c2c2"/><rect x="316.67" y="395.83" width="79.17" height="79.17" fill="#9b9b9b"/><g transform="translate(316.67,395.83) scale(3.9585) rotate(0)"><rect width="20" height="2" fill="#7a7a7a"/><rect y="4" width="20" height="2" fill="#7a7a7a"/><rect y="8" width="20" height="2" fill="#7a7a7a"/><rect y="12" width="20" height="2" fill="#7a7a7a"/><rect y="16" width="20" height="2" fill="#7a7a7a"/></g><rect x="395.83" y="395.83" width="79.17" height="79.17" fill="#8fdcab"/><rect x="395.83" y="395.83" width="79.17" height="79.17" fill="#f0faf3"/><rect x="475" y="395.83" width="79.17" height="79.17" fill="#7bd69b"/><path d="M 475 475 A 79.17 79.17 0 0 1  554.17 395.83 L 475 475 A 79.17 79.17 0 0 0 554.17 395.83" fill="#ffffff"/><rect x="554.17" y="395.83" width="79.17" height="79.17" fill="#ffffff"/><path d="M 554.17 395.83 A 79.17 79.17 0 0 0 633.3399999999999 475 L 633.3399999999999 395.83L554.17 395.83" fill="#ffffff"/><rect x="633.33" y="395.83" width="79.17" height="79.17" fill="#ffffff"/><path d="M 633.33 395.83 A 79.17 79.17 0 0 1  712.5 475 L 633.33 395.83 A 79.17 79.17 0 0 0 712.5 475" fill="#ffffff"/><rect x="712.5" y="395.83" width="79.17" height="79.17" fill="#ffffff"/><polygon points="791.67,395.83 791.67,475 712.5,475" fill="#59cc81"/><rect x="791.67" y="395.83" width="79.17" height="79.17" fill="#ffffff"/><path d="M 791.67 475 A 79.17 79.17 0 0 1  870.8399999999999 395.83 L 791.67 475 A 79.17 79.17 0 0 0 870.8399999999999 395.83" fill="#5ecd85"/><rect x="870.83" y="395.83" width="79.17" height="79.17" fill="#adadad"/><path d="M 870.83 475 A 79.17 79.17 0 0 1  950 395.83 L 950 475L870.83 475" fill="#ffffff"/><rect x="950" y="395.83" width="79.17" height="79.17" fill="#cbcbcb"/><g transform="translate(950,395.83) scale(3.9585) rotate(0)"><rect width="20" height="2" fill="#ffffff"/><rect y="4" width="20" height="2" fill="#ffffff"/><rect y="8" width="20" height="2" fill="#ffffff"/><rect y="12" width="20" height="2" fill="#ffffff"/><rect y="16" width="20" height="2" fill="#ffffff"/></g><rect x="1029.17" y="395.83" width="79.17" height="79.17" fill="#feffff"/><polygon points="1029.17,395.83 1108.3400000000001,475 1029.17,475" fill="#bceacc"/><rect x="1108.33" y="395.83" width="79.17" height="79.17" fill="#ffffff"/><g transform="translate(1108.33,395.83) scale(3.9585) rotate(0)"><rect width="20" height="2" fill="#7fd89f"/><rect y="4" width="20" height="2" fill="#7fd89f"/><rect y="8" width="20" height="2" fill="#7fd89f"/><rect y="12" width="20" height="2" fill="#7fd89f"/><rect y="16" width="20" height="2" fill="#7fd89f"/></g><rect x="1187.5" y="395.83" width="79.17" height="79.17" fill="#ffffff"/><rect x="1187.5" y="395.83" width="79.17" height="79.17" fill="#585858"/><rect x="1266.67" y="395.83" width="79.17" height="79.17" fill="#ffffff"/><rect x="1266.67" y="395.83" width="79.17" height="79.17" fill="#efefef"/><rect x="0" y="475" width="79.17" height="79.17" fill="#ffffff"/><rect x="0" y="475" width="79.17" height="79.17" fill="#35c066"/><rect x="79.17" y="475" width="79.17" height="79.17" fill="#eaf8ef"/><path d="M 79.17 554.17 A 79.17 79.17 0 0 1  158.34 475 L 79.17 554.17 A 79.17 79.17 0 0 0 158.34 475" fill="#d7f3e1"/><rect x="158.33" y="475" width="79.17" height="79.17" fill="#4ac776"/><g transform="translate(158.33,475) scale(3.9585) rotate(0)"><rect width="20" height="2" fill="#1a1a1a"/><rect y="4" width="20" height="2" fill="#1a1a1a"/><rect y="8" width="20" height="2" fill="#1a1a1a"/><rect y="12" width="20" height="2" fill="#1a1a1a"/><rect y="16" width="20" height="2" fill="#1a1a1a"/></g><rect x="237.5" y="475" width="79.17" height="79.17" fill="#ffffff"/><rect x="237.5" y="475" width="79.17" height="79.17" fill="#ffffff"/><rect x="316.67" y="475" width="79.17" height="79.17" fill="#ffffff"/><path d="M 316.67 475 A 79.17 79.17 0 0 1  395.84000000000003 554.17 L 316.67 475 A 79.17 79.17 0 0 0 395.84000000000003 554.17" fill="#e6e6e6"/><rect x="395.83" y="475" width="79.17" height="79.17" fill="#5acc82"/><rect x="395.83" y="475" width="79.17" height="79.17" fill="#454545"/><rect x="475" y="475" width="79.17" height="79.17" fill="#ffffff"/><path d="M 475 475 A 79.17 79.17 0 0 1  554.17 554.17 L 475 475 A 79.17 79.17 0 0 0 554.17 554.17" fill="#89daa5"/><rect x="554.17" y="475" width="79.17" height="79.17" fill="#373737"/><polygon points="554.17,475 633.3399999999999,475 554.17,554.17" fill="#7d7d7d"/><rect x="633.33" y="475" width="79.17" height="79.17" fill="#ffffff"/><path d="M 633.33 554.17 A 79.17 79.17 0 0 0 712.5 475 L 633.33 475L633.33 554.17" fill="#ffffff"/><rect x="712.5" y="475" width="79.17" height="79.17" fill="#e6f7ec"/><path d="M 712.5 475 A 79.17 79.17 0 0 0 791.67 554.17 L 791.67 475L712.5 475" fill="#4c4c4c"/><rect x="791.67" y="475" width="79.17" height="79.17" fill="#ffffff"/><path d="M 791.67 554.17 A 79.17 79.17 0 0 1  870.8399999999999 475 L 870.8399999999999 554.17L791.67 554.17" fill="#4fc879"/><rect x="870.83" y="475" width="79.17" height="79.17" fill="#505050"/><polygon points="870.83,475 950,475 950,554.17" fill="#f3f3f3"/><rect x="950" y="475" width="79.17" height="79.17" fill="#3bc26b"/><rect x="950" y="475" width="79.17" height="79.17" fill="#ffffff"/><rect x="1029.17" y="475" width="79.17" height="79.17" fill="#a7a7a7"/><path d="M 1029.17 554.17 A 79.17 79.17 0 0 0 1108.3400000000001 475 L 1029.17 475L1029.17 554.17" fill="#9b9b9b"/><rect x="1108.33" y="475" width="79.17" height="79.17" fill="#1db954"/><rect x="1108.33" y="475" width="79.17" height="79.17" fill="#4f4f4f"/><rect x="1187.5" y="475" width="79.17" height="79.17" fill="#45c673"/><polygon points="1187.5,475 1266.67,475 1266.67,554.17" fill="#ffffff"/><rect x="1266.67" y="475" width="79.17" height="79.17" fill="#ffffff"/><g transform="translate(1266.67,475) scale(3.9585) rotate(0)"><rect width="20" height="2" fill="#464646"/><rect y="4" width="20" height="2" fill="#464646"/><rect y="8" width="20" height="2" fill="#464646"/><rect y="12" width="20" height="2" fill="#464646"/><rect y="16" width="20" height="2" fill="#464646"/></g><rect x="0" y="554.17" width="79.17" height="79.17" fill="#69d08d"/><path d="M 0 554.17 A 79.17 79.17 0 0 0 79.17 633.3399999999999 L 79.17 554.17L0 554.17" fill="#e5f7eb"/><rect x="79.17" y="554.17" width="79.17" height="79.17" fill="#a0a0a0"/><path d="M 79.17 633.3399999999999 A 79.17 79.17 0 0 1  158.34 554.17 L 79.17 633.3399999999999 A 79.17 79.17 0 0 0 158.34 554.17" fill="#868686"/><rect x="158.33" y="554.17" width="79.17" height="79.17" fill="#a2e2b9"/><path d="M 158.33 554.17 A 79.17 79.17 0 0 0 237.5 633.3399999999999 L 237.5 554.17L158.33 554.17" fill="#4f4f4f"/><rect x="237.5" y="554.17" width="79.17" height="79.17" fill="#ffffff"/><path d="M 237.5 633.3399999999999 A 79.17 79.17 0 0 1  316.67 554.17 L 237.5 633.3399999999999 A 79.17 79.17 0 0 0 316.67 554.17" fill="#ffffff"/><rect x="316.67" y="554.17" width="79.17" height="79.17" fill="#ffffff"/><path d="M 316.67 633.3399999999999 A 79.17 79.17 0 0 1  395.84000000000003 554.17 L 316.67 633.3399999999999 A 79.17 79.17 0 0 0 395.84000000000003 554.17" fill="#ffffff"/><rect x="395.83" y="554.17" width="79.17" height="79.17" fill="#ffffff"/><polygon points="395.83,554.17 475,554.17 475,633.3399999999999" fill="#4ec879"/><rect x="475" y="554.17" width="79.17" height="79.17" fill="#44c572"/><rect x="475" y="554.17" width="79.17" height="79.17" fill="#58cb81"/><rect x="554.17" y="554.17" width="79.17" height="79.17" fill="#b2b2b2"/><polygon points="554.17,554.17 633.3399999999999,633.3399999999999 554.17,633.3399999999999" fill="#7b7b7b"/><rect x="633.33" y="554.17" width="79.17" height="79.17" fill="#373737"/><path d="M 633.33 554.17 A 79.17 79.17 0 0 1  712.5 633.3399999999999 L 633.33 554.17 A 79.17 79.17 0 0 0 712.5 633.3399999999999" fill="#b3e7c5"/><rect x="712.5" y="554.17" width="79.17" height="79.17" fill="#ffffff"/><polygon points="712.5,554.17 791.67,633.3399999999999 712.5,633.3399999999999" fill="#a5e3bb"/><rect x="791.67" y="554.17" width="79.17" height="79.17" fill="#dcdcdc"/><g transform="translate(791.67,554.17) scale(3.9585) rotate(0)"><rect width="20" height="2" fill="#dedede"/><rect y="4" width="20" height="2" fill="#dedede"/><rect y="8" width="20" height="2" fill="#dedede"/><rect y="12" width="20" height="2" fill="#dedede"/><rect y="16" width="20" height="2" fill="#dedede"/></g><rect x="870.83" y="554.17" width="79.17" height="79.17" fill="#efefef"/><polygon points="870.83,554.17 950,633.3399999999999 870.83,633.3399999999999" fill="#989898"/><rect x="950" y="554.17" width="79.17" height="79.17" fill="#292929"/><g transform="translate(950,554.17) scale(3.9585) rotate(0)"><rect width="20" height="2" fill="#ffffff"/><rect y="4" width="20" height="2" fill="#ffffff"/><rect y="8" width="20" height="2" fill="#ffffff"/><rect y="12" width="20" height="2" fill="#ffffff"/><rect y="16" width="20" height="2" fill="#ffffff"/></g><rect x="1029.17" y="554.17" width="79.17" height="79.17" fill="#383838"/><rect x="1029.17" y="554.17" width="79.17" height="79.17" fill="#f2fbf5"/><rect x="1108.33" y="554.17" width="79.17" height="79.17" fill="#8cdba8"/><polygon points="1187.5,554.17 1187.5,633.3399999999999 1108.33,633.3399999999999" fill="#6bd18f"/><rect x="1187.5" y="554.17" width="79.17" height="79.17" fill="#ffffff"/><path d="M 1187.5 554.17 A 79.17 79.17 0 0 1  1266.67 633.3399999999999 L 1187.5 554.17 A 79.17 79.17 0 0 0 1266.67 633.3399999999999" fill="#fdfefe"/><rect x="1266.67" y="554.17" width="79.17" height="79.17" fill="#67d08c"/><path d="M 1266.67 633.3399999999999 A 79.17 79.17 0 0 1  1345.8400000000001 554.17 L 1345.8400000000001 633.3399999999999L1266.67 633.3399999999999" fill="#3dc36c"/><rect x="0" y="633.33" width="79.17" height="79.17" fill="#ffffff"/><polygon points="0,633.33 79.17,712.5 0,712.5" fill="#797979"/><rect x="79.17" y="633.33" width="79.17" height="79.17" fill="#878787"/><path d="M 79.17 712.5 A 79.17 79.17 0 0 1  158.34 633.33 L 79.17 712.5 A 79.17 79.17 0 0 0 158.34 633.33" fill="#4e4e4e"/><rect x="158.33" y="633.33" width="79.17" height="79.17" fill="#53ca7d"/><rect x="158.33" y="633.33" width="79.17" height="79.17" fill="#ffffff"/><rect x="237.5" y="633.33" width="79.17" height="79.17" fill="#65cf8a"/><path d="M 237.5 633.33 A 79.17 79.17 0 0 1 316.67 712.5 L 237.5 712.5L237.5 633.33" fill="#63cf89"/><rect x="316.67" y="633.33" width="79.17" height="79.17" fill="#93ddad"/><polygon points="316.67,633.33 395.84000000000003,633.33 395.84000000000003,712.5" fill="#ffffff"/><rect x="395.83" y="633.33" width="79.17" height="79.17" fill="#ffffff"/><polygon points="395.83,633.33 475,633.33 395.83,712.5" fill="#68d08c"/><rect x="475" y="633.33" width="79.17" height="79.17" fill="#ffffff"/><g transform="translate(475,633.33) scale(3.9585) rotate(0)"><rect width="20" height="2" fill="#ffffff"/><rect y="4" width="20" height="2" fill="#ffffff"/><rect y="8" width="20" height="2" fill="#ffffff"/><rect y="12" width="20" height="2" fill="#ffffff"/><rect y="16" width="20" height="2" fill="#ffffff"/></g><rect x="554.17" y="633.33" width="79.17" height="79.17" fill="#98dfb1"/><path d="M 554.17 633.33 A 79.17 79.17 0 0 0 633.3399999999999 712.5 L 633.3399999999999 633.33L554.17 633.33" fill="#66d08b"/><rect x="633.33" y="633.33" width="79.17" height="79.17" fill="#ffffff"/><path d="M 633.33 633.33 A 79.17 79.17 0 0 1  712.5 712.5 L 633.33 633.33 A 79.17 79.17 0 0 0 712.5 712.5" fill="#44c571"/><rect x="712.5" y="633.33" width="79.17" height="79.17" fill="#25bb5a"/><rect x="712.5" y="633.33" width="79.17" height="79.17" fill="#94deae"/><rect x="791.67" y="633.33" width="79.17" height="79.17" fill="#5d5d5d"/><path d="M 791.67 712.5 A 79.17 79.17 0 0 1  870.8399999999999 633.33 L 791.67 712.5 A 79.17 79.17 0 0 0 870.8399999999999 633.33" fill="#ffffff"/><rect x="870.83" y="633.33" width="79.17" height="79.17" fill="#27bc5c"/><path d="M 870.83 633.33 A 79.17 79.17 0 0 1 950 712.5 L 870.83 712.5L870.83 633.33" fill="#3a3a3a"/><rect x="950" y="633.33" width="79.17" height="79.17" fill="#ffffff"/><path d="M 950 633.33 A 79.17 79.17 0 0 1 1029.17 712.5 L 950 712.5L950 633.33" fill="#ffffff"/><rect x="1029.17" y="633.33" width="79.17" height="79.17" fill="#3cc26b"/><polygon points="1029.17,633.33 1108.3400000000001,712.5 1029.17,712.5" fill="#bfebce"/><rect x="1108.33" y="633.33" width="79.17" height="79.17" fill="#565656"/><g transform="translate(1108.33,633.33) scale(3.9585) rotate(0)"><rect width="20" height="2" fill="#ffffff"/><rect y="4" width="20" height="2" fill="#ffffff"/><rect y="8" width="20" height="2" fill="#ffffff"/><rect y="12" width="20" height="2" fill="#ffffff"/><rect y="16" width="20" height="2" fill="#ffffff"/></g><rect x="1187.5" y="633.33" width="79.17" height="79.17" fill="#ffffff"/><path d="M 1187.5 633.33 A 79.17 79.17 0 0 1  1266.67 712.5 L 1187.5 633.33 A 79.17 79.17 0 0 0 1266.67 712.5" fill="#ffffff"/><rect x="1266.67" y="633.33" width="79.17" height="79.17" fill="#ffffff"/><rect x="1266.67" y="633.33" width="79.17" height="79.17" fill="#ffffff"/><rect x="0" y="712.5" width="79.17" height="79.17" fill="#b2e7c5"/><polygon points="0,712.5 79.17,712.5 0,791.67" fill="#34c066"/><rect x="79.17" y="712.5" width="79.17" height="79.17" fill="#ffffff"/><g transform="translate(79.17,712.5) scale(3.9585) rotate(0)"><rect width="20" height="2" fill="#ffffff"/><rect y="4" width="20" height="2" fill="#ffffff"/><rect y="8" width="20" height="2" fill="#ffffff"/><rect y="12" width="20" height="2" fill="#ffffff"/><rect y="16" width="20" height="2" fill="#ffffff"/></g><rect x="158.33" y="712.5" width="79.17" height="79.17" fill="#ffffff"/><polygon points="158.33,712.5 237.5,712.5 237.5,791.67" fill="#626262"/><rect x="237.5" y="712.5" width="79.17" height="79.17" fill="#41c46f"/><polygon points="237.5,712.5 316.67,791.67 237.5,791.67" fill="#ffffff"/><rect x="316.67" y="712.5" width="79.17" height="79.17" fill="#ffffff"/><rect x="316.67" y="712.5" width="79.17" height="79.17" fill="#dcf4e5"/><rect x="395.83" y="712.5" width="79.17" height="79.17" fill="#ffffff"/><path d="M 395.83 712.5 A 79.17 79.17 0 0 1  475 791.67 L 395.83 712.5 A 79.17 79.17 0 0 0 475 791.67" fill="#ffffff"/><rect x="475" y="712.5" width="79.17" height="79.17" fill="#3b3b3b"/><path d="M 475 791.67 A 79.17 79.17 0 0 1  554.17 712.5 L 554.17 791.67L475 791.67" fill="#ffffff"/><rect x="554.17" y="712.5" width="79.17" height="79.17" fill="#ffffff"/><path d="M 554.17 791.67 A 79.17 79.17 0 0 1  633.3399999999999 712.5 L 554.17 791.67 A 79.17 79.17 0 0 0 633.3399999999999 712.5" fill="#656565"/><rect x="633.33" y="712.5" width="79.17" height="79.17" fill="#ffffff"/><rect x="633.33" y="712.5" width="79.17" height="79.17" fill="#b9b9b9"/><rect x="712.5" y="712.5" width="79.17" height="79.17" fill="#828282"/><path d="M 712.5 712.5 A 79.17 79.17 0 0 1 791.67 791.67 L 712.5 791.67L712.5 712.5" fill="#a7e4bc"/><rect x="791.67" y="712.5" width="79.17" height="79.17" fill="#e0e0e0"/><path d="M 791.67 712.5 A 79.17 79.17 0 0 1  870.8399999999999 791.67 L 791.67 712.5 A 79.17 79.17 0 0 0 870.8399999999999 791.67" fill="#ffffff"/><rect x="870.83" y="712.5" width="79.17" height="79.17" fill="#aee6c2"/><path d="M 870.83 712.5 A 79.17 79.17 0 0 0 950 791.67 L 950 712.5L870.83 712.5" fill="#cff0db"/><rect x="950" y="712.5" width="79.17" height="79.17" fill="#252525"/><path d="M 950 712.5 A 79.17 79.17 0 0 1  1029.17 791.67 L 950 712.5 A 79.17 79.17 0 0 0 1029.17 791.67" fill="#525252"/><rect x="1029.17" y="712.5" width="79.17" height="79.17" fill="#ffffff"/><g transform="translate(1029.17,712.5) scale(3.9585) rotate(0)"><rect width="20" height="2" fill="#ffffff"/><rect y="4" width="20" height="2" fill="#ffffff"/><rect y="8" width="20" height="2" fill="#ffffff"/><rect y="12" width="20" height="2" fill="#ffffff"/><rect y="16" width="20" height="2" fill="#ffffff"/></g><rect x="1108.33" y="712.5" width="79.17" height="79.17" fill="#ffffff"/><polygon points="1187.5,712.5 1187.5,791.67 1108.33,791.67" fill="#81d89f"/><rect x="1187.5" y="712.5" width="79.17" height="79.17" fill="#898989"/><g transform="translate(1187.5,712.5) scale(3.9585) rotate(0)"><rect width="20" height="2" fill="#7f7f7f"/><rect y="4" width="20" height="2" fill="#7f7f7f"/><rect y="8" width="20" height="2" fill="#7f7f7f"/><rect y="12" width="20" height="2" fill="#7f7f7f"/><rect y="16" width="20" height="2" fill="#7f7f7f"/></g><rect x="1266.67" y="712.5" width="79.17" height="79.17" fill="#beebce"/><polygon points="1266.67,712.5 1345.8400000000001,712.5 1266.67,791.67" fill="#d1f1dc"/><rect x="0" y="791.67" width="79.17" height="79.17" fill="#ffffff"/><polygon points="0,791.67 79.17,870.8399999999999 0,870.8399999999999" fill="#ffffff"/><rect x="79.17" y="791.67" width="79.17" height="79.17" fill="#ffffff"/><rect x="79.17" y="791.67" width="79.17" height="79.17" fill="#fbfefc"/><rect x="158.33" y="791.67" width="79.17" height="79.17" fill="#feffff"/><polygon points="158.33,791.67 237.5,791.67 237.5,870.8399999999999" fill="#dcf4e5"/><rect x="237.5" y="791.67" width="79.17" height="79.17" fill="#ffffff"/><rect x="237.5" y="791.67" width="79.17" height="79.17" fill="#9de1b5"/><rect x="316.67" y="791.67" width="79.17" height="79.17" fill="#ffffff"/><polygon points="316.67,791.67 395.84000000000003,791.67 395.84000000000003,870.8399999999999" fill="#e0e0e0"/><rect x="395.83" y="791.67" width="79.17" height="79.17" fill="#28bd5d"/><path d="M 395.83 791.67 A 79.17 79.17 0 0 1  475 870.8399999999999 L 395.83 791.67 A 79.17 79.17 0 0 0 475 870.8399999999999" fill="#50c97b"/><rect x="475" y="791.67" width="79.17" height="79.17" fill="#e2f6e9"/><polygon points="475,791.67 554.17,870.8399999999999 475,870.8399999999999" fill="#fafafa"/><rect x="554.17" y="791.67" width="79.17" height="79.17" fill="#3ec36d"/><polygon points="633.3399999999999,791.67 633.3399999999999,870.8399999999999 554.17,870.8399999999999" fill="#ffffff"/><rect x="633.33" y="791.67" width="79.17" height="79.17" fill="#ffffff"/><path d="M 633.33 870.8399999999999 A 79.17 79.17 0 0 1  712.5 791.67 L 712.5 870.8399999999999L633.33 870.8399999999999" fill="#2c2c2c"/><rect x="712.5" y="791.67" width="79.17" height="79.17" fill="#6ed292"/><path d="M 712.5 870.8399999999999 A 79.17 79.17 0 0 0 791.67 791.67 L 712.5 791.67L712.5 870.8399999999999" fill="#ffffff"/><rect x="791.67" y="791.67" width="79.17" height="79.17" fill="#97dfb0"/><rect x="791.67" y="791.67" width="79.17" height="79.17" fill="#dcdcdc"/><rect x="870.83" y="791.67" width="79.17" height="79.17" fill="#4cc878"/><path d="M 870.83 870.8399999999999 A 79.17 79.17 0 0 1  950 791.67 L 870.83 870.8399999999999 A 79.17 79.17 0 0 0 950 791.67" fill="#585858"/><rect x="950" y="791.67" width="79.17" height="79.17" fill="#ffffff"/><rect x="950" y="791.67" width="79.17" height="79.17" fill="#595959"/><rect x="1029.17" y="791.67" width="79.17" height="79.17" fill="#32c064"/><path d="M 1029.17 791.67 A 79.17 79.17 0 0 0 1108.3400000000001 870.8399999999999 L 1108.3400000000001 791.67L1029.17 791.67" fill="#5b5b5b"/><rect x="1108.33" y="791.67" width="79.17" height="79.17" fill="#ffffff"/><polygon points="1108.33,791.67 1187.5,870.8399999999999 1108.33,870.8399999999999" fill="#909090"/><rect x="1187.5" y="791.67" width="79.17" height="79.17" fill="#daf4e3"/><path d="M 1187.5 870.8399999999999 A 79.17 79.17 0 0 1  1266.67 791.67 L 1187.5 870.8399999999999 A 79.17 79.17 0 0 0 1266.67 791.67" fill="#20ba56"/><rect x="1266.67" y="791.67" width="79.17" height="79.17" fill="#868686"/><rect x="1266.67" y="791.67" width="79.17" height="79.17" fill="#717171"/><rect x="0" y="870.83" width="79.17" height="79.17" fill="#e5f7ec"/><g transform="translate(0,870.83) scale(3.9585) rotate(0)"><rect width="20" height="2" fill="#ffffff"/><rect y="4" width="20" height="2" fill="#ffffff"/><rect y="8" width="20" height="2" fill="#ffffff"/><rect y="12" width="20" height="2" fill="#ffffff"/><rect y="16" width="20" height="2" fill="#ffffff"/></g><rect x="79.17" y="870.83" width="79.17" height="79.17" fill="#b5e8c7"/><rect x="79.17" y="870.83" width="79.17" height="79.17" fill="#ffffff"/><rect x="158.33" y="870.83" width="79.17" height="79.17" fill="#3ac26a"/><g transform="translate(158.33,870.83) scale(3.9585) rotate(0)"><rect width="20" height="2" fill="#707070"/><rect y="4" width="20" height="2" fill="#707070"/><rect y="8" width="20" height="2" fill="#707070"/><rect y="12" width="20" height="2" fill="#707070"/><rect y="16" width="20" height="2" fill="#707070"/></g><rect x="237.5" y="870.83" width="79.17" height="79.17" fill="#6bd18f"/><path d="M 237.5 950 A 79.17 79.17 0 0 1  316.67 870.83 L 237.5 950 A 79.17 79.17 0 0 0 316.67 870.83" fill="#ffffff"/><rect x="316.67" y="870.83" width="79.17" height="79.17" fill="#f6f6f6"/><g transform="translate(316.67,870.83) scale(3.9585) rotate(0)"><rect width="20" height="2" fill="#31bf63"/><rect y="4" width="20" height="2" fill="#31bf63"/><rect y="8" width="20" height="2" fill="#31bf63"/><rect y="12" width="20" height="2" fill="#31bf63"/><rect y="16" width="20" height="2" fill="#31bf63"/></g><rect x="395.83" y="870.83" width="79.17" height="79.17" fill="#ffffff"/><rect x="395.83" y="870.83" width="79.17" height="79.17" fill="#5c5c5c"/><rect x="475" y="870.83" width="79.17" height="79.17" fill="#ededed"/><path d="M 475 870.83 A 79.17 79.17 0 0 1  554.17 950 L 475 870.83 A 79.17 79.17 0 0 0 554.17 950" fill="#ffffff"/><rect x="554.17" y="870.83" width="79.17" height="79.17" fill="#ffffff"/><path d="M 554.17 870.83 A 79.17 79.17 0 0 1  633.3399999999999 950 L 554.17 870.83 A 79.17 79.17 0 0 0 633.3399999999999 950" fill="#ffffff"/><rect x="633.33" y="870.83" width="79.17" height="79.17" fill="#ffffff"/><g transform="translate(633.33,870.83) scale(3.9585) rotate(0)"><rect width="20" height="2" fill="#90dcab"/><rect y="4" width="20" height="2" fill="#90dcab"/><rect y="8" width="20" height="2" fill="#90dcab"/><rect y="12" width="20" height="2" fill="#90dcab"/><rect y="16" width="20" height="2" fill="#90dcab"/></g><rect x="712.5" y="870.83" width="79.17" height="79.17" fill="#464646"/><path d="M 712.5 950 A 79.17 79.17 0 0 1  791.67 870.83 L 791.67 950L712.5 950" fill="#f2fbf5"/><rect x="791.67" y="870.83" width="79.17" height="79.17" fill="#ffffff"/><path d="M 791.67 950 A 79.17 79.17 0 0 1  870.8399999999999 870.83 L 791.67 950 A 79.17 79.17 0 0 0 870.8399999999999 870.83" fill="#4dc878"/><rect x="870.83" y="870.83" width="79.17" height="79.17" fill="#3d3d3d"/><polygon points="950,870.83 950,950 870.83,950" fill="#afafaf"/><rect x="950" y="870.83" width="79.17" height="79.17" fill="#dcdcdc"/><polygon points="950,870.83 1029.17,870.83 1029.17,950" fill="#ffffff"/><rect x="1029.17" y="870.83" width="79.17" height="79.17" fill="#ffffff"/><g transform="translate(1029.17,870.83) scale(3.9585) rotate(0)"><rect width="20" height="2" fill="#ffffff"/><rect y="4" width="20" height="2" fill="#ffffff"/><rect y="8" width="20" height="2" fill="#ffffff"/><rect y="12" width="20" height="2" fill="#ffffff"/><rect y="16" width="20" height="2" fill="#ffffff"/></g><rect x="1108.33" y="870.83" width="79.17" height="79.17" fill="#ffffff"/><g transform="translate(1108.33,870.83) scale(3.9585) rotate(0)"><rect width="20" height="2" fill="#5bcc83"/><rect y="4" width="20" height="2" fill="#5bcc83"/><rect y="8" width="20" height="2" fill="#5bcc83"/><rect y="12" width="20" height="2" fill="#5bcc83"/><rect y="16" width="20" height="2" fill="#5bcc83"/></g><rect x="1187.5" y="870.83" width="79.17" height="79.17" fill="#22bb58"/><g transform="translate(1187.5,870.83) scale(3.9585) rotate(0)"><rect width="20" height="2" fill="#74d496"/><rect y="4" width="20" height="2" fill="#74d496"/><rect y="8" width="20" height="2" fill="#74d496"/><rect y="12" width="20" height="2" fill="#74d496"/><rect y="16" width="20" height="2" fill="#74d496"/></g><rect x="1266.67" y="870.83" width="79.17" height="79.17" fill="#797979"/><polygon points="1266.67,870.83 1345.8400000000001,950 1266.67,950" fill="#9a9a9a"/></g></svg>