<?xml version="1.0" standalone="no"?><svg xmlns:xlink="http://www.w3.org/1999/xlink" xmlns="http://www.w3.org/2000/svg" viewBox="0 0 500 352.942050630466" preserveAspectRatio="xMaxYMax slice"><g transform="scale(0.37151794803206944)"><rect x="0" y="0" width="1345.8333333333335" height="950" fill="#ffffff"/><rect x="0" y="0" width="79.17" height="79.17" fill="#d6d6d6"/><polygon points="0,0 79.17,0 79.17,79.17" fill="#ffffff"/><rect x="79.17" y="0" width="79.17" height="79.17" fill="#f5f4fc"/><path d="M 79.17 79.17 A 79.17 79.17 0 0 0 158.34 0 L 79.17 0L79.17 79.17" fill="#8f7ae1"/><rect x="158.33" y="0" width="79.17" height="79.17" fill="#fdfdff"/><g transform="translate(158.33,0) scale(3.9585) rotate(0)"><rect width="20" height="2" fill="#826bdd"/><rect y="4" width="20" height="2" fill="#826bdd"/><rect y="8" width="20" height="2" fill="#826bdd"/><rect y="12" width="20" height="2" fill="#826bdd"/><rect y="16" width="20" height="2" fill="#826bdd"/></g><rect x="237.5" y="0" width="79.17" height="79.17" fill="#ffffff"/><g transform="translate(237.5,0) scale(3.9585) rotate(0)"><rect width="20" height="2" fill="#f0edfb"/><rect y="4" width="20" height="2" fill="#f0edfb"/><rect y="8" width="20" height="2" fill="#f0edfb"/><rect y="12" width="20" height="2" fill="#f0edfb"/><rect y="16" width="20" height="2" fill="#f0edfb"/></g><rect x="316.67" y="0" width="79.17" height="79.17" fill="#c2c2c2"/><rect x="316.67" y="0" width="79.17" height="79.17" fill="#181818"/><rect x="395.83" y="0" width="79.17" height="79.17" fill="#ffffff"/><rect x="395.83" y="0" width="79.17" height="79.17" fill="#ffffff"/><rect x="475" y="0" width="79.17" height="79.17" fill="#bbafed"/><path d="M 475 79.17 A 79.17 79.17 0 0 1  554.17 0 L 475 79.17 A 79.17 79.17 0 0 0 554.17 0" fill="#9d8be4"/><rect x="554.17" y="0" width="79.17" height="79.17" fill="#fcfbfe"/><path d="M 554.17 0 A 79.17 79.17 0 0 1  633.3399999999999 79.17 L 554.17 0 A 79.17 79.17 0 0 0 633.3399999999999 79.17" fill="#c2b7ee"/><rect x="633.33" y="0" width="79.17" height="79.17" fill="#9b9b9b"/><path d="M 633.33 0 A 79.17 79.17 0 0 0 712.5 79.17 L 712.5 0L633.33 0" fill="#d5cdf3"/><rect x="712.5" y="0" width="79.17" height="79.17" fill="#909090"/><path d="M 712.5 79.17 A 79.17 79.17 0 0 1  791.67 0 L 791.67 79.17L712.5 79.17" fill="#e2ddf7"/><rect x="791.67" y="0" width="79.17" height="79.17" fill="#d3cbf3"/><path d="M 791.67 79.17 A 79.17 79.17 0 0 1  870.8399999999999 0 L 791.67 79.17 A 79.17 79.17 0 0 0 870.8399999999999 0" fill="#232323"/><rect x="870.83" y="0" width="79.17" height="79.17" fill="#ffffff"/><polygon points="870.83,0 950,0 950,79.17" fill="#d0d0d0"/><rect x="950" y="0" width="79.17" height="79.17" fill="#f5f3fc"/><rect x="950" y="0" width="79.17" height="79.17" fill="#ffffff"/><rect x="1029.17" y="0" width="79.17" height="79.17" fill="#ffffff"/><path d="M 1029.17 0 A 79.17 79.17 0 0 1  1108.3400000000001 79.17 L 1029.17 0 A 79.17 79.17 0 0 0 1108.3400000000001 79.17" fill="#ffffff"/><rect x="1108.33" y="0" width="79.17" height="79.17" fill="#e2e2e2"/><rect x="1108.33" y="0" width="79.17" height="79.17" fill="#e2dcf7"/><rect x="1187.5" y="0" width="79.17" height="79.17" fill="#937fe2"/><path d="M 1187.5 79.17 A 79.17 79.17 0 0 1  1266.67 0 L 1187.5 79.17 A 79.17 79.17 0 0 0 1266.67 0" fill="#f9f7fd"/><rect x="1266.67" y="0" width="79.17" height="79.17" fill="#ffffff"/><path d="M 1266.67 0 A 79.17 79.17 0 0 0 1345.8400000000001 79.17 L 1345.8400000000001 0L1266.67 0" fill="#d9d2f5"/><rect x="0" y="79.17" width="79.17" height="79.17" fill="#1d1d1d"/><polygon points="79.17,79.17 79.17,158.34 0,158.34" fill="#ffffff"/><rect x="79.17" y="79.17" width="79.17" height="79.17" fill="#ffffff"/><polygon points="79.17,79.17 158.34,158.34 79.17,158.34" fill="#ffffff"/><rect x="158.33" y="79.17" width="79.17" height="79.17" fill="#ffffff"/><path d="M 158.33 79.17 A 79.17 79.17 0 0 1  237.5 158.34 L 158.33 79.17 A 79.17 79.17 0 0 0 237.5 158.34" fill="#ffffff"/><rect x="237.5" y="79.17" width="79.17" height="79.17" fill="#ffffff"/><polygon points="316.67,79.17 316.67,158.34 237.5,158.34" fill="#ffffff"/><rect x="316.67" y="79.17" width="79.17" height="79.17" fill="#e8e8e8"/><path d="M 316.67 79.17 A 79.17 79.17 0 0 1  395.84000000000003 158.34 L 316.67 79.17 A 79.17 79.17 0 0 0 395.84000000000003 158.34" fill="#eae6f9"/><rect x="395.83" y="79.17" width="79.17" height="79.17" fill="#8d78e0"/><path d="M 395.83 158.34 A 79.17 79.17 0 0 0 475 79.17 L 395.83 79.17L395.83 158.34" fill="#353535"/><rect x="475" y="79.17" width="79.17" height="79.17" fill="#ffffff"/><polygon points="475,79.17 554.17,79.17 554.17,158.34" fill="#4c4c4c"/><rect x="554.17" y="79.17" width="79.17" height="79.17" fill="#694ed6"/><path d="M 554.17 158.34 A 79.17 79.17 0 0 1  633.3399999999999 79.17 L 554.17 158.34 A 79.17 79.17 0 0 0 633.3399999999999 79.17" fill="#e7e2f8"/><rect x="633.33" y="79.17" width="79.17" height="79.17" fill="#ffffff"/><path d="M 633.33 158.34 A 79.17 79.17 0 0 1  712.5 79.17 L 712.5 158.34L633.33 158.34" fill="#ffffff"/><rect x="712.5" y="79.17" width="79.17" height="79.17" fill="#ffffff"/><g transform="translate(712.5,79.17) scale(3.9585) rotate(0)"><rect width="20" height="2" fill="#ac9de9"/><rect y="4" width="20" height="2" fill="#ac9de9"/><rect y="8" width="20" height="2" fill="#ac9de9"/><rect y="12" width="20" height="2" fill="#ac9de9"/><rect y="16" width="20" height="2" fill="#ac9de9"/></g><rect x="791.67" y="79.17" width="79.17" height="79.17" fill="#ffffff"/><path d="M 791.67 158.34 A 79.17 79.17 0 0 1  870.8399999999999 79.17 L 791.67 158.34 A 79.17 79.17 0 0 0 870.8399999999999 79.17" fill="#c2b7ef"/><rect x="870.83" y="79.17" width="79.17" height="79.17" fill="#ffffff"/><g transform="translate(870.83,79.17) scale(3.9585) rotate(0)"><rect width="20" height="2" fill="#a6a6a6"/><rect y="4" width="20" height="2" fill="#a6a6a6"/><rect y="8" width="20" height="2" fill="#a6a6a6"/><rect y="12" width="20" height="2" fill="#a6a6a6"/><rect y="16" width="20" height="2" fill="#a6a6a6"/></g><rect x="950" y="79.17" width="79.17" height="79.17" fill="#cec5f2"/><g transform="translate(950,79.17) scale(3.9585) rotate(0)"><rect width="20" height="2" fill="#7960db"/><rect y="4" width="20" height="2" fill="#7960db"/><rect y="8" width="20" height="2" fill="#7960db"/><rect y="12" width="20" height="2" fill="#7960db"/><rect y="16" width="20" height="2" fill="#7960db"/></g><rect x="1029.17" y="79.17" width="79.17" height="79.17" fill="#cac1f1"/><rect x="1029.17" y="79.17" width="79.17" height="79.17" fill="#6144d4"/><rect x="1108.33" y="79.17" width="79.17" height="79.17" fill="#ffffff"/><path d="M 1108.33 79.17 A 79.17 79.17 0 0 1  1187.5 158.34 L 1108.33 79.17 A 79.17 79.17 0 0 0 1187.5 158.34" fill="#ffffff"/><rect x="1187.5" y="79.17" width="79.17" height="79.17" fill="#ffffff"/><g transform="translate(1187.5,79.17) scale(3.9585) rotate(0)"><rect width="20" height="2" fill="#ccc2f1"/><rect y="4" width="20" height="2" fill="#ccc2f1"/><rect y="8" width="20" height="2" fill="#ccc2f1"/><rect y="12" width="20" height="2" fill="#ccc2f1"/><rect y="16" width="20" height="2" fill="#ccc2f1"/></g><rect x="1266.67" y="79.17" width="79.17" height="79.17" fill="#ffffff"/><g transform="translate(1266.67,79.17) scale(3.9585) rotate(0)"><rect width="20" height="2" fill="#ffffff"/><rect y="4" width="20" height="2" fill="#ffffff"/><rect y="8" width="20" height="2" fill="#ffffff"/><rect y="12" width="20" height="2" fill="#ffffff"/><rect y="16" width="20" height="2" fill="#ffffff"/></g><rect x="0" y="158.33" width="79.17" height="79.17" fill="#ffffff"/><polygon points="0,158.33 79.17,158.33 79.17,237.5" fill="#856ede"/><rect x="79.17" y="158.33" width="79.17" height="79.17" fill="#dedede"/><path d="M 79.17 158.33 A 79.17 79.17 0 0 1  158.34 237.5 L 79.17 158.33 A 79.17 79.17 0 0 0 158.34 237.5" fill="#866fde"/><rect x="158.33" y="158.33" width="79.17" height="79.17" fill="#d7d7d7"/><polygon points="237.5,158.33 237.5,237.5 158.33,237.5" fill="#fdfcfe"/><rect x="237.5" y="158.33" width="79.17" height="79.17" fill="#3d3d3d"/><polygon points="237.5,158.33 316.67,158.33 237.5,237.5" fill="#848484"/><rect x="316.67" y="158.33" width="79.17" height="79.17" fill="#ffffff"/><g transform="translate(316.67,158.33) scale(3.9585) rotate(0)"><rect width="20" height="2" fill="#c6c6c6"/><rect y="4" width="20" height="2" fill="#c6c6c6"/><rect y="8" width="20" height="2" fill="#c6c6c6"/><rect y="12" width="20" height="2" fill="#c6c6c6"/><rect y="16" width="20" height="2" fill="#c6c6c6"/></g><rect x="395.83" y="158.33" width="79.17" height="79.17" fill="#ffffff"/><g transform="translate(395.83,158.33) scale(3.9585) rotate(0)"><rect width="20" height="2" fill="#ffffff"/><rect y="4" width="20" height="2" fill="#ffffff"/><rect y="8" width="20" height="2" fill="#ffffff"/><rect y="12" width="20" height="2" fill="#ffffff"/><rect y="16" width="20" height="2" fill="#ffffff"/></g><rect x="475" y="158.33" width="79.17" height="79.17" fill="#7f7f7f"/><path d="M 475 237.5 A 79.17 79.17 0 0 0 554.17 158.33 L 475 158.33L475 237.5" fill="#ffffff"/><rect x="554.17" y="158.33" width="79.17" height="79.17" fill="#a594e6"/><g transform="translate(554.17,158.33) scale(3.9585) rotate(0)"><rect width="20" height="2" fill="#ffffff"/><rect y="4" width="20" height="2" fill="#ffffff"/><rect y="8" width="20" height="2" fill="#ffffff"/><rect y="12" width="20" height="2" fill="#ffffff"/><rect y="16" width="20" height="2" fill="#ffffff"/></g><rect x="633.33" y="158.33" width="79.17" height="79.17" fill="#9d8be4"/><rect x="633.33" y="158.33" width="79.17" height="79.17" fill="#2c2c2c"/><rect x="712.5" y="158.33" width="79.17" height="79.17" fill="#8770de"/><g transform="translate(712.5,158.33) scale(3.9585) rotate(0)"><rect width="20" height="2" fill="#a2a2a2"/><rect y="4" width="20" height="2" fill="#a2a2a2"/><rect y="8" width="20" height="2" fill="#a2a2a2"/><rect y="12" width="20" height="2" fill="#a2a2a2"/><rect y="16" width="20" height="2" fill="#a2a2a2"/></g><rect x="791.67" y="158.33" width="79.17" height="79.17" fill="#363636"/><rect x="791.67" y="158.33" width="79.17" height="79.17" fill="#868686"/><rect x="870.83" y="158.33" width="79.17" height="79.17" fill="#dcd6f6"/><path d="M 870.83 158.33 A 79.17 79.17 0 0 0 950 237.5 L 950 158.33L870.83 158.33" fill="#7d65dc"/><rect x="950" y="158.33" width="79.17" height="79.17" fill="#d6d6d6"/><g transform="translate(950,158.33) scale(3.9585) rotate(0)"><rect width="20" height="2" fill="#ffffff"/><rect y="4" width="20" height="2" fill="#ffffff"/><rect y="8" width="20" height="2" fill="#ffffff"/><rect y="12" width="20" height="2" fill="#ffffff"/><rect y="16" width="20" height="2" fill="#ffffff"/></g><rect x="1029.17" y="158.33" width="79.17" height="79.17" fill="#c1c1c1"/><polygon points="1029.17,158.33 1108.3400000000001,158.33 1108.3400000000001,237.5" fill="#323232"/><rect x="1108.33" y="158.33" width="79.17" height="79.17" fill="#ffffff"/><path d="M 1108.33 237.5 A 79.17 79.17 0 0 1  1187.5 158.33 L 1108.33 237.5 A 79.17 79.17 0 0 0 1187.5 158.33" fill="#9d8be4"/><rect x="1187.5" y="158.33" width="79.17" height="79.17" fill="#907be1"/><rect x="1187.5" y="158.33" width="79.17" height="79.17" fill="#ffffff"/><rect x="1266.67" y="158.33" width="79.17" height="79.17" fill="#ffffff"/><path d="M 1266.67 158.33 A 79.17 79.17 0 0 1  1345.8400000000001 237.5 L 1266.67 158.33 A 79.17 79.17 0 0 0 1345.8400000000001 237.5" fill="#ffffff"/><rect x="0" y="237.5" width="79.17" height="79.17" fill="#ffffff"/><polygon points="0,237.5 79.17,316.67 0,316.67" fill="#907be1"/><rect x="79.17" y="237.5" width="79.17" height="79.17" fill="#ffffff"/><rect x="79.17" y="237.5" width="79.17" height="79.17" fill="#838383"/><rect x="158.33" y="237.5" width="79.17" height="79.17" fill="#ffffff"/><g transform="translate(158.33,237.5) scale(3.9585) rotate(0)"><rect width="20" height="2" fill="#ffffff"/><rect y="4" width="20" height="2" fill="#ffffff"/><rect y="8" width="20" height="2" fill="#ffffff"/><rect y="12" width="20" height="2" fill="#ffffff"/><rect y="16" width="20" height="2" fill="#ffffff"/></g><rect x="237.5" y="237.5" width="79.17" height="79.17" fill="#d0d0d0"/><rect x="237.5" y="237.5" width="79.17" height="79.17" fill="#ffffff"/><rect x="316.67" y="237.5" width="79.17" height="79.17" fill="#7f7f7f"/><rect x="316.67" y="237.5" width="79.17" height="79.17" fill="#7e66dc"/><rect x="395.83" y="237.5" width="79.17" height="79.17" fill="#ffffff"/><polygon points="395.83,237.5 475,237.5 395.83,316.67" fill="#ffffff"/><rect x="475" y="237.5" width="79.17" height="79.17" fill="#e5e0f8"/><polygon points="554.17,237.5 554.17,316.67 475,316.67" fill="#ffffff"/><rect x="554.17" y="237.5" width="79.17" height="79.17" fill="#fefeff"/><g transform="translate(554.17,237.5) scale(3.9585) rotate(0)"><rect width="20" height="2" fill="#ffffff"/><rect y="4" width="20" height="2" fill="#ffffff"/><rect y="8" width="20" height="2" fill="#ffffff"/><rect y="12" width="20" height="2" fill="#ffffff"/><rect y="16" width="20" height="2" fill="#ffffff"/></g><rect x="633.33" y="237.5" width="79.17" height="79.17" fill="#6042d4"/><path d="M 633.33 237.5 A 79.17 79.17 0 0 0 712.5 316.67 L 712.5 237.5L633.33 237.5" fill="#dadada"/><rect x="712.5" y="237.5" width="79.17" height="79.17" fill="#ffffff"/><polygon points="712.5,237.5 791.67,316.67 712.5,316.67" fill="#ffffff"/><rect x="791.67" y="237.5" width="79.17" height="79.17" fill="#545454"/><g transform="translate(791.67,237.5) scale(3.9585) rotate(0)"><rect width="20" height="2" fill="#d9d2f5"/><rect y="4" width="20" height="2" fill="#d9d2f5"/><rect y="8" width="20" height="2" fill="#d9d2f5"/><rect y="12" width="20" height="2" fill="#d9d2f5"/><rect y="16" width="20" height="2" fill="#d9d2f5"/></g><rect x="870.83" y="237.5" width="79.17" height="79.17" fill="#7f7f7f"/><rect x="870.83" y="237.5" width="79.17" height="79.17" fill="#faf9fe"/><rect x="950" y="237.5" width="79.17" height="79.17" fill="#727272"/><path d="M 950 237.5 A 79.17 79.17 0 0 1  1029.17 316.67 L 950 237.5 A 79.17 79.17 0 0 0 1029.17 316.67" fill="#b1a3ea"/><rect x="1029.17" y="237.5" width="79.17" height="79.17" fill="#ffffff"/><g transform="translate(1029.17,237.5) scale(3.9585) rotate(0)"><rect width="20" height="2" fill="#ffffff"/><rect y="4" width="20" height="2" fill="#ffffff"/><rect y="8" width="20" height="2" fill="#ffffff"/><rect y="12" width="20" height="2" fill="#ffffff"/><rect y="16" width="20" height="2" fill="#ffffff"/></g><rect x="1108.33" y="237.5" width="79.17" height="79.17" fill="#a290e6"/><path d="M 1108.33 237.5 A 79.17 79.17 0 0 1  1187.5 316.67 L 1108.33 237.5 A 79.17 79.17 0 0 0 1187.5 316.67" fill="#a1a1a1"/><rect x="1187.5" y="237.5" width="79.17" height="79.17" fill="#cecece"/><path d="M 1187.5 316.67 A 79.17 79.17 0 0 1  1266.67 237.5 L 1187.5 316.67 A 79.17 79.17 0 0 0 1266.67 237.5" fill="#b2b2b2"/><rect x="1266.67" y="237.5" width="79.17" height="79.17" fill="#ffffff"/><path d="M 1266.67 316.67 A 79.17 79.17 0 0 1  1345.8400000000001 237.5 L 1266.67 316.67 A 79.17 79.17 0 0 0 1345.8400000000001 237.5" fill="#c9bff0"/><rect x="0" y="316.67" width="79.17" height="79.17" fill="#efecfb"/><path d="M 0 395.84000000000003 A 79.17 79.17 0 0 0 79.17 316.67 L 0 316.67L0 395.84000000000003" fill="#ffffff"/><rect x="79.17" y="316.67" width="79.17" height="79.17" fill="#ffffff"/><path d="M 79.17 316.67 A 79.17 79.17 0 0 1  158.34 395.84000000000003 L 79.17 316.67 A 79.17 79.17 0 0 0 158.34 395.84000000000003" fill="#1d1d1d"/><rect x="158.33" y="316.67" width="79.17" height="79.17" fill="#fefeff"/><g transform="translate(158.33,316.67) scale(3.9585) rotate(0)"><rect width="20" height="2" fill="#424242"/><rect y="4" width="20" height="2" fill="#424242"/><rect y="8" width="20" height="2" fill="#424242"/><rect y="12" width="20" height="2" fill="#424242"/><rect y="16" width="20" height="2" fill="#424242"/></g><rect x="237.5" y="316.67" width="79.17" height="79.17" fill="#8c8c8c"/><g transform="translate(237.5,316.67) scale(3.9585) rotate(0)"><rect width="20" height="2" fill="#a1a1a1"/><rect y="4" width="20" height="2" fill="#a1a1a1"/><rect y="8" width="20" height="2" fill="#a1a1a1"/><rect y="12" width="20" height="2" fill="#a1a1a1"/><rect y="16" width="20" height="2" fill="#a1a1a1"/></g><rect x="316.67" y="316.67" width="79.17" height="79.17" fill="#ffffff"/><rect x="316.67" y="316.67" width="79.17" height="79.17" fill="#7f67dc"/><rect x="395.83" y="316.67" width="79.17" height="79.17" fill="#ffffff"/><g transform="translate(395.83,316.67) scale(3.9585) rotate(0)"><rect width="20" height="2" fill="#fefefe"/><rect y="4" width="20" height="2" fill="#fefefe"/><rect y="8" width="20" height="2" fill="#fefefe"/><rect y="12" width="20" height="2" fill="#fefefe"/><rect y="16" width="20" height="2" fill="#fefefe"/></g><rect x="475" y="316.67" width="79.17" height="79.17" fill="#505050"/><path d="M 475 395.84000000000003 A 79.17 79.17 0 0 1  554.17 316.67 L 475 395.84000000000003 A 79.17 79.17 0 0 0 554.17 316.67" fill="#ffffff"/><rect x="554.17" y="316.67" width="79.17" height="79.17" fill="#ffffff"/><polygon points="633.3399999999999,316.67 633.3399999999999,395.84000000000003 554.17,395.84000000000003" fill="#6b50d7"/><rect x="633.33" y="316.67" width="79.17" height="79.17" fill="#404040"/><path d="M 633.33 395.84000000000003 A 79.17 79.17 0 0 1  712.5 316.67 L 633.33 395.84000000000003 A 79.17 79.17 0 0 0 712.5 316.67" fill="#ffffff"/><rect x="712.5" y="316.67" width="79.17" height="79.17" fill="#ffffff"/><g transform="translate(712.5,316.67) scale(3.9585) rotate(0)"><rect width="20" height="2" fill="#d0d0d0"/><rect y="4" width="20" height="2" fill="#d0d0d0"/><rect y="8" width="20" height="2" fill="#d0d0d0"/><rect y="12" width="20" height="2" fill="#d0d0d0"/><rect y="16" width="20" height="2" fill="#d0d0d0"/></g><rect x="791.67" y="316.67" width="79.17" height="79.17" fill="#424242"/><g transform="translate(791.67,316.67) scale(3.9585) rotate(0)"><rect width="20" height="2" fill="#464646"/><rect y="4" width="20" height="2" fill="#464646"/><rect y="8" width="20" height="2" fill="#464646"/><rect y="12" width="20" height="2" fill="#464646"/><rect y="16" width="20" height="2" fill="#464646"/></g><rect x="870.83" y="316.67" width="79.17" height="79.17" fill="#ffffff"/><path d="M 870.83 395.84000000000003 A 79.17 79.17 0 0 1  950 316.67 L 870.83 395.84000000000003 A 79.17 79.17 0 0 0 950 316.67" fill="#3d3d3d"/><rect x="950" y="316.67" width="79.17" height="79.17" fill="#e1dcf7"/><g transform="translate(950,316.67) scale(3.9585) rotate(0)"><rect width="20" height="2" fill="#d6cef4"/><rect y="4" width="20" height="2" fill="#d6cef4"/><rect y="8" width="20" height="2" fill="#d6cef4"/><rect y="12" width="20" height="2" fill="#d6cef4"/><rect y="16" width="20" height="2" fill="#d6cef4"/></g><rect x="1029.17" y="316.67" width="79.17" height="79.17" fill="#fdfcfe"/><rect x="1029.17" y="316.67" width="79.17" height="79.17" fill="#ffffff"/><rect x="1108.33" y="316.67" width="79.17" height="79.17" fill="#ffffff"/><g transform="translate(1108.33,316.67) scale(3.9585) rotate(0)"><rect width="20" height="2" fill="#7359d9"/><rect y="4" width="20" height="2" fill="#7359d9"/><rect y="8" width="20" height="2" fill="#7359d9"/><rect y="12" width="20" height="2" fill="#7359d9"/><rect y="16" width="20" height="2" fill="#7359d9"/></g><rect x="1187.5" y="316.67" width="79.17" height="79.17" fill="#929292"/><polygon points="1187.5,316.67 1266.67,316.67 1266.67,395.84000000000003" fill="#d1c9f3"/><rect x="1266.67" y="316.67" width="79.17" height="79.17" fill="#ffffff"/><polygon points="1266.67,316.67 1345.8400000000001,395.84000000000003 1266.67,395.84000000000003" fill="#474747"/><rect x="0" y="395.83" width="79.17" height="79.17" fill="#d5cdf3"/><polygon points="79.17,395.83 79.17,475 0,475" fill="#eae7f9"/><rect x="79.17" y="395.83" width="79.17" height="79.17" fill="#faf9fe"/><g transform="translate(79.17,395.83) scale(3.9585) rotate(0)"><rect width="20" height="2" fill="#ffffff"/><rect y="4" width="20" height="2" fill="#ffffff"/><rect y="8" width="20" height="2" fill="#ffffff"/><rect y="12" width="20" height="2" fill="#ffffff"/><rect y="16" width="20" height="2" fill="#ffffff"/></g><rect x="158.33" y="395.83" width="79.17" height="79.17" fill="#494949"/><g transform="translate(158.33,395.83) scale(3.9585) rotate(0)"><rect width="20" height="2" fill="#b9b9b9"/><rect y="4" width="20" height="2" fill="#b9b9b9"/><rect y="8" width="20" height="2" fill="#b9b9b9"/><rect y="12" width="20" height="2" fill="#b9b9b9"/><rect y="16" width="20" height="2" fill="#b9b9b9"/></g><rect x="237.5" y="395.83" width="79.17" height="79.17" fill="#ffffff"/><g transform="translate(237.5,395.83) scale(3.9585) rotate(0)"><rect width="20" height="2" fill="#ede9fa"/><rect y="4" width="20" height="2" fill="#ede9fa"/><rect y="8" width="20" height="2" fill="#ede9fa"/><rect y="12" width="20" height="2" fill="#ede9fa"/><rect y="16" width="20" height="2" fill="#ede9fa"/></g><rect x="316.67" y="395.83" width="79.17" height="79.17" fill="#ffffff"/><rect x="316.67" y="395.83" width="79.17" height="79.17" fill="#785fda"/><rect x="395.83" y="395.83" width="79.17" height="79.17" fill="#ffffff"/><rect x="395.83" y="395.83" width="79.17" height="79.17" fill="#ffffff"/><rect x="475" y="395.83" width="79.17" height="79.17" fill="#252525"/><rect x="475" y="395.83" width="79.17" height="79.17" fill="#ffffff"/><rect x="554.17" y="395.83" width="79.17" height="79.17" fill="#e4e4e4"/><path d="M 554.17 475 A 79.17 79.17 0 0 1  633.3399999999999 395.83 L 633.3399999999999 475L554.17 475" fill="#9986e3"/><rect x="633.33" y="395.83" width="79.17" height="79.17" fill="#ffffff"/><path d="M 633.33 395.83 A 79.17 79.17 0 0 1  712.5 475 L 633.33 395.83 A 79.17 79.17 0 0 0 712.5 475" fill="#ffffff"/><rect x="712.5" y="395.83" width="79.17" height="79.17" fill="#ffffff"/><path d="M 712.5 395.83 A 79.17 79.17 0 0 0 791.67 475 L 791.67 395.83L712.5 395.83" fill="#ffffff"/><rect x="791.67" y="395.83" width="79.17" height="79.17" fill="#d1d1d1"/><g transform="translate(791.67,395.83) scale(3.9585) rotate(0)"><rect width="20" height="2" fill="#8e78e0"/><rect y="4" width="20" height="2" fill="#8e78e0"/><rect y="8" width="20" height="2" fill="#8e78e0"/><rect y="12" width="20" height="2" fill="#8e78e0"/><rect y="16" width="20" height="2" fill="#8e78e0"/></g><rect x="870.83" y="395.83" width="79.17" height="79.17" fill="#b7b7b7"/><g transform="translate(870.83,395.83) scale(3.9585) rotate(0)"><rect width="20" height="2" fill="#6245d4"/><rect y="4" width="20" height="2" fill="#6245d4"/><rect y="8" width="20" height="2" fill="#6245d4"/><rect y="12" width="20" height="2" fill="#6245d4"/><rect y="16" width="20" height="2" fill="#6245d4"/></g><rect x="950" y="395.83" width="79.17" height="79.17" fill="#d5d5d5"/><g transform="translate(950,395.83) scale(3.9585) rotate(0)"><rect width="20" height="2" fill="#ffffff"/><rect y="4" width="20" height="2" fill="#ffffff"/><rect y="8" width="20" height="2" fill="#ffffff"/><rect y="12" width="20" height="2" fill="#ffffff"/><rect y="16" width="20" height="2" fill="#ffffff"/></g><rect x="1029.17" y="395.83" width="79.17" height="79.17" fill="#f6f5fd"/><polygon points="1029.17,395.83 1108.3400000000001,395.83 1108.3400000000001,475" fill="#e3e3e3"/><rect x="1108.33" y="395.83" width="79.17" height="79.17" fill="#836cdd"/><g transform="translate(1108.33,395.83) scale(3.9585) rotate(0)"><rect width="20" height="2" fill="#ffffff"/><rect y="4" width="20" height="2" fill="#ffffff"/><rect y="8" width="20" height="2" fill="#ffffff"/><rect y="12" width="20" height="2" fill="#ffffff"/><rect y="16" width="20" height="2" fill="#ffffff"/></g><rect x="1187.5" y="395.83" width="79.17" height="79.17" fill="#ffffff"/><rect x="1187.5" y="395.83" width="79.17" height="79.17" fill="#ffffff"/><rect x="1266.67" y="395.83" width="79.17" height="79.17" fill="#ffffff"/><polygon points="1266.67,395.83 1345.8400000000001,395.83 1345.8400000000001,475" fill="#ffffff"/><rect x="0" y="475" width="79.17" height="79.17" fill="#5e41d3"/><g transform="translate(0,475) scale(3.9585) rotate(0)"><rect width="20" height="2" fill="#888888"/><rect y="4" width="20" height="2" fill="#888888"/><rect y="8" width="20" height="2" fill="#888888"/><rect y="12" width="20" height="2" fill="#888888"/><rect y="16" width="20" height="2" fill="#888888"/></g><rect x="79.17" y="475" width="79.17" height="79.17" fill="#c4c4c4"/><rect x="79.17" y="475" width="79.17" height="79.17" fill="#dfd9f6"/><rect x="158.33" y="475" width="79.17" height="79.17" fill="#6042d4"/><polygon points="158.33,475 237.5,554.17 158.33,554.17" fill="#6b4fd7"/><rect x="237.5" y="475" width="79.17" height="79.17" fill="#ded8f6"/><path d="M 237.5 475 A 79.17 79.17 0 0 1  316.67 554.17 L 237.5 475 A 79.17 79.17 0 0 0 316.67 554.17" fill="#826bdd"/><rect x="316.67" y="475" width="79.17" height="79.17" fill="#8a8a8a"/><g transform="translate(316.67,475) scale(3.9585) rotate(0)"><rect width="20" height="2" fill="#fefeff"/><rect y="4" width="20" height="2" fill="#fefeff"/><rect y="8" width="20" height="2" fill="#fefeff"/><rect y="12" width="20" height="2" fill="#fefeff"/><rect y="16" width="20" height="2" fill="#fefeff"/></g><rect x="395.83" y="475" width="79.17" height="79.17" fill="#3f3f3f"/><path d="M 395.83 475 A 79.17 79.17 0 0 1 475 554.17 L 395.83 554.17L395.83 475" fill="#fdfdff"/><rect x="475" y="475" width="79.17" height="79.17" fill="#ffffff"/><g transform="translate(475,475) scale(3.9585) rotate(0)"><rect width="20" height="2" fill="#c9c9c9"/><rect y="4" width="20" height="2" fill="#c9c9c9"/><rect y="8" width="20" height="2" fill="#c9c9c9"/><rect y="12" width="20" height="2" fill="#c9c9c9"/><rect y="16" width="20" height="2" fill="#c9c9c9"/></g><rect x="554.17" y="475" width="79.17" height="79.17" fill="#424242"/><path d="M 554.17 475 A 79.17 79.17 0 0 1  633.3399999999999 554.17 L 554.17 475 A 79.17 79.17 0 0 0 633.3399999999999 554.17" fill="#ffffff"/><rect x="633.33" y="475" width="79.17" height="79.17" fill="#c4c4c4"/><rect x="633.33" y="475" width="79.17" height="79.17" fill="#ffffff"/><rect x="712.5" y="475" width="79.17" height="79.17" fill="#745ad9"/><g transform="translate(712.5,475) scale(3.9585) rotate(0)"><rect width="20" height="2" fill="#cecece"/><rect y="4" width="20" height="2" fill="#cecece"/><rect y="8" width="20" height="2" fill="#cecece"/><rect y="12" width="20" height="2" fill="#cecece"/><rect y="16" width="20" height="2" fill="#cecece"/></g><rect x="791.67" y="475" width="79.17" height="79.17" fill="#929292"/><g transform="translate(791.67,475) scale(3.9585) rotate(0)"><rect width="20" height="2" fill="#9987e3"/><rect y="4" width="20" height="2" fill="#9987e3"/><rect y="8" width="20" height="2" fill="#9987e3"/><rect y="12" width="20" height="2" fill="#9987e3"/><rect y="16" width="20" height="2" fill="#9987e3"/></g><rect x="870.83" y="475" width="79.17" height="79.17" fill="#ffffff"/><path d="M 870.83 475 A 79.17 79.17 0 0 0 950 554.17 L 950 475L870.83 475" fill="#ffffff"/><rect x="950" y="475" width="79.17" height="79.17" fill="#ffffff"/><path d="M 950 475 A 79.17 79.17 0 0 0 1029.17 554.17 L 1029.17 475L950 475" fill="#ababab"/><rect x="1029.17" y="475" width="79.17" height="79.17" fill="#d9d9d9"/><rect x="1029.17" y="475" width="79.17" height="79.17" fill="#ffffff"/><rect x="1108.33" y="475" width="79.17" height="79.17" fill="#474747"/><path d="M 1108.33 554.17 A 79.17 79.17 0 0 1  1187.5 475 L 1108.33 554.17 A 79.17 79.17 0 0 0 1187.5 475" fill="#ffffff"/><rect x="1187.5" y="475" width="79.17" height="79.17" fill="#868686"/><path d="M 1187.5 554.17 A 79.17 79.17 0 0 1  1266.67 475 L 1187.5 554.17 A 79.17 79.17 0 0 0 1266.67 475" fill="#707070"/><rect x="1266.67" y="475" width="79.17" height="79.17" fill="#ffffff"/><path d="M 1266.67 554.17 A 79.17 79.17 0 0 1  1345.8400000000001 475 L 1345.8400000000001 554.17L1266.67 554.17" fill="#efecfb"/><rect x="0" y="554.17" width="79.17" height="79.17" fill="#ffffff"/><rect x="0" y="554.17" width="79.17" height="79.17" fill="#7d65dc"/><rect x="79.17" y="554.17" width="79.17" height="79.17" fill="#e7e3f8"/><g transform="translate(79.17,554.17) scale(3.9585) rotate(0)"><rect width="20" height="2" fill="#fbfbfe"/><rect y="4" width="20" height="2" fill="#fbfbfe"/><rect y="8" width="20" height="2" fill="#fbfbfe"/><rect y="12" width="20" height="2" fill="#fbfbfe"/><rect y="16" width="20" height="2" fill="#fbfbfe"/></g><rect x="158.33" y="554.17" width="79.17" height="79.17" fill="#ffffff"/><polygon points="158.33,554.17 237.5,633.3399999999999 158.33,633.3399999999999" fill="#ffffff"/><rect x="237.5" y="554.17" width="79.17" height="79.17" fill="#ffffff"/><path d="M 237.5 633.3399999999999 A 79.17 79.17 0 0 1  316.67 554.17 L 237.5 633.3399999999999 A 79.17 79.17 0 0 0 316.67 554.17" fill="#ffffff"/><rect x="316.67" y="554.17" width="79.17" height="79.17" fill="#7d65dc"/><g transform="translate(316.67,554.17) scale(3.9585) rotate(0)"><rect width="20" height="2" fill="#dcd6f6"/><rect y="4" width="20" height="2" fill="#dcd6f6"/><rect y="8" width="20" height="2" fill="#dcd6f6"/><rect y="12" width="20" height="2" fill="#dcd6f6"/><rect y="16" width="20" height="2" fill="#dcd6f6"/></g><rect x="395.83" y="554.17" width="79.17" height="79.17" fill="#a08fe5"/><g transform="translate(395.83,554.17) scale(3.9585) rotate(0)"><rect width="20" height="2" fill="#ffffff"/><rect y="4" width="20" height="2" fill="#ffffff"/><rect y="8" width="20" height="2" fill="#ffffff"/><rect y="12" width="20" height="2" fill="#ffffff"/><rect y="16" width="20" height="2" fill="#ffffff"/></g><rect x="475" y="554.17" width="79.17" height="79.17" fill="#826add"/><path d="M 475 633.3399999999999 A 79.17 79.17 0 0 1  554.17 554.17 L 475 633.3399999999999 A 79.17 79.17 0 0 0 554.17 554.17" fill="#ffffff"/><rect x="554.17" y="554.17" width="79.17" height="79.17" fill="#ffffff"/><path d="M 554.17 633.3399999999999 A 79.17 79.17 0 0 1  633.3399999999999 554.17 L 554.17 633.3399999999999 A 79.17 79.17 0 0 0 633.3399999999999 554.17" fill="#6549d5"/><rect x="633.33" y="554.17" width="79.17" height="79.17" fill="#ffffff"/><path d="M 633.33 633.3399999999999 A 79.17 79.17 0 0 1  712.5 554.17 L 633.33 633.3399999999999 A 79.17 79.17 0 0 0 712.5 554.17" fill="#ffffff"/><rect x="712.5" y="554.17" width="79.17" height="79.17" fill="#ffffff"/><path d="M 712.5 554.17 A 79.17 79.17 0 0 1 791.67 633.3399999999999 L 712.5 633.3399999999999L712.5 554.17" fill="#ffffff"/><rect x="791.67" y="554.17" width="79.17" height="79.17" fill="#292929"/><polygon points="870.8399999999999,554.17 870.8399999999999,633.3399999999999 791.67,633.3399999999999" fill="#6144d4"/><rect x="870.83" y="554.17" width="79.17" height="79.17" fill="#1e1e1e"/><path d="M 870.83 633.3399999999999 A 79.17 79.17 0 0 0 950 554.17 L 870.83 554.17L870.83 633.3399999999999" fill="#ffffff"/><rect x="950" y="554.17" width="79.17" height="79.17" fill="#c0c0c0"/><polygon points="950,554.17 1029.17,554.17 1029.17,633.3399999999999" fill="#919191"/><rect x="1029.17" y="554.17" width="79.17" height="79.17" fill="#565656"/><g transform="translate(1029.17,554.17) scale(3.9585) rotate(0)"><rect width="20" height="2" fill="#ffffff"/><rect y="4" width="20" height="2" fill="#ffffff"/><rect y="8" width="20" height="2" fill="#ffffff"/><rect y="12" width="20" height="2" fill="#ffffff"/><rect y="16" width="20" height="2" fill="#ffffff"/></g><rect x="1108.33" y="554.17" width="79.17" height="79.17" fill="#d6d6d6"/><path d="M 1108.33 633.3399999999999 A 79.17 79.17 0 0 1  1187.5 554.17 L 1108.33 633.3399999999999 A 79.17 79.17 0 0 0 1187.5 554.17" fill="#616161"/><rect x="1187.5" y="554.17" width="79.17" height="79.17" fill="#5f41d4"/><polygon points="1266.67,554.17 1266.67,633.3399999999999 1187.5,633.3399999999999" fill="#ffffff"/><rect x="1266.67" y="554.17" width="79.17" height="79.17" fill="#c2c2c2"/><g transform="translate(1266.67,554.17) scale(3.9585) rotate(0)"><rect width="20" height="2" fill="#f4f2fc"/><rect y="4" width="20" height="2" fill="#f4f2fc"/><rect y="8" width="20" height="2" fill="#f4f2fc"/><rect y="12" width="20" height="2" fill="#f4f2fc"/><rect y="16" width="20" height="2" fill="#f4f2fc"/></g><rect x="0" y="633.33" width="79.17" height="79.17" fill="#505050"/><g transform="translate(0,633.33) scale(3.9585) rotate(0)"><rect width="20" height="2" fill="#ffffff"/><rect y="4" width="20" height="2" fill="#ffffff"/><rect y="8" width="20" height="2" fill="#ffffff"/><rect y="12" width="20" height="2" fill="#ffffff"/><rect y="16" width="20" height="2" fill="#ffffff"/></g><rect x="79.17" y="633.33" width="79.17" height="79.17" fill="#cac0f1"/><path d="M 79.17 712.5 A 79.17 79.17 0 0 0 158.34 633.33 L 79.17 633.33L79.17 712.5" fill="#917de1"/><rect x="158.33" y="633.33" width="79.17" height="79.17" fill="#f2effb"/><g transform="translate(158.33,633.33) scale(3.9585) rotate(0)"><rect width="20" height="2" fill="#ffffff"/><rect y="4" width="20" height="2" fill="#ffffff"/><rect y="8" width="20" height="2" fill="#ffffff"/><rect y="12" width="20" height="2" fill="#ffffff"/><rect y="16" width="20" height="2" fill="#ffffff"/></g><rect x="237.5" y="633.33" width="79.17" height="79.17" fill="#484848"/><rect x="237.5" y="633.33" width="79.17" height="79.17" fill="#f7f5fd"/><rect x="316.67" y="633.33" width="79.17" height="79.17" fill="#ffffff"/><rect x="316.67" y="633.33" width="79.17" height="79.17" fill="#f3f1fc"/><rect x="395.83" y="633.33" width="79.17" height="79.17" fill="#f3f0fc"/><polygon points="395.83,633.33 475,712.5 395.83,712.5" fill="#f2f0fc"/><rect x="475" y="633.33" width="79.17" height="79.17" fill="#d2d2d2"/><path d="M 475 633.33 A 79.17 79.17 0 0 1  554.17 712.5 L 475 633.33 A 79.17 79.17 0 0 0 554.17 712.5" fill="#8e79e0"/><rect x="554.17" y="633.33" width="79.17" height="79.17" fill="#b0b0b0"/><path d="M 554.17 712.5 A 79.17 79.17 0 0 1  633.3399999999999 633.33 L 554.17 712.5 A 79.17 79.17 0 0 0 633.3399999999999 633.33" fill="#cfcfcf"/><rect x="633.33" y="633.33" width="79.17" height="79.17" fill="#1a1a1a"/><rect x="633.33" y="633.33" width="79.17" height="79.17" fill="#ededed"/><rect x="712.5" y="633.33" width="79.17" height="79.17" fill="#737373"/><path d="M 712.5 633.33 A 79.17 79.17 0 0 1  791.67 712.5 L 712.5 633.33 A 79.17 79.17 0 0 0 791.67 712.5" fill="#d3cbf3"/><rect x="791.67" y="633.33" width="79.17" height="79.17" fill="#bbafed"/><path d="M 791.67 633.33 A 79.17 79.17 0 0 1 870.8399999999999 712.5 L 791.67 712.5L791.67 633.33" fill="#ffffff"/><rect x="870.83" y="633.33" width="79.17" height="79.17" fill="#bcbcbc"/><path d="M 870.83 633.33 A 79.17 79.17 0 0 1  950 712.5 L 870.83 633.33 A 79.17 79.17 0 0 0 950 712.5" fill="#ffffff"/><rect x="950" y="633.33" width="79.17" height="79.17" fill="#4d4d4d"/><rect x="950" y="633.33" width="79.17" height="79.17" fill="#ffffff"/><rect x="1029.17" y="633.33" width="79.17" height="79.17" fill="#ffffff"/><rect x="1029.17" y="633.33" width="79.17" height="79.17" fill="#ffffff"/><rect x="1108.33" y="633.33" width="79.17" height="79.17" fill="#ffffff"/><path d="M 1108.33 712.5 A 79.17 79.17 0 0 1  1187.5 633.33 L 1108.33 712.5 A 79.17 79.17 0 0 0 1187.5 633.33" fill="#ffffff"/><rect x="1187.5" y="633.33" width="79.17" height="79.17" fill="#ffffff"/><path d="M 1187.5 633.33 A 79.17 79.17 0 0 1  1266.67 712.5 L 1187.5 633.33 A 79.17 79.17 0 0 0 1266.67 712.5" fill="#cec5f2"/><rect x="1266.67" y="633.33" width="79.17" height="79.17" fill="#ffffff"/><path d="M 1266.67 712.5 A 79.17 79.17 0 0 1  1345.8400000000001 633.33 L 1345.8400000000001 712.5L1266.67 712.5" fill="#ffffff"/><rect x="0" y="712.5" width="79.17" height="79.17" fill="#b8b8b8"/><rect x="0" y="712.5" width="79.17" height="79.17" fill="#765dda"/><rect x="79.17" y="712.5" width="79.17" height="79.17" fill="#e2ddf7"/><path d="M 79.17 791.67 A 79.17 79.17 0 0 1  158.34 712.5 L 79.17 791.67 A 79.17 79.17 0 0 0 158.34 712.5" fill="#dfd9f6"/><rect x="158.33" y="712.5" width="79.17" height="79.17" fill="#937fe2"/><g transform="translate(158.33,712.5) scale(3.9585) rotate(0)"><rect width="20" height="2" fill="#ffffff"/><rect y="4" width="20" height="2" fill="#ffffff"/><rect y="8" width="20" height="2" fill="#ffffff"/><rect y="12" width="20" height="2" fill="#ffffff"/><rect y="16" width="20" height="2" fill="#ffffff"/></g><rect x="237.5" y="712.5" width="79.17" height="79.17" fill="#efecfb"/><path d="M 237.5 712.5 A 79.17 79.17 0 0 1  316.67 791.67 L 237.5 712.5 A 79.17 79.17 0 0 0 316.67 791.67" fill="#a2a2a2"/><rect x="316.67" y="712.5" width="79.17" height="79.17" fill="#fcfcfc"/><polygon points="316.67,712.5 395.84000000000003,712.5 316.67,791.67" fill="#8d8d8d"/><rect x="395.83" y="712.5" width="79.17" height="79.17" fill="#7b7b7b"/><g transform="translate(395.83,712.5) scale(3.9585) rotate(0)"><rect width="20" height="2" fill="#303030"/><rect y="4" width="20" height="2" fill="#303030"/><rect y="8" width="20" height="2" fill="#303030"/><rect y="12" width="20" height="2" fill="#303030"/><rect y="16" width="20" height="2" fill="#303030"/></g><rect x="475" y="712.5" width="79.17" height="79.17" fill="#202020"/><rect x="475" y="712.5" width="79.17" height="79.17" fill="#ffffff"/><rect x="554.17" y="712.5" width="79.17" height="79.17" fill="#d1c8f2"/><polygon points="554.17,712.5 633.3399999999999,712.5 633.3399999999999,791.67" fill="#ffffff"/><rect x="633.33" y="712.5" width="79.17" height="79.17" fill="#ffffff"/><path d="M 633.33 712.5 A 79.17 79.17 0 0 1  712.5 791.67 L 633.33 712.5 A 79.17 79.17 0 0 0 712.5 791.67" fill="#ffffff"/><rect x="712.5" y="712.5" width="79.17" height="79.17" fill="#7055d8"/><g transform="translate(712.5,712.5) scale(3.9585) rotate(0)"><rect width="20" height="2" fill="#ffffff"/><rect y="4" width="20" height="2" fill="#ffffff"/><rect y="8" width="20" height="2" fill="#ffffff"/><rect y="12" width="20" height="2" fill="#ffffff"/><rect y="16" width="20" height="2" fill="#ffffff"/></g><rect x="791.67" y="712.5" width="79.17" height="79.17" fill="#202020"/><polygon points="870.8399999999999,712.5 870.8399999999999,791.67 791.67,791.67" fill="#e9e9e9"/><rect x="870.83" y="712.5" width="79.17" height="79.17" fill="#373737"/><g transform="translate(870.83,712.5) scale(3.9585) rotate(0)"><rect width="20" height="2" fill="#464646"/><rect y="4" width="20" height="2" fill="#464646"/><rect y="8" width="20" height="2" fill="#464646"/><rect y="12" width="20" height="2" fill="#464646"/><rect y="16" width="20" height="2" fill="#464646"/></g><rect x="950" y="712.5" width="79.17" height="79.17" fill="#747474"/><path d="M 950 791.67 A 79.17 79.17 0 0 1  1029.17 712.5 L 950 791.67 A 79.17 79.17 0 0 0 1029.17 712.5" fill="#cfc6f2"/><rect x="1029.17" y="712.5" width="79.17" height="79.17" fill="#8b8b8b"/><polygon points="1029.17,712.5 1108.3400000000001,712.5 1029.17,791.67" fill="#b3b3b3"/><rect x="1108.33" y="712.5" width="79.17" height="79.17" fill="#faf9fe"/><path d="M 1108.33 791.67 A 79.17 79.17 0 0 1  1187.5 712.5 L 1108.33 791.67 A 79.17 79.17 0 0 0 1187.5 712.5" fill="#ffffff"/><rect x="1187.5" y="712.5" width="79.17" height="79.17" fill="#6d52d7"/><path d="M 1187.5 791.67 A 79.17 79.17 0 0 1  1266.67 712.5 L 1187.5 791.67 A 79.17 79.17 0 0 0 1266.67 712.5" fill="#baadec"/><rect x="1266.67" y="712.5" width="79.17" height="79.17" fill="#9b9b9b"/><path d="M 1266.67 791.67 A 79.17 79.17 0 0 1  1345.8400000000001 712.5 L 1266.67 791.67 A 79.17 79.17 0 0 0 1345.8400000000001 712.5" fill="#ffffff"/><rect x="0" y="791.67" width="79.17" height="79.17" fill="#ffffff"/><rect x="0" y="791.67" width="79.17" height="79.17" fill="#ffffff"/><rect x="79.17" y="791.67" width="79.17" height="79.17" fill="#b1b1b1"/><rect x="79.17" y="791.67" width="79.17" height="79.17" fill="#ffffff"/><rect x="158.33" y="791.67" width="79.17" height="79.17" fill="#717171"/><polygon points="158.33,791.67 237.5,870.8399999999999 158.33,870.8399999999999" fill="#7c63db"/><rect x="237.5" y="791.67" width="79.17" height="79.17" fill="#ffffff"/><rect x="237.5" y="791.67" width="79.17" height="79.17" fill="#cccccc"/><rect x="316.67" y="791.67" width="79.17" height="79.17" fill="#ffffff"/><path d="M 316.67 791.67 A 79.17 79.17 0 0 1  395.84000000000003 870.8399999999999 L 316.67 791.67 A 79.17 79.17 0 0 0 395.84000000000003 870.8399999999999" fill="#262626"/><rect x="395.83" y="791.67" width="79.17" height="79.17" fill="#ffffff"/><g transform="translate(395.83,791.67) scale(3.9585) rotate(0)"><rect width="20" height="2" fill="#ffffff"/><rect y="4" width="20" height="2" fill="#ffffff"/><rect y="8" width="20" height="2" fill="#ffffff"/><rect y="12" width="20" height="2" fill="#ffffff"/><rect y="16" width="20" height="2" fill="#ffffff"/></g><rect x="475" y="791.67" width="79.17" height="79.17" fill="#5a5a5a"/><path d="M 475 870.8399999999999 A 79.17 79.17 0 0 1  554.17 791.67 L 475 870.8399999999999 A 79.17 79.17 0 0 0 554.17 791.67" fill="#ffffff"/><rect x="554.17" y="791.67" width="79.17" height="79.17" fill="#dbd4f5"/><polygon points="554.17,791.67 633.3399999999999,870.8399999999999 554.17,870.8399999999999" fill="#ffffff"/><rect x="633.33" y="791.67" width="79.17" height="79.17" fill="#6a6a6a"/><polygon points="633.33,791.67 712.5,791.67 712.5,870.8399999999999" fill="#b8b8b8"/><rect x="712.5" y="791.67" width="79.17" height="79.17" fill="#6d52d7"/><path d="M 712.5 791.67 A 79.17 79.17 0 0 1  791.67 870.8399999999999 L 712.5 791.67 A 79.17 79.17 0 0 0 791.67 870.8399999999999" fill="#fcfcfc"/><rect x="791.67" y="791.67" width="79.17" height="79.17" fill="#3e3e3e"/><rect x="791.67" y="791.67" width="79.17" height="79.17" fill="#424242"/><rect x="870.83" y="791.67" width="79.17" height="79.17" fill="#7a61db"/><g transform="translate(870.83,791.67) scale(3.9585) rotate(0)"><rect width="20" height="2" fill="#525252"/><rect y="4" width="20" height="2" fill="#525252"/><rect y="8" width="20" height="2" fill="#525252"/><rect y="12" width="20" height="2" fill="#525252"/><rect y="16" width="20" height="2" fill="#525252"/></g><rect x="950" y="791.67" width="79.17" height="79.17" fill="#ffffff"/><path d="M 950 791.67 A 79.17 79.17 0 0 1  1029.17 870.8399999999999 L 950 791.67 A 79.17 79.17 0 0 0 1029.17 870.8399999999999" fill="#808080"/><rect x="1029.17" y="791.67" width="79.17" height="79.17" fill="#ffffff"/><rect x="1029.17" y="791.67" width="79.17" height="79.17" fill="#282828"/><rect x="1108.33" y="791.67" width="79.17" height="79.17" fill="#6b6b6b"/><rect x="1108.33" y="791.67" width="79.17" height="79.17" fill="#6a6a6a"/><rect x="1187.5" y="791.67" width="79.17" height="79.17" fill="#7a62db"/><rect x="1187.5" y="791.67" width="79.17" height="79.17" fill="#a5a5a5"/><rect x="1266.67" y="791.67" width="79.17" height="79.17" fill="#ffffff"/><rect x="1266.67" y="791.67" width="79.17" height="79.17" fill="#c6bbef"/><rect x="0" y="870.83" width="79.17" height="79.17" fill="#846ede"/><path d="M 0 870.83 A 79.17 79.17 0 0 1  79.17 950 L 0 870.83 A 79.17 79.17 0 0 0 79.17 950" fill="#d2c9f3"/><rect x="79.17" y="870.83" width="79.17" height="79.17" fill="#ffffff"/><g transform="translate(79.17,870.83) scale(3.9585) rotate(0)"><rect width="20" height="2" fill="#dfd9f6"/><rect y="4" width="20" height="2" fill="#dfd9f6"/><rect y="8" width="20" height="2" fill="#dfd9f6"/><rect y="12" width="20" height="2" fill="#dfd9f6"/><rect y="16" width="20" height="2" fill="#dfd9f6"/></g><rect x="158.33" y="870.83" width="79.17" height="79.17" fill="#ffffff"/><rect x="158.33" y="870.83" width="79.17" height="79.17" fill="#ffffff"/><rect x="237.5" y="870.83" width="79.17" height="79.17" fill="#9c9c9c"/><path d="M 237.5 950 A 79.17 79.17 0 0 1  316.67 870.83 L 237.5 950 A 79.17 79.17 0 0 0 316.67 870.83" fill="#937fe2"/><rect x="316.67" y="870.83" width="79.17" height="79.17" fill="#ffffff"/><path d="M 316.67 870.83 A 79.17 79.17 0 0 0 395.84000000000003 950 L 395.84000000000003 870.83L316.67 870.83" fill="#ffffff"/><rect x="395.83" y="870.83" width="79.17" height="79.17" fill="#ffffff"/><path d="M 395.83 870.83 A 79.17 79.17 0 0 1  475 950 L 395.83 870.83 A 79.17 79.17 0 0 0 475 950" fill="#ffffff"/><rect x="475" y="870.83" width="79.17" height="79.17" fill="#745bd9"/><path d="M 475 950 A 79.17 79.17 0 0 1  554.17 870.83 L 475 950 A 79.17 79.17 0 0 0 554.17 870.83" fill="#a696e7"/><rect x="554.17" y="870.83" width="79.17" height="79.17" fill="#ccc3f1"/><path d="M 554.17 950 A 79.17 79.17 0 0 1  633.3399999999999 870.83 L 633.3399999999999 950L554.17 950" fill="#ffffff"/><rect x="633.33" y="870.83" width="79.17" height="79.17" fill="#bdb1ed"/><path d="M 633.33 950 A 79.17 79.17 0 0 1  712.5 870.83 L 712.5 950L633.33 950" fill="#ffffff"/><rect x="712.5" y="870.83" width="79.17" height="79.17" fill="#cec4f2"/><rect x="712.5" y="870.83" width="79.17" height="79.17" fill="#ffffff"/><rect x="791.67" y="870.83" width="79.17" height="79.17" fill="#9b88e4"/><polygon points="791.67,870.83 870.8399999999999,870.83 870.8399999999999,950" fill="#8d78e0"/><rect x="870.83" y="870.83" width="79.17" height="79.17" fill="#e9e5f9"/><path d="M 870.83 870.83 A 79.17 79.17 0 0 1 950 950 L 870.83 950L870.83 870.83" fill="#f0edfb"/><rect x="950" y="870.83" width="79.17" height="79.17" fill="#cdcdcd"/><path d="M 950 950 A 79.17 79.17 0 0 1  1029.17 870.83 L 950 950 A 79.17 79.17 0 0 0 1029.17 870.83" fill="#ffffff"/><rect x="1029.17" y="870.83" width="79.17" height="79.17" fill="#b2b2b2"/><rect x="1029.17" y="870.83" width="79.17" height="79.17" fill="#ffffff"/><rect x="1108.33" y="870.83" width="79.17" height="79.17" fill="#6245d4"/><polygon points="1108.33,870.83 1187.5,870.83 1187.5,950" fill="#e9e5f9"/><rect x="1187.5" y="870.83" width="79.17" height="79.17" fill="#684cd6"/><g transform="translate(1187.5,870.83) scale(3.9585) rotate(0)"><rect width="20" height="2" fill="#ad9de9"/><rect y="4" width="20" height="2" fill="#ad9de9"/><rect y="8" width="20" height="2" fill="#ad9de9"/><rect y="12" width="20" height="2" fill="#ad9de9"/><rect y="16" width="20" height="2" fill="#ad9de9"/></g><rect x="1266.67" y="870.83" width="79.17" height="79.17" fill="#ffffff"/><path d="M 1266.67 950 A 79.17 79.17 0 0 1  1345.8400000000001 870.83 L 1345.8400000000001 950L1266.67 950" fill="#7d65dc"/></g></svg>