<?xml version="1.0" standalone="no"?><svg xmlns:xlink="http://www.w3.org/1999/xlink" xmlns="http://www.w3.org/2000/svg" viewBox="0 0 500 352.942050630466" preserveAspectRatio="xMaxYMax slice"><g transform="scale(0.37151794803206944)"><rect x="0" y="0" width="1345.8333333333335" height="950" fill="#ffffff"/><rect x="0" y="0" width="79.17" height="79.17" fill="#fdf4f6"/><polygon points="0,0 79.17,0 0,79.17" fill="#ffffff"/><rect x="79.17" y="0" width="79.17" height="79.17" fill="#f8d6dd"/><g transform="translate(79.17,0) scale(3.9585) rotate(0)"><rect width="20" height="2" fill="#e3e3e3"/><rect y="4" width="20" height="2" fill="#e3e3e3"/><rect y="8" width="20" height="2" fill="#e3e3e3"/><rect y="12" width="20" height="2" fill="#e3e3e3"/><rect y="16" width="20" height="2" fill="#e3e3e3"/></g><rect x="158.33" y="0" width="79.17" height="79.17" fill="#666666"/><rect x="158.33" y="0" width="79.17" height="79.17" fill="#b5b5b5"/><rect x="237.5" y="0" width="79.17" height="79.17" fill="#ededed"/><g transform="translate(237.5,0) scale(3.9585) rotate(0)"><rect width="20" height="2" fill="#8a8a8a"/><rect y="4" width="20" height="2" fill="#8a8a8a"/><rect y="8" width="20" height="2" fill="#8a8a8a"/><rect y="12" width="20" height="2" fill="#8a8a8a"/><rect y="16" width="20" height="2" fill="#8a8a8a"/></g><rect x="316.67" y="0" width="79.17" height="79.17" fill="#4f4f4f"/><polygon points="316.67,0 395.84000000000003,0 395.84000000000003,79.17" fill="#ea8b9e"/><rect x="395.83" y="0" width="79.17" height="79.17" fill="#dc3b5b"/><rect x="395.83" y="0" width="79.17" height="79.17" fill="#a4a4a4"/><rect x="475" y="0" width="79.17" height="79.17" fill="#bbbbbb"/><path d="M 475 0 A 79.17 79.17 0 0 0 554.17 79.17 L 554.17 0L475 0" fill="#ffffff"/><rect x="554.17" y="0" width="79.17" height="79.17" fill="#6e6e6e"/><rect x="554.17" y="0" width="79.17" height="79.17" fill="#ffffff"/><rect x="633.33" y="0" width="79.17" height="79.17" fill="#e7798f"/><rect x="633.33" y="0" width="79.17" height="79.17" fill="#393939"/><rect x="712.5" y="0" width="79.17" height="79.17" fill="#ffffff"/><polygon points="712.5,0 791.67,79.17 712.5,79.17" fill="#eb8ea0"/><rect x="791.67" y="0" width="79.17" height="79.17" fill="#313131"/><rect x="791.67" y="0" width="79.17" height="79.17" fill="#f9dbe1"/><rect x="870.83" y="0" width="79.17" height="79.17" fill="#d72246"/><g transform="translate(870.83,0) scale(3.9585) rotate(0)"><rect width="20" height="2" fill="#ec95a6"/><rect y="4" width="20" height="2" fill="#ec95a6"/><rect y="8" width="20" height="2" fill="#ec95a6"/><rect y="12" width="20" height="2" fill="#ec95a6"/><rect y="16" width="20" height="2" fill="#ec95a6"/></g><rect x="950" y="0" width="79.17" height="79.17" fill="#ffffff"/><g transform="translate(950,0) scale(3.9585) rotate(0)"><rect width="20" height="2" fill="#808080"/><rect y="4" width="20" height="2" fill="#808080"/><rect y="8" width="20" height="2" fill="#808080"/><rect y="12" width="20" height="2" fill="#808080"/><rect y="16" width="20" height="2" fill="#808080"/></g><rect x="1029.17" y="0" width="79.17" height="79.17" fill="#e9e9e9"/><path d="M 1029.17 0 A 79.17 79.17 0 0 1  1108.3400000000001 79.17 L 1029.17 0 A 79.17 79.17 0 0 0 1108.3400000000001 79.17" fill="#aeaeae"/><rect x="1108.33" y="0" width="79.17" height="79.17" fill="#d40d35"/><path d="M 1108.33 0 A 79.17 79.17 0 0 1  1187.5 79.17 L 1108.33 0 A 79.17 79.17 0 0 0 1187.5 79.17" fill="#808080"/><rect x="1187.5" y="0" width="79.17" height="79.17" fill="#ea8b9e"/><path d="M 1187.5 0 A 79.17 79.17 0 0 1  1266.67 79.17 L 1187.5 0 A 79.17 79.17 0 0 0 1266.67 79.17" fill="#ffffff"/><rect x="1266.67" y="0" width="79.17" height="79.17" fill="#a4a4a4"/><rect x="1266.67" y="0" width="79.17" height="79.17" fill="#7c7c7c"/><rect x="0" y="79.17" width="79.17" height="79.17" fill="#797979"/><path d="M 0 158.34 A 79.17 79.17 0 0 1  79.17 79.17 L 0 158.34 A 79.17 79.17 0 0 0 79.17 79.17" fill="#b5b5b5"/><rect x="79.17" y="79.17" width="79.17" height="79.17" fill="#747474"/><polygon points="79.17,79.17 158.34,158.34 79.17,158.34" fill="#fceff2"/><rect x="158.33" y="79.17" width="79.17" height="79.17" fill="#ffffff"/><path d="M 158.33 158.34 A 79.17 79.17 0 0 1  237.5 79.17 L 158.33 158.34 A 79.17 79.17 0 0 0 237.5 79.17" fill="#ffffff"/><rect x="237.5" y="79.17" width="79.17" height="79.17" fill="#d92d50"/><rect x="237.5" y="79.17" width="79.17" height="79.17" fill="#ffffff"/><rect x="316.67" y="79.17" width="79.17" height="79.17" fill="#ffffff"/><g transform="translate(316.67,79.17) scale(3.9585) rotate(0)"><rect width="20" height="2" fill="#202020"/><rect y="4" width="20" height="2" fill="#202020"/><rect y="8" width="20" height="2" fill="#202020"/><rect y="12" width="20" height="2" fill="#202020"/><rect y="16" width="20" height="2" fill="#202020"/></g><rect x="395.83" y="79.17" width="79.17" height="79.17" fill="#ffffff"/><path d="M 395.83 79.17 A 79.17 79.17 0 0 1  475 158.34 L 395.83 79.17 A 79.17 79.17 0 0 0 475 158.34" fill="#ec93a5"/><rect x="475" y="79.17" width="79.17" height="79.17" fill="#dd4462"/><path d="M 475 79.17 A 79.17 79.17 0 0 1  554.17 158.34 L 475 79.17 A 79.17 79.17 0 0 0 554.17 158.34" fill="#ffffff"/><rect x="554.17" y="79.17" width="79.17" height="79.17" fill="#ffffff"/><path d="M 554.17 158.34 A 79.17 79.17 0 0 1  633.3399999999999 79.17 L 554.17 158.34 A 79.17 79.17 0 0 0 633.3399999999999 79.17" fill="#eeeeee"/><rect x="633.33" y="79.17" width="79.17" height="79.17" fill="#606060"/><rect x="633.33" y="79.17" width="79.17" height="79.17" fill="#f2b6c2"/><rect x="712.5" y="79.17" width="79.17" height="79.17" fill="#8e8e8e"/><g transform="translate(712.5,79.17) scale(3.9585) rotate(0)"><rect width="20" height="2" fill="#eea0b0"/><rect y="4" width="20" height="2" fill="#eea0b0"/><rect y="8" width="20" height="2" fill="#eea0b0"/><rect y="12" width="20" height="2" fill="#eea0b0"/><rect y="16" width="20" height="2" fill="#eea0b0"/></g><rect x="791.67" y="79.17" width="79.17" height="79.17" fill="#acacac"/><polygon points="791.67,79.17 870.8399999999999,79.17 870.8399999999999,158.34" fill="#ffffff"/><rect x="870.83" y="79.17" width="79.17" height="79.17" fill="#b1b1b1"/><polygon points="870.83,79.17 950,158.34 870.83,158.34" fill="#6c6c6c"/><rect x="950" y="79.17" width="79.17" height="79.17" fill="#ffffff"/><rect x="950" y="79.17" width="79.17" height="79.17" fill="#d40d34"/><rect x="1029.17" y="79.17" width="79.17" height="79.17" fill="#cdcdcd"/><path d="M 1029.17 158.34 A 79.17 79.17 0 0 1  1108.3400000000001 79.17 L 1029.17 158.34 A 79.17 79.17 0 0 0 1108.3400000000001 79.17" fill="#ffffff"/><rect x="1108.33" y="79.17" width="79.17" height="79.17" fill="#4f4f4f"/><path d="M 1108.33 79.17 A 79.17 79.17 0 0 1  1187.5 158.34 L 1108.33 79.17 A 79.17 79.17 0 0 0 1187.5 158.34" fill="#d72044"/><rect x="1187.5" y="79.17" width="79.17" height="79.17" fill="#ffffff"/><polygon points="1266.67,79.17 1266.67,158.34 1187.5,158.34" fill="#f2f2f2"/><rect x="1266.67" y="79.17" width="79.17" height="79.17" fill="#ffffff"/><g transform="translate(1266.67,79.17) scale(3.9585) rotate(0)"><rect width="20" height="2" fill="#f4c1cb"/><rect y="4" width="20" height="2" fill="#f4c1cb"/><rect y="8" width="20" height="2" fill="#f4c1cb"/><rect y="12" width="20" height="2" fill="#f4c1cb"/><rect y="16" width="20" height="2" fill="#f4c1cb"/></g><rect x="0" y="158.33" width="79.17" height="79.17" fill="#ffffff"/><path d="M 0 158.33 A 79.17 79.17 0 0 1  79.17 237.5 L 0 158.33 A 79.17 79.17 0 0 0 79.17 237.5" fill="#ffffff"/><rect x="79.17" y="158.33" width="79.17" height="79.17" fill="#e0506d"/><rect x="79.17" y="158.33" width="79.17" height="79.17" fill="#f6f6f6"/><rect x="158.33" y="158.33" width="79.17" height="79.17" fill="#d82347"/><path d="M 158.33 237.5 A 79.17 79.17 0 0 1  237.5 158.33 L 158.33 237.5 A 79.17 79.17 0 0 0 237.5 158.33" fill="#3c3c3c"/><rect x="237.5" y="158.33" width="79.17" height="79.17" fill="#2c2c2c"/><rect x="237.5" y="158.33" width="79.17" height="79.17" fill="#1b1b1b"/><rect x="316.67" y="158.33" width="79.17" height="79.17" fill="#ffffff"/><path d="M 316.67 237.5 A 79.17 79.17 0 0 1  395.84000000000003 158.33 L 316.67 237.5 A 79.17 79.17 0 0 0 395.84000000000003 158.33" fill="#ffffff"/><rect x="395.83" y="158.33" width="79.17" height="79.17" fill="#db3858"/><path d="M 395.83 158.33 A 79.17 79.17 0 0 1  475 237.5 L 395.83 158.33 A 79.17 79.17 0 0 0 475 237.5" fill="#a4a4a4"/><rect x="475" y="158.33" width="79.17" height="79.17" fill="#5a5a5a"/><rect x="475" y="158.33" width="79.17" height="79.17" fill="#ffffff"/><rect x="554.17" y="158.33" width="79.17" height="79.17" fill="#a7a7a7"/><rect x="554.17" y="158.33" width="79.17" height="79.17" fill="#f2b6c2"/><rect x="633.33" y="158.33" width="79.17" height="79.17" fill="#e6738a"/><path d="M 633.33 237.5 A 79.17 79.17 0 0 1  712.5 158.33 L 633.33 237.5 A 79.17 79.17 0 0 0 712.5 158.33" fill="#ffffff"/><rect x="712.5" y="158.33" width="79.17" height="79.17" fill="#222222"/><g transform="translate(712.5,158.33) scale(3.9585) rotate(0)"><rect width="20" height="2" fill="#fbe8ec"/><rect y="4" width="20" height="2" fill="#fbe8ec"/><rect y="8" width="20" height="2" fill="#fbe8ec"/><rect y="12" width="20" height="2" fill="#fbe8ec"/><rect y="16" width="20" height="2" fill="#fbe8ec"/></g><rect x="791.67" y="158.33" width="79.17" height="79.17" fill="#ffffff"/><g transform="translate(791.67,158.33) scale(3.9585) rotate(0)"><rect width="20" height="2" fill="#d30831"/><rect y="4" width="20" height="2" fill="#d30831"/><rect y="8" width="20" height="2" fill="#d30831"/><rect y="12" width="20" height="2" fill="#d30831"/><rect y="16" width="20" height="2" fill="#d30831"/></g><rect x="870.83" y="158.33" width="79.17" height="79.17" fill="#ffffff"/><polygon points="870.83,158.33 950,237.5 870.83,237.5" fill="#d71e43"/><rect x="950" y="158.33" width="79.17" height="79.17" fill="#fef9fa"/><rect x="950" y="158.33" width="79.17" height="79.17" fill="#f2f2f2"/><rect x="1029.17" y="158.33" width="79.17" height="79.17" fill="#d71e43"/><g transform="translate(1029.17,158.33) scale(3.9585) rotate(0)"><rect width="20" height="2" fill="#fefafa"/><rect y="4" width="20" height="2" fill="#fefafa"/><rect y="8" width="20" height="2" fill="#fefafa"/><rect y="12" width="20" height="2" fill="#fefafa"/><rect y="16" width="20" height="2" fill="#fefafa"/></g><rect x="1108.33" y="158.33" width="79.17" height="79.17" fill="#dc3b5b"/><rect x="1108.33" y="158.33" width="79.17" height="79.17" fill="#191919"/><rect x="1187.5" y="158.33" width="79.17" height="79.17" fill="#ffffff"/><rect x="1187.5" y="158.33" width="79.17" height="79.17" fill="#d92d50"/><rect x="1266.67" y="158.33" width="79.17" height="79.17" fill="#ffffff"/><g transform="translate(1266.67,158.33) scale(3.9585) rotate(0)"><rect width="20" height="2" fill="#ffffff"/><rect y="4" width="20" height="2" fill="#ffffff"/><rect y="8" width="20" height="2" fill="#ffffff"/><rect y="12" width="20" height="2" fill="#ffffff"/><rect y="16" width="20" height="2" fill="#ffffff"/></g><rect x="0" y="237.5" width="79.17" height="79.17" fill="#b0b0b0"/><polygon points="0,237.5 79.17,237.5 0,316.67" fill="#f8d7de"/><rect x="79.17" y="237.5" width="79.17" height="79.17" fill="#808080"/><g transform="translate(79.17,237.5) scale(3.9585) rotate(0)"><rect width="20" height="2" fill="#ffffff"/><rect y="4" width="20" height="2" fill="#ffffff"/><rect y="8" width="20" height="2" fill="#ffffff"/><rect y="12" width="20" height="2" fill="#ffffff"/><rect y="16" width="20" height="2" fill="#ffffff"/></g><rect x="158.33" y="237.5" width="79.17" height="79.17" fill="#ffffff"/><path d="M 158.33 237.5 A 79.17 79.17 0 0 1  237.5 316.67 L 158.33 237.5 A 79.17 79.17 0 0 0 237.5 316.67" fill="#cdcdcd"/><rect x="237.5" y="237.5" width="79.17" height="79.17" fill="#fae1e6"/><path d="M 237.5 237.5 A 79.17 79.17 0 0 1  316.67 316.67 L 237.5 237.5 A 79.17 79.17 0 0 0 316.67 316.67" fill="#454545"/><rect x="316.67" y="237.5" width="79.17" height="79.17" fill="#ffffff"/><path d="M 316.67 316.67 A 79.17 79.17 0 0 1  395.84000000000003 237.5 L 316.67 316.67 A 79.17 79.17 0 0 0 395.84000000000003 237.5" fill="#ffffff"/><rect x="395.83" y="237.5" width="79.17" height="79.17" fill="#f1f1f1"/><polygon points="475,237.5 475,316.67 395.83,316.67" fill="#606060"/><rect x="475" y="237.5" width="79.17" height="79.17" fill="#252525"/><path d="M 475 237.5 A 79.17 79.17 0 0 1 554.17 316.67 L 475 316.67L475 237.5" fill="#f3bdc7"/><rect x="554.17" y="237.5" width="79.17" height="79.17" fill="#797979"/><g transform="translate(554.17,237.5) scale(3.9585) rotate(0)"><rect width="20" height="2" fill="#3f3f3f"/><rect y="4" width="20" height="2" fill="#3f3f3f"/><rect y="8" width="20" height="2" fill="#3f3f3f"/><rect y="12" width="20" height="2" fill="#3f3f3f"/><rect y="16" width="20" height="2" fill="#3f3f3f"/></g><rect x="633.33" y="237.5" width="79.17" height="79.17" fill="#e3637d"/><rect x="633.33" y="237.5" width="79.17" height="79.17" fill="#ffffff"/><rect x="712.5" y="237.5" width="79.17" height="79.17" fill="#e57087"/><path d="M 712.5 237.5 A 79.17 79.17 0 0 1  791.67 316.67 L 712.5 237.5 A 79.17 79.17 0 0 0 791.67 316.67" fill="#f7d2da"/><rect x="791.67" y="237.5" width="79.17" height="79.17" fill="#e15672"/><path d="M 791.67 237.5 A 79.17 79.17 0 0 1  870.8399999999999 316.67 L 791.67 237.5 A 79.17 79.17 0 0 0 870.8399999999999 316.67" fill="#999999"/><rect x="870.83" y="237.5" width="79.17" height="79.17" fill="#ffffff"/><g transform="translate(870.83,237.5) scale(3.9585) rotate(0)"><rect width="20" height="2" fill="#ffffff"/><rect y="4" width="20" height="2" fill="#ffffff"/><rect y="8" width="20" height="2" fill="#ffffff"/><rect y="12" width="20" height="2" fill="#ffffff"/><rect y="16" width="20" height="2" fill="#ffffff"/></g><rect x="950" y="237.5" width="79.17" height="79.17" fill="#d40d34"/><g transform="translate(950,237.5) scale(3.9585) rotate(0)"><rect width="20" height="2" fill="#a6a6a6"/><rect y="4" width="20" height="2" fill="#a6a6a6"/><rect y="8" width="20" height="2" fill="#a6a6a6"/><rect y="12" width="20" height="2" fill="#a6a6a6"/><rect y="16" width="20" height="2" fill="#a6a6a6"/></g><rect x="1029.17" y="237.5" width="79.17" height="79.17" fill="#3e3e3e"/><polygon points="1029.17,237.5 1108.3400000000001,237.5 1029.17,316.67" fill="#ffffff"/><rect x="1108.33" y="237.5" width="79.17" height="79.17" fill="#bcbcbc"/><path d="M 1108.33 237.5 A 79.17 79.17 0 0 1 1187.5 316.67 L 1108.33 316.67L1108.33 237.5" fill="#939393"/><rect x="1187.5" y="237.5" width="79.17" height="79.17" fill="#fdf5f7"/><polygon points="1187.5,237.5 1266.67,316.67 1187.5,316.67" fill="#ffffff"/><rect x="1266.67" y="237.5" width="79.17" height="79.17" fill="#de4563"/><polygon points="1266.67,237.5 1345.8400000000001,316.67 1266.67,316.67" fill="#ffffff"/><rect x="0" y="316.67" width="79.17" height="79.17" fill="#ffffff"/><rect x="0" y="316.67" width="79.17" height="79.17" fill="#ffffff"/><rect x="79.17" y="316.67" width="79.17" height="79.17" fill="#ffffff"/><polygon points="158.34,316.67 158.34,395.84000000000003 79.17,395.84000000000003" fill="#dc3c5c"/><rect x="158.33" y="316.67" width="79.17" height="79.17" fill="#da2f51"/><rect x="158.33" y="316.67" width="79.17" height="79.17" fill="#ffffff"/><rect x="237.5" y="316.67" width="79.17" height="79.17" fill="#eb91a3"/><g transform="translate(237.5,316.67) scale(3.9585) rotate(0)"><rect width="20" height="2" fill="#f0acba"/><rect y="4" width="20" height="2" fill="#f0acba"/><rect y="8" width="20" height="2" fill="#f0acba"/><rect y="12" width="20" height="2" fill="#f0acba"/><rect y="16" width="20" height="2" fill="#f0acba"/></g><rect x="316.67" y="316.67" width="79.17" height="79.17" fill="#dc3d5d"/><g transform="translate(316.67,316.67) scale(3.9585) rotate(0)"><rect width="20" height="2" fill="#686868"/><rect y="4" width="20" height="2" fill="#686868"/><rect y="8" width="20" height="2" fill="#686868"/><rect y="12" width="20" height="2" fill="#686868"/><rect y="16" width="20" height="2" fill="#686868"/></g><rect x="395.83" y="316.67" width="79.17" height="79.17" fill="#ffffff"/><rect x="395.83" y="316.67" width="79.17" height="79.17" fill="#767676"/><rect x="475" y="316.67" width="79.17" height="79.17" fill="#dd4362"/><path d="M 475 316.67 A 79.17 79.17 0 0 1  554.17 395.84000000000003 L 475 316.67 A 79.17 79.17 0 0 0 554.17 395.84000000000003" fill="#ffffff"/><rect x="554.17" y="316.67" width="79.17" height="79.17" fill="#d92c4f"/><path d="M 554.17 316.67 A 79.17 79.17 0 0 1  633.3399999999999 395.84000000000003 L 554.17 316.67 A 79.17 79.17 0 0 0 633.3399999999999 395.84000000000003" fill="#ffffff"/><rect x="633.33" y="316.67" width="79.17" height="79.17" fill="#e9869a"/><g transform="translate(633.33,316.67) scale(3.9585) rotate(0)"><rect width="20" height="2" fill="#db3758"/><rect y="4" width="20" height="2" fill="#db3758"/><rect y="8" width="20" height="2" fill="#db3758"/><rect y="12" width="20" height="2" fill="#db3758"/><rect y="16" width="20" height="2" fill="#db3758"/></g><rect x="712.5" y="316.67" width="79.17" height="79.17" fill="#fae1e6"/><g transform="translate(712.5,316.67) scale(3.9585) rotate(0)"><rect width="20" height="2" fill="#181818"/><rect y="4" width="20" height="2" fill="#181818"/><rect y="8" width="20" height="2" fill="#181818"/><rect y="12" width="20" height="2" fill="#181818"/><rect y="16" width="20" height="2" fill="#181818"/></g><rect x="791.67" y="316.67" width="79.17" height="79.17" fill="#ed9aaa"/><g transform="translate(791.67,316.67) scale(3.9585) rotate(0)"><rect width="20" height="2" fill="#f7d0d7"/><rect y="4" width="20" height="2" fill="#f7d0d7"/><rect y="8" width="20" height="2" fill="#f7d0d7"/><rect y="12" width="20" height="2" fill="#f7d0d7"/><rect y="16" width="20" height="2" fill="#f7d0d7"/></g><rect x="870.83" y="316.67" width="79.17" height="79.17" fill="#ffffff"/><rect x="870.83" y="316.67" width="79.17" height="79.17" fill="#2d2d2d"/><rect x="950" y="316.67" width="79.17" height="79.17" fill="#8f8f8f"/><polygon points="950,316.67 1029.17,395.84000000000003 950,395.84000000000003" fill="#f2b5c1"/><rect x="1029.17" y="316.67" width="79.17" height="79.17" fill="#e7788e"/><path d="M 1029.17 316.67 A 79.17 79.17 0 0 1  1108.3400000000001 395.84000000000003 L 1029.17 316.67 A 79.17 79.17 0 0 0 1108.3400000000001 395.84000000000003" fill="#989898"/><rect x="1108.33" y="316.67" width="79.17" height="79.17" fill="#6a6a6a"/><rect x="1108.33" y="316.67" width="79.17" height="79.17" fill="#ffffff"/><rect x="1187.5" y="316.67" width="79.17" height="79.17" fill="#ffffff"/><path d="M 1187.5 395.84000000000003 A 79.17 79.17 0 0 1  1266.67 316.67 L 1266.67 395.84000000000003L1187.5 395.84000000000003" fill="#ffffff"/><rect x="1266.67" y="316.67" width="79.17" height="79.17" fill="#df4e6b"/><polygon points="1266.67,316.67 1345.8400000000001,395.84000000000003 1266.67,395.84000000000003" fill="#d2062e"/><rect x="0" y="395.83" width="79.17" height="79.17" fill="#e3607a"/><g transform="translate(0,395.83) scale(3.9585) rotate(0)"><rect width="20" height="2" fill="#f5cad2"/><rect y="4" width="20" height="2" fill="#f5cad2"/><rect y="8" width="20" height="2" fill="#f5cad2"/><rect y="12" width="20" height="2" fill="#f5cad2"/><rect y="16" width="20" height="2" fill="#f5cad2"/></g><rect x="79.17" y="395.83" width="79.17" height="79.17" fill="#8a8a8a"/><path d="M 79.17 475 A 79.17 79.17 0 0 0 158.34 395.83 L 79.17 395.83L79.17 475" fill="#808080"/><rect x="158.33" y="395.83" width="79.17" height="79.17" fill="#ffffff"/><rect x="158.33" y="395.83" width="79.17" height="79.17" fill="#ffffff"/><rect x="237.5" y="395.83" width="79.17" height="79.17" fill="#ffffff"/><polygon points="237.5,395.83 316.67,395.83 237.5,475" fill="#ffffff"/><rect x="316.67" y="395.83" width="79.17" height="79.17" fill="#f3bcc7"/><path d="M 316.67 395.83 A 79.17 79.17 0 0 0 395.84000000000003 475 L 395.84000000000003 395.83L316.67 395.83" fill="#e15571"/><rect x="395.83" y="395.83" width="79.17" height="79.17" fill="#787878"/><polygon points="395.83,395.83 475,475 395.83,475" fill="#ffffff"/><rect x="475" y="395.83" width="79.17" height="79.17" fill="#f3bec9"/><path d="M 475 395.83 A 79.17 79.17 0 0 1  554.17 475 L 475 395.83 A 79.17 79.17 0 0 0 554.17 475" fill="#f7d5dc"/><rect x="554.17" y="395.83" width="79.17" height="79.17" fill="#e3647d"/><rect x="554.17" y="395.83" width="79.17" height="79.17" fill="#555555"/><rect x="633.33" y="395.83" width="79.17" height="79.17" fill="#efa5b4"/><rect x="633.33" y="395.83" width="79.17" height="79.17" fill="#666666"/><rect x="712.5" y="395.83" width="79.17" height="79.17" fill="#efa5b4"/><rect x="712.5" y="395.83" width="79.17" height="79.17" fill="#d92d4f"/><rect x="791.67" y="395.83" width="79.17" height="79.17" fill="#343434"/><polygon points="791.67,395.83 870.8399999999999,395.83 870.8399999999999,475" fill="#f5f5f5"/><rect x="870.83" y="395.83" width="79.17" height="79.17" fill="#da3253"/><path d="M 870.83 475 A 79.17 79.17 0 0 1  950 395.83 L 870.83 475 A 79.17 79.17 0 0 0 950 395.83" fill="#ffffff"/><rect x="950" y="395.83" width="79.17" height="79.17" fill="#fdf6f8"/><path d="M 950 475 A 79.17 79.17 0 0 0 1029.17 395.83 L 950 395.83L950 475" fill="#fae4e8"/><rect x="1029.17" y="395.83" width="79.17" height="79.17" fill="#eb8da0"/><rect x="1029.17" y="395.83" width="79.17" height="79.17" fill="#ffffff"/><rect x="1108.33" y="395.83" width="79.17" height="79.17" fill="#f1afbc"/><rect x="1108.33" y="395.83" width="79.17" height="79.17" fill="#f8dae0"/><rect x="1187.5" y="395.83" width="79.17" height="79.17" fill="#b2b2b2"/><polygon points="1187.5,395.83 1266.67,395.83 1266.67,475" fill="#424242"/><rect x="1266.67" y="395.83" width="79.17" height="79.17" fill="#4c4c4c"/><g transform="translate(1266.67,395.83) scale(3.9585) rotate(0)"><rect width="20" height="2" fill="#df4d6a"/><rect y="4" width="20" height="2" fill="#df4d6a"/><rect y="8" width="20" height="2" fill="#df4d6a"/><rect y="12" width="20" height="2" fill="#df4d6a"/><rect y="16" width="20" height="2" fill="#df4d6a"/></g><rect x="0" y="475" width="79.17" height="79.17" fill="#ffffff"/><path d="M 0 554.17 A 79.17 79.17 0 0 1  79.17 475 L 0 554.17 A 79.17 79.17 0 0 0 79.17 475" fill="#ffffff"/><rect x="79.17" y="475" width="79.17" height="79.17" fill="#393939"/><rect x="79.17" y="475" width="79.17" height="79.17" fill="#efa8b6"/><rect x="158.33" y="475" width="79.17" height="79.17" fill="#ffffff"/><path d="M 158.33 554.17 A 79.17 79.17 0 0 1  237.5 475 L 158.33 554.17 A 79.17 79.17 0 0 0 237.5 475" fill="#c4c4c4"/><rect x="237.5" y="475" width="79.17" height="79.17" fill="#333333"/><path d="M 237.5 554.17 A 79.17 79.17 0 0 1  316.67 475 L 237.5 554.17 A 79.17 79.17 0 0 0 316.67 475" fill="#e6748b"/><rect x="316.67" y="475" width="79.17" height="79.17" fill="#ffffff"/><path d="M 316.67 554.17 A 79.17 79.17 0 0 1  395.84000000000003 475 L 316.67 554.17 A 79.17 79.17 0 0 0 395.84000000000003 475" fill="#969696"/><rect x="395.83" y="475" width="79.17" height="79.17" fill="#ffffff"/><rect x="395.83" y="475" width="79.17" height="79.17" fill="#ffffff"/><rect x="475" y="475" width="79.17" height="79.17" fill="#ffffff"/><path d="M 475 554.17 A 79.17 79.17 0 0 0 554.17 475 L 475 475L475 554.17" fill="#cfcfcf"/><rect x="554.17" y="475" width="79.17" height="79.17" fill="#df4b69"/><polygon points="633.3399999999999,475 633.3399999999999,554.17 554.17,554.17" fill="#eb90a2"/><rect x="633.33" y="475" width="79.17" height="79.17" fill="#ffffff"/><path d="M 633.33 554.17 A 79.17 79.17 0 0 1  712.5 475 L 633.33 554.17 A 79.17 79.17 0 0 0 712.5 475" fill="#dddddd"/><rect x="712.5" y="475" width="79.17" height="79.17" fill="#f8d6dd"/><path d="M 712.5 554.17 A 79.17 79.17 0 0 1  791.67 475 L 712.5 554.17 A 79.17 79.17 0 0 0 791.67 475" fill="#f8d8df"/><rect x="791.67" y="475" width="79.17" height="79.17" fill="#d72045"/><path d="M 791.67 554.17 A 79.17 79.17 0 0 1  870.8399999999999 475 L 870.8399999999999 554.17L791.67 554.17" fill="#f1b1bd"/><rect x="870.83" y="475" width="79.17" height="79.17" fill="#ffffff"/><g transform="translate(870.83,475) scale(3.9585) rotate(0)"><rect width="20" height="2" fill="#ffffff"/><rect y="4" width="20" height="2" fill="#ffffff"/><rect y="8" width="20" height="2" fill="#ffffff"/><rect y="12" width="20" height="2" fill="#ffffff"/><rect y="16" width="20" height="2" fill="#ffffff"/></g><rect x="950" y="475" width="79.17" height="79.17" fill="#989898"/><path d="M 950 475 A 79.17 79.17 0 0 1  1029.17 554.17 L 950 475 A 79.17 79.17 0 0 0 1029.17 554.17" fill="#ffffff"/><rect x="1029.17" y="475" width="79.17" height="79.17" fill="#fcf0f3"/><g transform="translate(1029.17,475) scale(3.9585) rotate(0)"><rect width="20" height="2" fill="#fae3e8"/><rect y="4" width="20" height="2" fill="#fae3e8"/><rect y="8" width="20" height="2" fill="#fae3e8"/><rect y="12" width="20" height="2" fill="#fae3e8"/><rect y="16" width="20" height="2" fill="#fae3e8"/></g><rect x="1108.33" y="475" width="79.17" height="79.17" fill="#808080"/><rect x="1108.33" y="475" width="79.17" height="79.17" fill="#959595"/><rect x="1187.5" y="475" width="79.17" height="79.17" fill="#ffffff"/><path d="M 1187.5 475 A 79.17 79.17 0 0 0 1266.67 554.17 L 1266.67 475L1187.5 475" fill="#797979"/><rect x="1266.67" y="475" width="79.17" height="79.17" fill="#a6a6a6"/><polygon points="1266.67,475 1345.8400000000001,475 1266.67,554.17" fill="#b0b0b0"/><rect x="0" y="554.17" width="79.17" height="79.17" fill="#999999"/><path d="M 0 554.17 A 79.17 79.17 0 0 0 79.17 633.3399999999999 L 79.17 554.17L0 554.17" fill="#ffffff"/><rect x="79.17" y="554.17" width="79.17" height="79.17" fill="#ffffff"/><g transform="translate(79.17,554.17) scale(3.9585) rotate(0)"><rect width="20" height="2" fill="#ffffff"/><rect y="4" width="20" height="2" fill="#ffffff"/><rect y="8" width="20" height="2" fill="#ffffff"/><rect y="12" width="20" height="2" fill="#ffffff"/><rect y="16" width="20" height="2" fill="#ffffff"/></g><rect x="158.33" y="554.17" width="79.17" height="79.17" fill="#db3455"/><path d="M 158.33 554.17 A 79.17 79.17 0 0 1  237.5 633.3399999999999 L 158.33 554.17 A 79.17 79.17 0 0 0 237.5 633.3399999999999" fill="#ffffff"/><rect x="237.5" y="554.17" width="79.17" height="79.17" fill="#e6768c"/><path d="M 237.5 554.17 A 79.17 79.17 0 0 1 316.67 633.3399999999999 L 237.5 633.3399999999999L237.5 554.17" fill="#fbebee"/><rect x="316.67" y="554.17" width="79.17" height="79.17" fill="#d2052e"/><path d="M 316.67 633.3399999999999 A 79.17 79.17 0 0 1  395.84000000000003 554.17 L 395.84000000000003 633.3399999999999L316.67 633.3399999999999" fill="#eb91a3"/><rect x="395.83" y="554.17" width="79.17" height="79.17" fill="#fae6ea"/><rect x="395.83" y="554.17" width="79.17" height="79.17" fill="#ffffff"/><rect x="475" y="554.17" width="79.17" height="79.17" fill="#f0f0f0"/><path d="M 475 633.3399999999999 A 79.17 79.17 0 0 1  554.17 554.17 L 475 633.3399999999999 A 79.17 79.17 0 0 0 554.17 554.17" fill="#d30830"/><rect x="554.17" y="554.17" width="79.17" height="79.17" fill="#ffffff"/><g transform="translate(554.17,554.17) scale(3.9585) rotate(0)"><rect width="20" height="2" fill="#f8d8de"/><rect y="4" width="20" height="2" fill="#f8d8de"/><rect y="8" width="20" height="2" fill="#f8d8de"/><rect y="12" width="20" height="2" fill="#f8d8de"/><rect y="16" width="20" height="2" fill="#f8d8de"/></g><rect x="633.33" y="554.17" width="79.17" height="79.17" fill="#ffffff"/><polygon points="633.33,554.17 712.5,633.3399999999999 633.33,633.3399999999999" fill="#acacac"/><rect x="712.5" y="554.17" width="79.17" height="79.17" fill="#de4765"/><polygon points="712.5,554.17 791.67,633.3399999999999 712.5,633.3399999999999" fill="#ffffff"/><rect x="791.67" y="554.17" width="79.17" height="79.17" fill="#707070"/><polygon points="791.67,554.17 870.8399999999999,554.17 791.67,633.3399999999999" fill="#d71d42"/><rect x="870.83" y="554.17" width="79.17" height="79.17" fill="#ffffff"/><rect x="870.83" y="554.17" width="79.17" height="79.17" fill="#575757"/><rect x="950" y="554.17" width="79.17" height="79.17" fill="#303030"/><path d="M 950 633.3399999999999 A 79.17 79.17 0 0 0 1029.17 554.17 L 950 554.17L950 633.3399999999999" fill="#ffffff"/><rect x="1029.17" y="554.17" width="79.17" height="79.17" fill="#ffffff"/><g transform="translate(1029.17,554.17) scale(3.9585) rotate(0)"><rect width="20" height="2" fill="#ffffff"/><rect y="4" width="20" height="2" fill="#ffffff"/><rect y="8" width="20" height="2" fill="#ffffff"/><rect y="12" width="20" height="2" fill="#ffffff"/><rect y="16" width="20" height="2" fill="#ffffff"/></g><rect x="1108.33" y="554.17" width="79.17" height="79.17" fill="#ffffff"/><path d="M 1108.33 633.3399999999999 A 79.17 79.17 0 0 1  1187.5 554.17 L 1108.33 633.3399999999999 A 79.17 79.17 0 0 0 1187.5 554.17" fill="#eb8ea0"/><rect x="1187.5" y="554.17" width="79.17" height="79.17" fill="#db3656"/><rect x="1187.5" y="554.17" width="79.17" height="79.17" fill="#959595"/><rect x="1266.67" y="554.17" width="79.17" height="79.17" fill="#fcf0f3"/><path d="M 1266.67 633.3399999999999 A 79.17 79.17 0 0 1  1345.8400000000001 554.17 L 1266.67 633.3399999999999 A 79.17 79.17 0 0 0 1345.8400000000001 554.17" fill="#f4c1cb"/><rect x="0" y="633.33" width="79.17" height="79.17" fill="#fcf0f2"/><path d="M 0 633.33 A 79.17 79.17 0 0 1  79.17 712.5 L 0 633.33 A 79.17 79.17 0 0 0 79.17 712.5" fill="#272727"/><rect x="79.17" y="633.33" width="79.17" height="79.17" fill="#fdf3f5"/><path d="M 79.17 712.5 A 79.17 79.17 0 0 1  158.34 633.33 L 79.17 712.5 A 79.17 79.17 0 0 0 158.34 633.33" fill="#616161"/><rect x="158.33" y="633.33" width="79.17" height="79.17" fill="#e67389"/><g transform="translate(158.33,633.33) scale(3.9585) rotate(0)"><rect width="20" height="2" fill="#ffffff"/><rect y="4" width="20" height="2" fill="#ffffff"/><rect y="8" width="20" height="2" fill="#ffffff"/><rect y="12" width="20" height="2" fill="#ffffff"/><rect y="16" width="20" height="2" fill="#ffffff"/></g><rect x="237.5" y="633.33" width="79.17" height="79.17" fill="#5d5d5d"/><polygon points="316.67,633.33 316.67,712.5 237.5,712.5" fill="#e3607a"/><rect x="316.67" y="633.33" width="79.17" height="79.17" fill="#ffffff"/><path d="M 316.67 712.5 A 79.17 79.17 0 0 1  395.84000000000003 633.33 L 395.84000000000003 712.5L316.67 712.5" fill="#ffffff"/><rect x="395.83" y="633.33" width="79.17" height="79.17" fill="#ffffff"/><g transform="translate(395.83,633.33) scale(3.9585) rotate(0)"><rect width="20" height="2" fill="#828282"/><rect y="4" width="20" height="2" fill="#828282"/><rect y="8" width="20" height="2" fill="#828282"/><rect y="12" width="20" height="2" fill="#828282"/><rect y="16" width="20" height="2" fill="#828282"/></g><rect x="475" y="633.33" width="79.17" height="79.17" fill="#dbdbdb"/><g transform="translate(475,633.33) scale(3.9585) rotate(0)"><rect width="20" height="2" fill="#ffffff"/><rect y="4" width="20" height="2" fill="#ffffff"/><rect y="8" width="20" height="2" fill="#ffffff"/><rect y="12" width="20" height="2" fill="#ffffff"/><rect y="16" width="20" height="2" fill="#ffffff"/></g><rect x="554.17" y="633.33" width="79.17" height="79.17" fill="#e3627b"/><polygon points="554.17,633.33 633.3399999999999,712.5 554.17,712.5" fill="#ffffff"/><rect x="633.33" y="633.33" width="79.17" height="79.17" fill="#f3bcc7"/><polygon points="712.5,633.33 712.5,712.5 633.33,712.5" fill="#222222"/><rect x="712.5" y="633.33" width="79.17" height="79.17" fill="#6e6e6e"/><g transform="translate(712.5,633.33) scale(3.9585) rotate(0)"><rect width="20" height="2" fill="#eea0af"/><rect y="4" width="20" height="2" fill="#eea0af"/><rect y="8" width="20" height="2" fill="#eea0af"/><rect y="12" width="20" height="2" fill="#eea0af"/><rect y="16" width="20" height="2" fill="#eea0af"/></g><rect x="791.67" y="633.33" width="79.17" height="79.17" fill="#db3455"/><path d="M 791.67 633.33 A 79.17 79.17 0 0 0 870.8399999999999 712.5 L 870.8399999999999 633.33L791.67 633.33" fill="#5a5a5a"/><rect x="870.83" y="633.33" width="79.17" height="79.17" fill="#e46780"/><path d="M 870.83 712.5 A 79.17 79.17 0 0 1  950 633.33 L 870.83 712.5 A 79.17 79.17 0 0 0 950 633.33" fill="#ffffff"/><rect x="950" y="633.33" width="79.17" height="79.17" fill="#585858"/><polygon points="950,633.33 1029.17,712.5 950,712.5" fill="#e7788e"/><rect x="1029.17" y="633.33" width="79.17" height="79.17" fill="#ffffff"/><g transform="translate(1029.17,633.33) scale(3.9585) rotate(0)"><rect width="20" height="2" fill="#f4c0ca"/><rect y="4" width="20" height="2" fill="#f4c0ca"/><rect y="8" width="20" height="2" fill="#f4c0ca"/><rect y="12" width="20" height="2" fill="#f4c0ca"/><rect y="16" width="20" height="2" fill="#f4c0ca"/></g><rect x="1108.33" y="633.33" width="79.17" height="79.17" fill="#eaeaea"/><g transform="translate(1108.33,633.33) scale(3.9585) rotate(0)"><rect width="20" height="2" fill="#ffffff"/><rect y="4" width="20" height="2" fill="#ffffff"/><rect y="8" width="20" height="2" fill="#ffffff"/><rect y="12" width="20" height="2" fill="#ffffff"/><rect y="16" width="20" height="2" fill="#ffffff"/></g><rect x="1187.5" y="633.33" width="79.17" height="79.17" fill="#d30a32"/><path d="M 1187.5 633.33 A 79.17 79.17 0 0 1  1266.67 712.5 L 1187.5 633.33 A 79.17 79.17 0 0 0 1266.67 712.5" fill="#ffffff"/><rect x="1266.67" y="633.33" width="79.17" height="79.17" fill="#ffffff"/><path d="M 1266.67 633.33 A 79.17 79.17 0 0 1  1345.8400000000001 712.5 L 1266.67 633.33 A 79.17 79.17 0 0 0 1345.8400000000001 712.5" fill="#979797"/><rect x="0" y="712.5" width="79.17" height="79.17" fill="#ffffff"/><path d="M 0 791.67 A 79.17 79.17 0 0 0 79.17 712.5 L 0 712.5L0 791.67" fill="#ffffff"/><rect x="79.17" y="712.5" width="79.17" height="79.17" fill="#a8a8a8"/><polygon points="158.34,712.5 158.34,791.67 79.17,791.67" fill="#4e4e4e"/><rect x="158.33" y="712.5" width="79.17" height="79.17" fill="#e15a75"/><path d="M 158.33 791.67 A 79.17 79.17 0 0 1  237.5 712.5 L 158.33 791.67 A 79.17 79.17 0 0 0 237.5 712.5" fill="#d6d6d6"/><rect x="237.5" y="712.5" width="79.17" height="79.17" fill="#ffffff"/><path d="M 237.5 791.67 A 79.17 79.17 0 0 1  316.67 712.5 L 237.5 791.67 A 79.17 79.17 0 0 0 316.67 712.5" fill="#adadad"/><rect x="316.67" y="712.5" width="79.17" height="79.17" fill="#eea0b0"/><path d="M 316.67 791.67 A 79.17 79.17 0 0 0 395.84000000000003 712.5 L 316.67 712.5L316.67 791.67" fill="#f2b9c4"/><rect x="395.83" y="712.5" width="79.17" height="79.17" fill="#f4f4f4"/><polygon points="395.83,712.5 475,791.67 395.83,791.67" fill="#ffffff"/><rect x="475" y="712.5" width="79.17" height="79.17" fill="#373737"/><rect x="475" y="712.5" width="79.17" height="79.17" fill="#ffffff"/><rect x="554.17" y="712.5" width="79.17" height="79.17" fill="#ffffff"/><g transform="translate(554.17,712.5) scale(3.9585) rotate(0)"><rect width="20" height="2" fill="#df4d6a"/><rect y="4" width="20" height="2" fill="#df4d6a"/><rect y="8" width="20" height="2" fill="#df4d6a"/><rect y="12" width="20" height="2" fill="#df4d6a"/><rect y="16" width="20" height="2" fill="#df4d6a"/></g><rect x="633.33" y="712.5" width="79.17" height="79.17" fill="#e88196"/><path d="M 633.33 791.67 A 79.17 79.17 0 0 1  712.5 712.5 L 712.5 791.67L633.33 791.67" fill="#ffffff"/><rect x="712.5" y="712.5" width="79.17" height="79.17" fill="#dc3a5a"/><path d="M 712.5 791.67 A 79.17 79.17 0 0 1  791.67 712.5 L 712.5 791.67 A 79.17 79.17 0 0 0 791.67 712.5" fill="#cecece"/><rect x="791.67" y="712.5" width="79.17" height="79.17" fill="#1f1f1f"/><rect x="791.67" y="712.5" width="79.17" height="79.17" fill="#9c9c9c"/><rect x="870.83" y="712.5" width="79.17" height="79.17" fill="#ea879b"/><path d="M 870.83 791.67 A 79.17 79.17 0 0 1  950 712.5 L 870.83 791.67 A 79.17 79.17 0 0 0 950 712.5" fill="#646464"/><rect x="950" y="712.5" width="79.17" height="79.17" fill="#ffffff"/><polygon points="1029.17,712.5 1029.17,791.67 950,791.67" fill="#ffffff"/><rect x="1029.17" y="712.5" width="79.17" height="79.17" fill="#f5c6cf"/><g transform="translate(1029.17,712.5) scale(3.9585) rotate(0)"><rect width="20" height="2" fill="#e88196"/><rect y="4" width="20" height="2" fill="#e88196"/><rect y="8" width="20" height="2" fill="#e88196"/><rect y="12" width="20" height="2" fill="#e88196"/><rect y="16" width="20" height="2" fill="#e88196"/></g><rect x="1108.33" y="712.5" width="79.17" height="79.17" fill="#fbfbfb"/><rect x="1108.33" y="712.5" width="79.17" height="79.17" fill="#e87f94"/><rect x="1187.5" y="712.5" width="79.17" height="79.17" fill="#9c9c9c"/><polygon points="1187.5,712.5 1266.67,712.5 1266.67,791.67" fill="#eaeaea"/><rect x="1266.67" y="712.5" width="79.17" height="79.17" fill="#ffffff"/><path d="M 1266.67 712.5 A 79.17 79.17 0 0 1  1345.8400000000001 791.67 L 1266.67 712.5 A 79.17 79.17 0 0 0 1345.8400000000001 791.67" fill="#d92b4d"/><rect x="0" y="791.67" width="79.17" height="79.17" fill="#ffffff"/><path d="M 0 791.67 A 79.17 79.17 0 0 1  79.17 870.8399999999999 L 0 791.67 A 79.17 79.17 0 0 0 79.17 870.8399999999999" fill="#fceef1"/><rect x="79.17" y="791.67" width="79.17" height="79.17" fill="#8d8d8d"/><rect x="79.17" y="791.67" width="79.17" height="79.17" fill="#e25c77"/><rect x="158.33" y="791.67" width="79.17" height="79.17" fill="#e7e7e7"/><path d="M 158.33 870.8399999999999 A 79.17 79.17 0 0 0 237.5 791.67 L 158.33 791.67L158.33 870.8399999999999" fill="#ffffff"/><rect x="237.5" y="791.67" width="79.17" height="79.17" fill="#de4563"/><g transform="translate(237.5,791.67) scale(3.9585) rotate(0)"><rect width="20" height="2" fill="#f2f2f2"/><rect y="4" width="20" height="2" fill="#f2f2f2"/><rect y="8" width="20" height="2" fill="#f2f2f2"/><rect y="12" width="20" height="2" fill="#f2f2f2"/><rect y="16" width="20" height="2" fill="#f2f2f2"/></g><rect x="316.67" y="791.67" width="79.17" height="79.17" fill="#fdf6f7"/><rect x="316.67" y="791.67" width="79.17" height="79.17" fill="#f2b6c2"/><rect x="395.83" y="791.67" width="79.17" height="79.17" fill="#4b4b4b"/><polygon points="475,791.67 475,870.8399999999999 395.83,870.8399999999999" fill="#3d3d3d"/><rect x="475" y="791.67" width="79.17" height="79.17" fill="#7a7a7a"/><g transform="translate(475,791.67) scale(3.9585) rotate(0)"><rect width="20" height="2" fill="#5c5c5c"/><rect y="4" width="20" height="2" fill="#5c5c5c"/><rect y="8" width="20" height="2" fill="#5c5c5c"/><rect y="12" width="20" height="2" fill="#5c5c5c"/><rect y="16" width="20" height="2" fill="#5c5c5c"/></g><rect x="554.17" y="791.67" width="79.17" height="79.17" fill="#d2d2d2"/><path d="M 554.17 870.8399999999999 A 79.17 79.17 0 0 1  633.3399999999999 791.67 L 554.17 870.8399999999999 A 79.17 79.17 0 0 0 633.3399999999999 791.67" fill="#ffffff"/><rect x="633.33" y="791.67" width="79.17" height="79.17" fill="#fbe9ed"/><polygon points="633.33,791.67 712.5,791.67 633.33,870.8399999999999" fill="#ffffff"/><rect x="712.5" y="791.67" width="79.17" height="79.17" fill="#e56c84"/><g transform="translate(712.5,791.67) scale(3.9585) rotate(0)"><rect width="20" height="2" fill="#de4563"/><rect y="4" width="20" height="2" fill="#de4563"/><rect y="8" width="20" height="2" fill="#de4563"/><rect y="12" width="20" height="2" fill="#de4563"/><rect y="16" width="20" height="2" fill="#de4563"/></g><rect x="791.67" y="791.67" width="79.17" height="79.17" fill="#fdf2f4"/><rect x="791.67" y="791.67" width="79.17" height="79.17" fill="#d4d4d4"/><rect x="870.83" y="791.67" width="79.17" height="79.17" fill="#ffffff"/><path d="M 870.83 791.67 A 79.17 79.17 0 0 1  950 870.8399999999999 L 870.83 791.67 A 79.17 79.17 0 0 0 950 870.8399999999999" fill="#292929"/><rect x="950" y="791.67" width="79.17" height="79.17" fill="#ec93a4"/><path d="M 950 870.8399999999999 A 79.17 79.17 0 0 1  1029.17 791.67 L 950 870.8399999999999 A 79.17 79.17 0 0 0 1029.17 791.67" fill="#ffffff"/><rect x="1029.17" y="791.67" width="79.17" height="79.17" fill="#fdf4f6"/><path d="M 1029.17 870.8399999999999 A 79.17 79.17 0 0 1  1108.3400000000001 791.67 L 1029.17 870.8399999999999 A 79.17 79.17 0 0 0 1108.3400000000001 791.67" fill="#d4d4d4"/><rect x="1108.33" y="791.67" width="79.17" height="79.17" fill="#ffffff"/><path d="M 1108.33 870.8399999999999 A 79.17 79.17 0 0 1  1187.5 791.67 L 1187.5 870.8399999999999L1108.33 870.8399999999999" fill="#d82448"/><rect x="1187.5" y="791.67" width="79.17" height="79.17" fill="#db3959"/><path d="M 1187.5 791.67 A 79.17 79.17 0 0 1 1266.67 870.8399999999999 L 1187.5 870.8399999999999L1187.5 791.67" fill="#ffffff"/><rect x="1266.67" y="791.67" width="79.17" height="79.17" fill="#f6f6f6"/><path d="M 1266.67 870.8399999999999 A 79.17 79.17 0 0 1  1345.8400000000001 791.67 L 1266.67 870.8399999999999 A 79.17 79.17 0 0 0 1345.8400000000001 791.67" fill="#fefbfc"/><rect x="0" y="870.83" width="79.17" height="79.17" fill="#dd4160"/><g transform="translate(0,870.83) scale(3.9585) rotate(0)"><rect width="20" height="2" fill="#eea1b0"/><rect y="4" width="20" height="2" fill="#eea1b0"/><rect y="8" width="20" height="2" fill="#eea1b0"/><rect y="12" width="20" height="2" fill="#eea1b0"/><rect y="16" width="20" height="2" fill="#eea1b0"/></g><rect x="79.17" y="870.83" width="79.17" height="79.17" fill="#767676"/><polygon points="79.17,870.83 158.34,870.83 158.34,950" fill="#b4b4b4"/><rect x="158.33" y="870.83" width="79.17" height="79.17" fill="#c0c0c0"/><rect x="158.33" y="870.83" width="79.17" height="79.17" fill="#ffffff"/><rect x="237.5" y="870.83" width="79.17" height="79.17" fill="#ffffff"/><g transform="translate(237.5,870.83) scale(3.9585) rotate(0)"><rect width="20" height="2" fill="#ffffff"/><rect y="4" width="20" height="2" fill="#ffffff"/><rect y="8" width="20" height="2" fill="#ffffff"/><rect y="12" width="20" height="2" fill="#ffffff"/><rect y="16" width="20" height="2" fill="#ffffff"/></g><rect x="316.67" y="870.83" width="79.17" height="79.17" fill="#a0a0a0"/><path d="M 316.67 870.83 A 79.17 79.17 0 0 1  395.84000000000003 950 L 316.67 870.83 A 79.17 79.17 0 0 0 395.84000000000003 950" fill="#f9dce2"/><rect x="395.83" y="870.83" width="79.17" height="79.17" fill="#fceff1"/><rect x="395.83" y="870.83" width="79.17" height="79.17" fill="#f3bec8"/><rect x="475" y="870.83" width="79.17" height="79.17" fill="#ffffff"/><polygon points="475,870.83 554.17,950 475,950" fill="#ffffff"/><rect x="554.17" y="870.83" width="79.17" height="79.17" fill="#ffffff"/><g transform="translate(554.17,870.83) scale(3.9585) rotate(0)"><rect width="20" height="2" fill="#ffffff"/><rect y="4" width="20" height="2" fill="#ffffff"/><rect y="8" width="20" height="2" fill="#ffffff"/><rect y="12" width="20" height="2" fill="#ffffff"/><rect y="16" width="20" height="2" fill="#ffffff"/></g><rect x="633.33" y="870.83" width="79.17" height="79.17" fill="#ffffff"/><g transform="translate(633.33,870.83) scale(3.9585) rotate(0)"><rect width="20" height="2" fill="#cdcdcd"/><rect y="4" width="20" height="2" fill="#cdcdcd"/><rect y="8" width="20" height="2" fill="#cdcdcd"/><rect y="12" width="20" height="2" fill="#cdcdcd"/><rect y="16" width="20" height="2" fill="#cdcdcd"/></g><rect x="712.5" y="870.83" width="79.17" height="79.17" fill="#848484"/><g transform="translate(712.5,870.83) scale(3.9585) rotate(0)"><rect width="20" height="2" fill="#e6758c"/><rect y="4" width="20" height="2" fill="#e6758c"/><rect y="8" width="20" height="2" fill="#e6758c"/><rect y="12" width="20" height="2" fill="#e6758c"/><rect y="16" width="20" height="2" fill="#e6758c"/></g><rect x="791.67" y="870.83" width="79.17" height="79.17" fill="#afafaf"/><polygon points="870.8399999999999,870.83 870.8399999999999,950 791.67,950" fill="#ffffff"/><rect x="870.83" y="870.83" width="79.17" height="79.17" fill="#8a8a8a"/><path d="M 870.83 870.83 A 79.17 79.17 0 0 1  950 950 L 870.83 870.83 A 79.17 79.17 0 0 0 950 950" fill="#ed9bab"/><rect x="950" y="870.83" width="79.17" height="79.17" fill="#cccccc"/><path d="M 950 870.83 A 79.17 79.17 0 0 0 1029.17 950 L 1029.17 870.83L950 870.83" fill="#4f4f4f"/><rect x="1029.17" y="870.83" width="79.17" height="79.17" fill="#e25b76"/><path d="M 1029.17 870.83 A 79.17 79.17 0 0 1  1108.3400000000001 950 L 1029.17 870.83 A 79.17 79.17 0 0 0 1108.3400000000001 950" fill="#424242"/><rect x="1108.33" y="870.83" width="79.17" height="79.17" fill="#313131"/><rect x="1108.33" y="870.83" width="79.17" height="79.17" fill="#a5a5a5"/><rect x="1187.5" y="870.83" width="79.17" height="79.17" fill="#ffffff"/><path d="M 1187.5 870.83 A 79.17 79.17 0 0 1  1266.67 950 L 1187.5 870.83 A 79.17 79.17 0 0 0 1266.67 950" fill="#ffffff"/><rect x="1266.67" y="870.83" width="79.17" height="79.17" fill="#eb91a3"/><g transform="translate(1266.67,870.83) scale(3.9585) rotate(0)"><rect width="20" height="2" fill="#fdf6f7"/><rect y="4" width="20" height="2" fill="#fdf6f7"/><rect y="8" width="20" height="2" fill="#fdf6f7"/><rect y="12" width="20" height="2" fill="#fdf6f7"/><rect y="16" width="20" height="2" fill="#fdf6f7"/></g></g></svg>