<?xml version="1.0" standalone="no"?><svg xmlns:xlink="http://www.w3.org/1999/xlink" xmlns="http://www.w3.org/2000/svg" viewBox="0 0 500 352.942050630466" preserveAspectRatio="xMaxYMax slice"><g transform="scale(0.37151794803206944)"><rect x="0" y="0" width="1345.8333333333335" height="950" fill="#ffffff"/><rect x="0" y="0" width="79.17" height="79.17" fill="#fbfbfb"/><polygon points="0,0 79.17,79.17 0,79.17" fill="#d8d8d8"/><rect x="79.17" y="0" width="79.17" height="79.17" fill="#bebebe"/><polygon points="79.17,0 158.34,0 79.17,79.17" fill="#f8f8f8"/><rect x="158.33" y="0" width="79.17" height="79.17" fill="#b2b2b2"/><path d="M 158.33 79.17 A 79.17 79.17 0 0 1  237.5 0 L 158.33 79.17 A 79.17 79.17 0 0 0 237.5 0" fill="#737373"/><rect x="237.5" y="0" width="79.17" height="79.17" fill="#cccccc"/><rect x="237.5" y="0" width="79.17" height="79.17" fill="#eeeeee"/><rect x="316.67" y="0" width="79.17" height="79.17" fill="#d5d5d5"/><polygon points="395.84000000000003,0 395.84000000000003,79.17 316.67,79.17" fill="#ffffff"/><rect x="395.83" y="0" width="79.17" height="79.17" fill="#a5a5a5"/><g transform="translate(395.83,0) scale(3.9585) rotate(0)"><rect width="20" height="2" fill="#ffffff"/><rect y="4" width="20" height="2" fill="#ffffff"/><rect y="8" width="20" height="2" fill="#ffffff"/><rect y="12" width="20" height="2" fill="#ffffff"/><rect y="16" width="20" height="2" fill="#ffffff"/></g><rect x="475" y="0" width="79.17" height="79.17" fill="#e2e2e2"/><path d="M 475 0 A 79.17 79.17 0 0 1  554.17 79.17 L 475 0 A 79.17 79.17 0 0 0 554.17 79.17" fill="#b9b9b9"/><rect x="554.17" y="0" width="79.17" height="79.17" fill="#bfbfbf"/><path d="M 554.17 0 A 79.17 79.17 0 0 1  633.3399999999999 79.17 L 554.17 0 A 79.17 79.17 0 0 0 633.3399999999999 79.17" fill="#d5d5d5"/><rect x="633.33" y="0" width="79.17" height="79.17" fill="#ffffff"/><polygon points="633.33,0 712.5,0 712.5,79.17" fill="#ffffff"/><rect x="712.5" y="0" width="79.17" height="79.17" fill="#b8b8b8"/><rect x="712.5" y="0" width="79.17" height="79.17" fill="#ffffff"/><rect x="791.67" y="0" width="79.17" height="79.17" fill="#d6d6d6"/><path d="M 791.67 79.17 A 79.17 79.17 0 0 1  870.8399999999999 0 L 791.67 79.17 A 79.17 79.17 0 0 0 870.8399999999999 0" fill="#ffffff"/><rect x="870.83" y="0" width="79.17" height="79.17" fill="#fbfbfb"/><polygon points="870.83,0 950,0 950,79.17" fill="#2e2e2e"/><rect x="950" y="0" width="79.17" height="79.17" fill="#b1b1b1"/><path d="M 950 79.17 A 79.17 79.17 0 0 1  1029.17 0 L 1029.17 79.17L950 79.17" fill="#e6e6e6"/><rect x="1029.17" y="0" width="79.17" height="79.17" fill="#292929"/><rect x="1029.17" y="0" width="79.17" height="79.17" fill="#f2f2f2"/><rect x="1108.33" y="0" width="79.17" height="79.17" fill="#5e5e5e"/><path d="M 1108.33 79.17 A 79.17 79.17 0 0 0 1187.5 0 L 1108.33 0L1108.33 79.17" fill="#d6d6d6"/><rect x="1187.5" y="0" width="79.17" height="79.17" fill="#ebebeb"/><path d="M 1187.5 79.17 A 79.17 79.17 0 0 1  1266.67 0 L 1187.5 79.17 A 79.17 79.17 0 0 0 1266.67 0" fill="#f5f5f5"/><rect x="1266.67" y="0" width="79.17" height="79.17" fill="#b6b6b6"/><rect x="1266.67" y="0" width="79.17" height="79.17" fill="#f7f7f7"/><rect x="0" y="79.17" width="79.17" height="79.17" fill="#acacac"/><g transform="translate(0,79.17) scale(3.9585) rotate(0)"><rect width="20" height="2" fill="#ebebeb"/><rect y="4" width="20" height="2" fill="#ebebeb"/><rect y="8" width="20" height="2" fill="#ebebeb"/><rect y="12" width="20" height="2" fill="#ebebeb"/><rect y="16" width="20" height="2" fill="#ebebeb"/></g><rect x="79.17" y="79.17" width="79.17" height="79.17" fill="#e2e2e2"/><g transform="translate(79.17,79.17) scale(3.9585) rotate(0)"><rect width="20" height="2" fill="#cacaca"/><rect y="4" width="20" height="2" fill="#cacaca"/><rect y="8" width="20" height="2" fill="#cacaca"/><rect y="12" width="20" height="2" fill="#cacaca"/><rect y="16" width="20" height="2" fill="#cacaca"/></g><rect x="158.33" y="79.17" width="79.17" height="79.17" fill="#c5c5c5"/><g transform="translate(158.33,79.17) scale(3.9585) rotate(0)"><rect width="20" height="2" fill="#ffffff"/><rect y="4" width="20" height="2" fill="#ffffff"/><rect y="8" width="20" height="2" fill="#ffffff"/><rect y="12" width="20" height="2" fill="#ffffff"/><rect y="16" width="20" height="2" fill="#ffffff"/></g><rect x="237.5" y="79.17" width="79.17" height="79.17" fill="#ffffff"/><path d="M 237.5 158.34 A 79.17 79.17 0 0 1  316.67 79.17 L 237.5 158.34 A 79.17 79.17 0 0 0 316.67 79.17" fill="#505050"/><rect x="316.67" y="79.17" width="79.17" height="79.17" fill="#c3c3c3"/><g transform="translate(316.67,79.17) scale(3.9585) rotate(0)"><rect width="20" height="2" fill="#dadada"/><rect y="4" width="20" height="2" fill="#dadada"/><rect y="8" width="20" height="2" fill="#dadada"/><rect y="12" width="20" height="2" fill="#dadada"/><rect y="16" width="20" height="2" fill="#dadada"/></g><rect x="395.83" y="79.17" width="79.17" height="79.17" fill="#d2d2d2"/><path d="M 395.83 158.34 A 79.17 79.17 0 0 1  475 79.17 L 395.83 158.34 A 79.17 79.17 0 0 0 475 79.17" fill="#ffffff"/><rect x="475" y="79.17" width="79.17" height="79.17" fill="#ffffff"/><rect x="475" y="79.17" width="79.17" height="79.17" fill="#3a3a3a"/><rect x="554.17" y="79.17" width="79.17" height="79.17" fill="#f1f1f1"/><path d="M 554.17 79.17 A 79.17 79.17 0 0 1 633.3399999999999 158.34 L 554.17 158.34L554.17 79.17" fill="#e6e6e6"/><rect x="633.33" y="79.17" width="79.17" height="79.17" fill="#ffffff"/><polygon points="712.5,79.17 712.5,158.34 633.33,158.34" fill="#ffffff"/><rect x="712.5" y="79.17" width="79.17" height="79.17" fill="#d9d9d9"/><path d="M 712.5 158.34 A 79.17 79.17 0 0 1  791.67 79.17 L 712.5 158.34 A 79.17 79.17 0 0 0 791.67 79.17" fill="#ffffff"/><rect x="791.67" y="79.17" width="79.17" height="79.17" fill="#ffffff"/><polygon points="791.67,79.17 870.8399999999999,158.34 791.67,158.34" fill="#818181"/><rect x="870.83" y="79.17" width="79.17" height="79.17" fill="#ffffff"/><path d="M 870.83 79.17 A 79.17 79.17 0 0 1  950 158.34 L 870.83 79.17 A 79.17 79.17 0 0 0 950 158.34" fill="#fafafa"/><rect x="950" y="79.17" width="79.17" height="79.17" fill="#e6e6e6"/><rect x="950" y="79.17" width="79.17" height="79.17" fill="#ffffff"/><rect x="1029.17" y="79.17" width="79.17" height="79.17" fill="#b0b0b0"/><path d="M 1029.17 158.34 A 79.17 79.17 0 0 1  1108.3400000000001 79.17 L 1029.17 158.34 A 79.17 79.17 0 0 0 1108.3400000000001 79.17" fill="#ffffff"/><rect x="1108.33" y="79.17" width="79.17" height="79.17" fill="#ffffff"/><g transform="translate(1108.33,79.17) scale(3.9585) rotate(0)"><rect width="20" height="2" fill="#b9b9b9"/><rect y="4" width="20" height="2" fill="#b9b9b9"/><rect y="8" width="20" height="2" fill="#b9b9b9"/><rect y="12" width="20" height="2" fill="#b9b9b9"/><rect y="16" width="20" height="2" fill="#b9b9b9"/></g><rect x="1187.5" y="79.17" width="79.17" height="79.17" fill="#f5f5f5"/><path d="M 1187.5 158.34 A 79.17 79.17 0 0 1  1266.67 79.17 L 1187.5 158.34 A 79.17 79.17 0 0 0 1266.67 79.17" fill="#ffffff"/><rect x="1266.67" y="79.17" width="79.17" height="79.17" fill="#ffffff"/><g transform="translate(1266.67,79.17) scale(3.9585) rotate(0)"><rect width="20" height="2" fill="#b2b2b2"/><rect y="4" width="20" height="2" fill="#b2b2b2"/><rect y="8" width="20" height="2" fill="#b2b2b2"/><rect y="12" width="20" height="2" fill="#b2b2b2"/><rect y="16" width="20" height="2" fill="#b2b2b2"/></g><rect x="0" y="158.33" width="79.17" height="79.17" fill="#bdbdbd"/><rect x="0" y="158.33" width="79.17" height="79.17" fill="#bebebe"/><rect x="79.17" y="158.33" width="79.17" height="79.17" fill="#9a9a9a"/><path d="M 79.17 237.5 A 79.17 79.17 0 0 1  158.34 158.33 L 79.17 237.5 A 79.17 79.17 0 0 0 158.34 158.33" fill="#ffffff"/><rect x="158.33" y="158.33" width="79.17" height="79.17" fill="#c2c2c2"/><polygon points="158.33,158.33 237.5,158.33 158.33,237.5" fill="#ffffff"/><rect x="237.5" y="158.33" width="79.17" height="79.17" fill="#515151"/><rect x="237.5" y="158.33" width="79.17" height="79.17" fill="#707070"/><rect x="316.67" y="158.33" width="79.17" height="79.17" fill="#ffffff"/><rect x="316.67" y="158.33" width="79.17" height="79.17" fill="#818181"/><rect x="395.83" y="158.33" width="79.17" height="79.17" fill="#f1f1f1"/><path d="M 395.83 158.33 A 79.17 79.17 0 0 1  475 237.5 L 395.83 158.33 A 79.17 79.17 0 0 0 475 237.5" fill="#ffffff"/><rect x="475" y="158.33" width="79.17" height="79.17" fill="#ffffff"/><path d="M 475 237.5 A 79.17 79.17 0 0 1  554.17 158.33 L 475 237.5 A 79.17 79.17 0 0 0 554.17 158.33" fill="#c3c3c3"/><rect x="554.17" y="158.33" width="79.17" height="79.17" fill="#444444"/><polygon points="554.17,158.33 633.3399999999999,237.5 554.17,237.5" fill="#ababab"/><rect x="633.33" y="158.33" width="79.17" height="79.17" fill="#4f4f4f"/><path d="M 633.33 158.33 A 79.17 79.17 0 0 1  712.5 237.5 L 633.33 158.33 A 79.17 79.17 0 0 0 712.5 237.5" fill="#d4d4d4"/><rect x="712.5" y="158.33" width="79.17" height="79.17" fill="#8c8c8c"/><polygon points="712.5,158.33 791.67,158.33 791.67,237.5" fill="#e1e1e1"/><rect x="791.67" y="158.33" width="79.17" height="79.17" fill="#b1b1b1"/><path d="M 791.67 158.33 A 79.17 79.17 0 0 1 870.8399999999999 237.5 L 791.67 237.5L791.67 158.33" fill="#ffffff"/><rect x="870.83" y="158.33" width="79.17" height="79.17" fill="#ffffff"/><path d="M 870.83 237.5 A 79.17 79.17 0 0 1  950 158.33 L 870.83 237.5 A 79.17 79.17 0 0 0 950 158.33" fill="#ffffff"/><rect x="950" y="158.33" width="79.17" height="79.17" fill="#cbcbcb"/><path d="M 950 237.5 A 79.17 79.17 0 0 0 1029.17 158.33 L 950 158.33L950 237.5" fill="#ffffff"/><rect x="1029.17" y="158.33" width="79.17" height="79.17" fill="#ffffff"/><rect x="1029.17" y="158.33" width="79.17" height="79.17" fill="#c4c4c4"/><rect x="1108.33" y="158.33" width="79.17" height="79.17" fill="#fcfcfc"/><path d="M 1108.33 158.33 A 79.17 79.17 0 0 1  1187.5 237.5 L 1108.33 158.33 A 79.17 79.17 0 0 0 1187.5 237.5" fill="#ffffff"/><rect x="1187.5" y="158.33" width="79.17" height="79.17" fill="#f3f3f3"/><rect x="1187.5" y="158.33" width="79.17" height="79.17" fill="#cccccc"/><rect x="1266.67" y="158.33" width="79.17" height="79.17" fill="#ffffff"/><polygon points="1266.67,158.33 1345.8400000000001,237.5 1266.67,237.5" fill="#e6e6e6"/><rect x="0" y="237.5" width="79.17" height="79.17" fill="#f1f1f1"/><polygon points="0,237.5 79.17,316.67 0,316.67" fill="#e1e1e1"/><rect x="79.17" y="237.5" width="79.17" height="79.17" fill="#777777"/><path d="M 79.17 237.5 A 79.17 79.17 0 0 1  158.34 316.67 L 79.17 237.5 A 79.17 79.17 0 0 0 158.34 316.67" fill="#ffffff"/><rect x="158.33" y="237.5" width="79.17" height="79.17" fill="#ffffff"/><path d="M 158.33 316.67 A 79.17 79.17 0 0 1  237.5 237.5 L 158.33 316.67 A 79.17 79.17 0 0 0 237.5 237.5" fill="#d4d4d4"/><rect x="237.5" y="237.5" width="79.17" height="79.17" fill="#d3d3d3"/><g transform="translate(237.5,237.5) scale(3.9585) rotate(0)"><rect width="20" height="2" fill="#b1b1b1"/><rect y="4" width="20" height="2" fill="#b1b1b1"/><rect y="8" width="20" height="2" fill="#b1b1b1"/><rect y="12" width="20" height="2" fill="#b1b1b1"/><rect y="16" width="20" height="2" fill="#b1b1b1"/></g><rect x="316.67" y="237.5" width="79.17" height="79.17" fill="#f8f8f8"/><polygon points="395.84000000000003,237.5 395.84000000000003,316.67 316.67,316.67" fill="#ededed"/><rect x="395.83" y="237.5" width="79.17" height="79.17" fill="#b3b3b3"/><path d="M 395.83 237.5 A 79.17 79.17 0 0 1  475 316.67 L 395.83 237.5 A 79.17 79.17 0 0 0 475 316.67" fill="#444444"/><rect x="475" y="237.5" width="79.17" height="79.17" fill="#ffffff"/><path d="M 475 237.5 A 79.17 79.17 0 0 1  554.17 316.67 L 475 237.5 A 79.17 79.17 0 0 0 554.17 316.67" fill="#ffffff"/><rect x="554.17" y="237.5" width="79.17" height="79.17" fill="#dfdfdf"/><polygon points="554.17,237.5 633.3399999999999,237.5 554.17,316.67" fill="#b4b4b4"/><rect x="633.33" y="237.5" width="79.17" height="79.17" fill="#717171"/><path d="M 633.33 237.5 A 79.17 79.17 0 0 1  712.5 316.67 L 633.33 237.5 A 79.17 79.17 0 0 0 712.5 316.67" fill="#878787"/><rect x="712.5" y="237.5" width="79.17" height="79.17" fill="#f7f7f7"/><path d="M 712.5 316.67 A 79.17 79.17 0 0 1  791.67 237.5 L 712.5 316.67 A 79.17 79.17 0 0 0 791.67 237.5" fill="#ffffff"/><rect x="791.67" y="237.5" width="79.17" height="79.17" fill="#ffffff"/><polygon points="791.67,237.5 870.8399999999999,316.67 791.67,316.67" fill="#fcfcfc"/><rect x="870.83" y="237.5" width="79.17" height="79.17" fill="#c9c9c9"/><path d="M 870.83 316.67 A 79.17 79.17 0 0 1  950 237.5 L 870.83 316.67 A 79.17 79.17 0 0 0 950 237.5" fill="#191919"/><rect x="950" y="237.5" width="79.17" height="79.17" fill="#8a8a8a"/><rect x="950" y="237.5" width="79.17" height="79.17" fill="#d9d9d9"/><rect x="1029.17" y="237.5" width="79.17" height="79.17" fill="#ffffff"/><path d="M 1029.17 316.67 A 79.17 79.17 0 0 1  1108.3400000000001 237.5 L 1029.17 316.67 A 79.17 79.17 0 0 0 1108.3400000000001 237.5" fill="#ffffff"/><rect x="1108.33" y="237.5" width="79.17" height="79.17" fill="#fdfdfd"/><path d="M 1108.33 316.67 A 79.17 79.17 0 0 1  1187.5 237.5 L 1108.33 316.67 A 79.17 79.17 0 0 0 1187.5 237.5" fill="#e7e7e7"/><rect x="1187.5" y="237.5" width="79.17" height="79.17" fill="#ffffff"/><g transform="translate(1187.5,237.5) scale(3.9585) rotate(0)"><rect width="20" height="2" fill="#ffffff"/><rect y="4" width="20" height="2" fill="#ffffff"/><rect y="8" width="20" height="2" fill="#ffffff"/><rect y="12" width="20" height="2" fill="#ffffff"/><rect y="16" width="20" height="2" fill="#ffffff"/></g><rect x="1266.67" y="237.5" width="79.17" height="79.17" fill="#b0b0b0"/><g transform="translate(1266.67,237.5) scale(3.9585) rotate(0)"><rect width="20" height="2" fill="#ffffff"/><rect y="4" width="20" height="2" fill="#ffffff"/><rect y="8" width="20" height="2" fill="#ffffff"/><rect y="12" width="20" height="2" fill="#ffffff"/><rect y="16" width="20" height="2" fill="#ffffff"/></g><rect x="0" y="316.67" width="79.17" height="79.17" fill="#363636"/><polygon points="0,316.67 79.17,316.67 79.17,395.84000000000003" fill="#ffffff"/><rect x="79.17" y="316.67" width="79.17" height="79.17" fill="#f4f4f4"/><rect x="79.17" y="316.67" width="79.17" height="79.17" fill="#c5c5c5"/><rect x="158.33" y="316.67" width="79.17" height="79.17" fill="#ffffff"/><g transform="translate(158.33,316.67) scale(3.9585) rotate(0)"><rect width="20" height="2" fill="#d7d7d7"/><rect y="4" width="20" height="2" fill="#d7d7d7"/><rect y="8" width="20" height="2" fill="#d7d7d7"/><rect y="12" width="20" height="2" fill="#d7d7d7"/><rect y="16" width="20" height="2" fill="#d7d7d7"/></g><rect x="237.5" y="316.67" width="79.17" height="79.17" fill="#ffffff"/><g transform="translate(237.5,316.67) scale(3.9585) rotate(0)"><rect width="20" height="2" fill="#f6f6f6"/><rect y="4" width="20" height="2" fill="#f6f6f6"/><rect y="8" width="20" height="2" fill="#f6f6f6"/><rect y="12" width="20" height="2" fill="#f6f6f6"/><rect y="16" width="20" height="2" fill="#f6f6f6"/></g><rect x="316.67" y="316.67" width="79.17" height="79.17" fill="#ffffff"/><path d="M 316.67 316.67 A 79.17 79.17 0 0 1  395.84000000000003 395.84000000000003 L 316.67 316.67 A 79.17 79.17 0 0 0 395.84000000000003 395.84000000000003" fill="#c8c8c8"/><rect x="395.83" y="316.67" width="79.17" height="79.17" fill="#f8f8f8"/><rect x="395.83" y="316.67" width="79.17" height="79.17" fill="#e6e6e6"/><rect x="475" y="316.67" width="79.17" height="79.17" fill="#e6e6e6"/><polygon points="475,316.67 554.17,316.67 475,395.84000000000003" fill="#fefefe"/><rect x="554.17" y="316.67" width="79.17" height="79.17" fill="#c1c1c1"/><path d="M 554.17 395.84000000000003 A 79.17 79.17 0 0 0 633.3399999999999 316.67 L 554.17 316.67L554.17 395.84000000000003" fill="#313131"/><rect x="633.33" y="316.67" width="79.17" height="79.17" fill="#d6d6d6"/><rect x="633.33" y="316.67" width="79.17" height="79.17" fill="#717171"/><rect x="712.5" y="316.67" width="79.17" height="79.17" fill="#ffffff"/><path d="M 712.5 395.84000000000003 A 79.17 79.17 0 0 1  791.67 316.67 L 791.67 395.84000000000003L712.5 395.84000000000003" fill="#cecece"/><rect x="791.67" y="316.67" width="79.17" height="79.17" fill="#d3d3d3"/><polygon points="791.67,316.67 870.8399999999999,395.84000000000003 791.67,395.84000000000003" fill="#ffffff"/><rect x="870.83" y="316.67" width="79.17" height="79.17" fill="#ffffff"/><path d="M 870.83 395.84000000000003 A 79.17 79.17 0 0 1  950 316.67 L 870.83 395.84000000000003 A 79.17 79.17 0 0 0 950 316.67" fill="#ffffff"/><rect x="950" y="316.67" width="79.17" height="79.17" fill="#ffffff"/><rect x="950" y="316.67" width="79.17" height="79.17" fill="#ffffff"/><rect x="1029.17" y="316.67" width="79.17" height="79.17" fill="#ffffff"/><polygon points="1029.17,316.67 1108.3400000000001,316.67 1108.3400000000001,395.84000000000003" fill="#cfcfcf"/><rect x="1108.33" y="316.67" width="79.17" height="79.17" fill="#fcfcfc"/><g transform="translate(1108.33,316.67) scale(3.9585) rotate(0)"><rect width="20" height="2" fill="#ffffff"/><rect y="4" width="20" height="2" fill="#ffffff"/><rect y="8" width="20" height="2" fill="#ffffff"/><rect y="12" width="20" height="2" fill="#ffffff"/><rect y="16" width="20" height="2" fill="#ffffff"/></g><rect x="1187.5" y="316.67" width="79.17" height="79.17" fill="#d5d5d5"/><path d="M 1187.5 395.84000000000003 A 79.17 79.17 0 0 1  1266.67 316.67 L 1187.5 395.84000000000003 A 79.17 79.17 0 0 0 1266.67 316.67" fill="#f9f9f9"/><rect x="1266.67" y="316.67" width="79.17" height="79.17" fill="#4e4e4e"/><path d="M 1266.67 395.84000000000003 A 79.17 79.17 0 0 1  1345.8400000000001 316.67 L 1345.8400000000001 395.84000000000003L1266.67 395.84000000000003" fill="#c0c0c0"/><rect x="0" y="395.83" width="79.17" height="79.17" fill="#bdbdbd"/><path d="M 0 395.83 A 79.17 79.17 0 0 0 79.17 475 L 79.17 395.83L0 395.83" fill="#767676"/><rect x="79.17" y="395.83" width="79.17" height="79.17" fill="#ffffff"/><g transform="translate(79.17,395.83) scale(3.9585) rotate(0)"><rect width="20" height="2" fill="#ffffff"/><rect y="4" width="20" height="2" fill="#ffffff"/><rect y="8" width="20" height="2" fill="#ffffff"/><rect y="12" width="20" height="2" fill="#ffffff"/><rect y="16" width="20" height="2" fill="#ffffff"/></g><rect x="158.33" y="395.83" width="79.17" height="79.17" fill="#ffffff"/><polygon points="158.33,395.83 237.5,395.83 237.5,475" fill="#ffffff"/><rect x="237.5" y="395.83" width="79.17" height="79.17" fill="#f3f3f3"/><g transform="translate(237.5,395.83) scale(3.9585) rotate(0)"><rect width="20" height="2" fill="#424242"/><rect y="4" width="20" height="2" fill="#424242"/><rect y="8" width="20" height="2" fill="#424242"/><rect y="12" width="20" height="2" fill="#424242"/><rect y="16" width="20" height="2" fill="#424242"/></g><rect x="316.67" y="395.83" width="79.17" height="79.17" fill="#656565"/><g transform="translate(316.67,395.83) scale(3.9585) rotate(0)"><rect width="20" height="2" fill="#707070"/><rect y="4" width="20" height="2" fill="#707070"/><rect y="8" width="20" height="2" fill="#707070"/><rect y="12" width="20" height="2" fill="#707070"/><rect y="16" width="20" height="2" fill="#707070"/></g><rect x="395.83" y="395.83" width="79.17" height="79.17" fill="#d8d8d8"/><polygon points="475,395.83 475,475 395.83,475" fill="#ffffff"/><rect x="475" y="395.83" width="79.17" height="79.17" fill="#fbfbfb"/><path d="M 475 395.83 A 79.17 79.17 0 0 1 554.17 475 L 475 475L475 395.83" fill="#d4d4d4"/><rect x="554.17" y="395.83" width="79.17" height="79.17" fill="#fdfdfd"/><g transform="translate(554.17,395.83) scale(3.9585) rotate(0)"><rect width="20" height="2" fill="#ffffff"/><rect y="4" width="20" height="2" fill="#ffffff"/><rect y="8" width="20" height="2" fill="#ffffff"/><rect y="12" width="20" height="2" fill="#ffffff"/><rect y="16" width="20" height="2" fill="#ffffff"/></g><rect x="633.33" y="395.83" width="79.17" height="79.17" fill="#9d9d9d"/><polygon points="633.33,395.83 712.5,395.83 712.5,475" fill="#b5b5b5"/><rect x="712.5" y="395.83" width="79.17" height="79.17" fill="#757575"/><g transform="translate(712.5,395.83) scale(3.9585) rotate(0)"><rect width="20" height="2" fill="#ffffff"/><rect y="4" width="20" height="2" fill="#ffffff"/><rect y="8" width="20" height="2" fill="#ffffff"/><rect y="12" width="20" height="2" fill="#ffffff"/><rect y="16" width="20" height="2" fill="#ffffff"/></g><rect x="791.67" y="395.83" width="79.17" height="79.17" fill="#c0c0c0"/><rect x="791.67" y="395.83" width="79.17" height="79.17" fill="#e3e3e3"/><rect x="870.83" y="395.83" width="79.17" height="79.17" fill="#e6e6e6"/><polygon points="870.83,395.83 950,475 870.83,475" fill="#ffffff"/><rect x="950" y="395.83" width="79.17" height="79.17" fill="#ffffff"/><rect x="950" y="395.83" width="79.17" height="79.17" fill="#b2b2b2"/><rect x="1029.17" y="395.83" width="79.17" height="79.17" fill="#bebebe"/><path d="M 1029.17 395.83 A 79.17 79.17 0 0 1  1108.3400000000001 475 L 1029.17 395.83 A 79.17 79.17 0 0 0 1108.3400000000001 475" fill="#a6a6a6"/><rect x="1108.33" y="395.83" width="79.17" height="79.17" fill="#ffffff"/><path d="M 1108.33 475 A 79.17 79.17 0 0 1  1187.5 395.83 L 1108.33 475 A 79.17 79.17 0 0 0 1187.5 395.83" fill="#c7c7c7"/><rect x="1187.5" y="395.83" width="79.17" height="79.17" fill="#ffffff"/><rect x="1187.5" y="395.83" width="79.17" height="79.17" fill="#ffffff"/><rect x="1266.67" y="395.83" width="79.17" height="79.17" fill="#e6e6e6"/><path d="M 1266.67 475 A 79.17 79.17 0 0 1  1345.8400000000001 395.83 L 1266.67 475 A 79.17 79.17 0 0 0 1345.8400000000001 395.83" fill="#ffffff"/><rect x="0" y="475" width="79.17" height="79.17" fill="#d5d5d5"/><polygon points="79.17,475 79.17,554.17 0,554.17" fill="#919191"/><rect x="79.17" y="475" width="79.17" height="79.17" fill="#fcfcfc"/><path d="M 79.17 475 A 79.17 79.17 0 0 1  158.34 554.17 L 79.17 475 A 79.17 79.17 0 0 0 158.34 554.17" fill="#fbfbfb"/><rect x="158.33" y="475" width="79.17" height="79.17" fill="#dfdfdf"/><g transform="translate(158.33,475) scale(3.9585) rotate(0)"><rect width="20" height="2" fill="#404040"/><rect y="4" width="20" height="2" fill="#404040"/><rect y="8" width="20" height="2" fill="#404040"/><rect y="12" width="20" height="2" fill="#404040"/><rect y="16" width="20" height="2" fill="#404040"/></g><rect x="237.5" y="475" width="79.17" height="79.17" fill="#b9b9b9"/><rect x="237.5" y="475" width="79.17" height="79.17" fill="#ffffff"/><rect x="316.67" y="475" width="79.17" height="79.17" fill="#f6f6f6"/><polygon points="316.67,475 395.84000000000003,554.17 316.67,554.17" fill="#9c9c9c"/><rect x="395.83" y="475" width="79.17" height="79.17" fill="#dfdfdf"/><polygon points="395.83,475 475,475 395.83,554.17" fill="#d3d3d3"/><rect x="475" y="475" width="79.17" height="79.17" fill="#d8d8d8"/><rect x="475" y="475" width="79.17" height="79.17" fill="#ffffff"/><rect x="554.17" y="475" width="79.17" height="79.17" fill="#ffffff"/><path d="M 554.17 475 A 79.17 79.17 0 0 1  633.3399999999999 554.17 L 554.17 475 A 79.17 79.17 0 0 0 633.3399999999999 554.17" fill="#ffffff"/><rect x="633.33" y="475" width="79.17" height="79.17" fill="#8c8c8c"/><rect x="633.33" y="475" width="79.17" height="79.17" fill="#ffffff"/><rect x="712.5" y="475" width="79.17" height="79.17" fill="#acacac"/><path d="M 712.5 554.17 A 79.17 79.17 0 0 1  791.67 475 L 712.5 554.17 A 79.17 79.17 0 0 0 791.67 475" fill="#4a4a4a"/><rect x="791.67" y="475" width="79.17" height="79.17" fill="#f3f3f3"/><path d="M 791.67 554.17 A 79.17 79.17 0 0 1  870.8399999999999 475 L 791.67 554.17 A 79.17 79.17 0 0 0 870.8399999999999 475" fill="#dbdbdb"/><rect x="870.83" y="475" width="79.17" height="79.17" fill="#f5f5f5"/><rect x="870.83" y="475" width="79.17" height="79.17" fill="#c6c6c6"/><rect x="950" y="475" width="79.17" height="79.17" fill="#f6f6f6"/><path d="M 950 475 A 79.17 79.17 0 0 1  1029.17 554.17 L 950 475 A 79.17 79.17 0 0 0 1029.17 554.17" fill="#ffffff"/><rect x="1029.17" y="475" width="79.17" height="79.17" fill="#c6c6c6"/><polygon points="1029.17,475 1108.3400000000001,554.17 1029.17,554.17" fill="#a2a2a2"/><rect x="1108.33" y="475" width="79.17" height="79.17" fill="#a2a2a2"/><path d="M 1108.33 475 A 79.17 79.17 0 0 1  1187.5 554.17 L 1108.33 475 A 79.17 79.17 0 0 0 1187.5 554.17" fill="#ffffff"/><rect x="1187.5" y="475" width="79.17" height="79.17" fill="#ffffff"/><polygon points="1187.5,475 1266.67,475 1187.5,554.17" fill="#ffffff"/><rect x="1266.67" y="475" width="79.17" height="79.17" fill="#ffffff"/><path d="M 1266.67 554.17 A 79.17 79.17 0 0 1  1345.8400000000001 475 L 1345.8400000000001 554.17L1266.67 554.17" fill="#ffffff"/><rect x="0" y="554.17" width="79.17" height="79.17" fill="#ffffff"/><path d="M 0 633.3399999999999 A 79.17 79.17 0 0 1  79.17 554.17 L 0 633.3399999999999 A 79.17 79.17 0 0 0 79.17 554.17" fill="#3a3a3a"/><rect x="79.17" y="554.17" width="79.17" height="79.17" fill="#e9e9e9"/><g transform="translate(79.17,554.17) scale(3.9585) rotate(0)"><rect width="20" height="2" fill="#fcfcfc"/><rect y="4" width="20" height="2" fill="#fcfcfc"/><rect y="8" width="20" height="2" fill="#fcfcfc"/><rect y="12" width="20" height="2" fill="#fcfcfc"/><rect y="16" width="20" height="2" fill="#fcfcfc"/></g><rect x="158.33" y="554.17" width="79.17" height="79.17" fill="#1f1f1f"/><g transform="translate(158.33,554.17) scale(3.9585) rotate(0)"><rect width="20" height="2" fill="#ffffff"/><rect y="4" width="20" height="2" fill="#ffffff"/><rect y="8" width="20" height="2" fill="#ffffff"/><rect y="12" width="20" height="2" fill="#ffffff"/><rect y="16" width="20" height="2" fill="#ffffff"/></g><rect x="237.5" y="554.17" width="79.17" height="79.17" fill="#d7d7d7"/><polygon points="237.5,554.17 316.67,633.3399999999999 237.5,633.3399999999999" fill="#ffffff"/><rect x="316.67" y="554.17" width="79.17" height="79.17" fill="#fefefe"/><rect x="316.67" y="554.17" width="79.17" height="79.17" fill="#ffffff"/><rect x="395.83" y="554.17" width="79.17" height="79.17" fill="#aeaeae"/><polygon points="475,554.17 475,633.3399999999999 395.83,633.3399999999999" fill="#dddddd"/><rect x="475" y="554.17" width="79.17" height="79.17" fill="#e2e2e2"/><path d="M 475 633.3399999999999 A 79.17 79.17 0 0 0 554.17 554.17 L 475 554.17L475 633.3399999999999" fill="#ffffff"/><rect x="554.17" y="554.17" width="79.17" height="79.17" fill="#ffffff"/><polygon points="554.17,554.17 633.3399999999999,554.17 633.3399999999999,633.3399999999999" fill="#ffffff"/><rect x="633.33" y="554.17" width="79.17" height="79.17" fill="#e4e4e4"/><rect x="633.33" y="554.17" width="79.17" height="79.17" fill="#f5f5f5"/><rect x="712.5" y="554.17" width="79.17" height="79.17" fill="#ececec"/><polygon points="712.5,554.17 791.67,554.17 791.67,633.3399999999999" fill="#7a7a7a"/><rect x="791.67" y="554.17" width="79.17" height="79.17" fill="#d9d9d9"/><path d="M 791.67 554.17 A 79.17 79.17 0 0 1 870.8399999999999 633.3399999999999 L 791.67 633.3399999999999L791.67 554.17" fill="#ffffff"/><rect x="870.83" y="554.17" width="79.17" height="79.17" fill="#ffffff"/><g transform="translate(870.83,554.17) scale(3.9585) rotate(0)"><rect width="20" height="2" fill="#ffffff"/><rect y="4" width="20" height="2" fill="#ffffff"/><rect y="8" width="20" height="2" fill="#ffffff"/><rect y="12" width="20" height="2" fill="#ffffff"/><rect y="16" width="20" height="2" fill="#ffffff"/></g><rect x="950" y="554.17" width="79.17" height="79.17" fill="#949494"/><path d="M 950 554.17 A 79.17 79.17 0 0 1 1029.17 633.3399999999999 L 950 633.3399999999999L950 554.17" fill="#ffffff"/><rect x="1029.17" y="554.17" width="79.17" height="79.17" fill="#ffffff"/><polygon points="1029.17,554.17 1108.3400000000001,633.3399999999999 1029.17,633.3399999999999" fill="#ffffff"/><rect x="1108.33" y="554.17" width="79.17" height="79.17" fill="#ffffff"/><rect x="1108.33" y="554.17" width="79.17" height="79.17" fill="#f8f8f8"/><rect x="1187.5" y="554.17" width="79.17" height="79.17" fill="#c9c9c9"/><polygon points="1187.5,554.17 1266.67,554.17 1187.5,633.3399999999999" fill="#dadada"/><rect x="1266.67" y="554.17" width="79.17" height="79.17" fill="#6f6f6f"/><path d="M 1266.67 633.3399999999999 A 79.17 79.17 0 0 1  1345.8400000000001 554.17 L 1266.67 633.3399999999999 A 79.17 79.17 0 0 0 1345.8400000000001 554.17" fill="#ffffff"/><rect x="0" y="633.33" width="79.17" height="79.17" fill="#a2a2a2"/><path d="M 0 633.33 A 79.17 79.17 0 0 0 79.17 712.5 L 79.17 633.33L0 633.33" fill="#c0c0c0"/><rect x="79.17" y="633.33" width="79.17" height="79.17" fill="#bfbfbf"/><g transform="translate(79.17,633.33) scale(3.9585) rotate(0)"><rect width="20" height="2" fill="#686868"/><rect y="4" width="20" height="2" fill="#686868"/><rect y="8" width="20" height="2" fill="#686868"/><rect y="12" width="20" height="2" fill="#686868"/><rect y="16" width="20" height="2" fill="#686868"/></g><rect x="158.33" y="633.33" width="79.17" height="79.17" fill="#e9e9e9"/><path d="M 158.33 712.5 A 79.17 79.17 0 0 1  237.5 633.33 L 237.5 712.5L158.33 712.5" fill="#b3b3b3"/><rect x="237.5" y="633.33" width="79.17" height="79.17" fill="#d9d9d9"/><polygon points="237.5,633.33 316.67,712.5 237.5,712.5" fill="#cbcbcb"/><rect x="316.67" y="633.33" width="79.17" height="79.17" fill="#636363"/><rect x="316.67" y="633.33" width="79.17" height="79.17" fill="#f0f0f0"/><rect x="395.83" y="633.33" width="79.17" height="79.17" fill="#b7b7b7"/><path d="M 395.83 712.5 A 79.17 79.17 0 0 1  475 633.33 L 395.83 712.5 A 79.17 79.17 0 0 0 475 633.33" fill="#d2d2d2"/><rect x="475" y="633.33" width="79.17" height="79.17" fill="#b2b2b2"/><path d="M 475 633.33 A 79.17 79.17 0 0 0 554.17 712.5 L 554.17 633.33L475 633.33" fill="#f4f4f4"/><rect x="554.17" y="633.33" width="79.17" height="79.17" fill="#ffffff"/><g transform="translate(554.17,633.33) scale(3.9585) rotate(0)"><rect width="20" height="2" fill="#585858"/><rect y="4" width="20" height="2" fill="#585858"/><rect y="8" width="20" height="2" fill="#585858"/><rect y="12" width="20" height="2" fill="#585858"/><rect y="16" width="20" height="2" fill="#585858"/></g><rect x="633.33" y="633.33" width="79.17" height="79.17" fill="#ffffff"/><path d="M 633.33 633.33 A 79.17 79.17 0 0 1  712.5 712.5 L 633.33 633.33 A 79.17 79.17 0 0 0 712.5 712.5" fill="#b8b8b8"/><rect x="712.5" y="633.33" width="79.17" height="79.17" fill="#ffffff"/><path d="M 712.5 712.5 A 79.17 79.17 0 0 1  791.67 633.33 L 712.5 712.5 A 79.17 79.17 0 0 0 791.67 633.33" fill="#ffffff"/><rect x="791.67" y="633.33" width="79.17" height="79.17" fill="#ffffff"/><path d="M 791.67 633.33 A 79.17 79.17 0 0 1  870.8399999999999 712.5 L 791.67 633.33 A 79.17 79.17 0 0 0 870.8399999999999 712.5" fill="#8c8c8c"/><rect x="870.83" y="633.33" width="79.17" height="79.17" fill="#ffffff"/><rect x="870.83" y="633.33" width="79.17" height="79.17" fill="#b1b1b1"/><rect x="950" y="633.33" width="79.17" height="79.17" fill="#cbcbcb"/><g transform="translate(950,633.33) scale(3.9585) rotate(0)"><rect width="20" height="2" fill="#f3f3f3"/><rect y="4" width="20" height="2" fill="#f3f3f3"/><rect y="8" width="20" height="2" fill="#f3f3f3"/><rect y="12" width="20" height="2" fill="#f3f3f3"/><rect y="16" width="20" height="2" fill="#f3f3f3"/></g><rect x="1029.17" y="633.33" width="79.17" height="79.17" fill="#8d8d8d"/><polygon points="1029.17,633.33 1108.3400000000001,633.33 1108.3400000000001,712.5" fill="#fafafa"/><rect x="1108.33" y="633.33" width="79.17" height="79.17" fill="#f5f5f5"/><path d="M 1108.33 712.5 A 79.17 79.17 0 0 1  1187.5 633.33 L 1108.33 712.5 A 79.17 79.17 0 0 0 1187.5 633.33" fill="#b4b4b4"/><rect x="1187.5" y="633.33" width="79.17" height="79.17" fill="#e0e0e0"/><g transform="translate(1187.5,633.33) scale(3.9585) rotate(0)"><rect width="20" height="2" fill="#e5e5e5"/><rect y="4" width="20" height="2" fill="#e5e5e5"/><rect y="8" width="20" height="2" fill="#e5e5e5"/><rect y="12" width="20" height="2" fill="#e5e5e5"/><rect y="16" width="20" height="2" fill="#e5e5e5"/></g><rect x="1266.67" y="633.33" width="79.17" height="79.17" fill="#e3e3e3"/><rect x="1266.67" y="633.33" width="79.17" height="79.17" fill="#9a9a9a"/><rect x="0" y="712.5" width="79.17" height="79.17" fill="#b7b7b7"/><path d="M 0 712.5 A 79.17 79.17 0 0 1  79.17 791.67 L 0 712.5 A 79.17 79.17 0 0 0 79.17 791.67" fill="#dadada"/><rect x="79.17" y="712.5" width="79.17" height="79.17" fill="#ffffff"/><g transform="translate(79.17,712.5) scale(3.9585) rotate(0)"><rect width="20" height="2" fill="#dcdcdc"/><rect y="4" width="20" height="2" fill="#dcdcdc"/><rect y="8" width="20" height="2" fill="#dcdcdc"/><rect y="12" width="20" height="2" fill="#dcdcdc"/><rect y="16" width="20" height="2" fill="#dcdcdc"/></g><rect x="158.33" y="712.5" width="79.17" height="79.17" fill="#ffffff"/><path d="M 158.33 791.67 A 79.17 79.17 0 0 1  237.5 712.5 L 237.5 791.67L158.33 791.67" fill="#f1f1f1"/><rect x="237.5" y="712.5" width="79.17" height="79.17" fill="#ffffff"/><path d="M 237.5 712.5 A 79.17 79.17 0 0 1  316.67 791.67 L 237.5 712.5 A 79.17 79.17 0 0 0 316.67 791.67" fill="#b4b4b4"/><rect x="316.67" y="712.5" width="79.17" height="79.17" fill="#565656"/><g transform="translate(316.67,712.5) scale(3.9585) rotate(0)"><rect width="20" height="2" fill="#939393"/><rect y="4" width="20" height="2" fill="#939393"/><rect y="8" width="20" height="2" fill="#939393"/><rect y="12" width="20" height="2" fill="#939393"/><rect y="16" width="20" height="2" fill="#939393"/></g><rect x="395.83" y="712.5" width="79.17" height="79.17" fill="#797979"/><rect x="395.83" y="712.5" width="79.17" height="79.17" fill="#ffffff"/><rect x="475" y="712.5" width="79.17" height="79.17" fill="#6e6e6e"/><path d="M 475 712.5 A 79.17 79.17 0 0 1 554.17 791.67 L 475 791.67L475 712.5" fill="#ffffff"/><rect x="554.17" y="712.5" width="79.17" height="79.17" fill="#b4b4b4"/><rect x="554.17" y="712.5" width="79.17" height="79.17" fill="#989898"/><rect x="633.33" y="712.5" width="79.17" height="79.17" fill="#ffffff"/><rect x="633.33" y="712.5" width="79.17" height="79.17" fill="#ffffff"/><rect x="712.5" y="712.5" width="79.17" height="79.17" fill="#d8d8d8"/><path d="M 712.5 712.5 A 79.17 79.17 0 0 0 791.67 791.67 L 791.67 712.5L712.5 712.5" fill="#484848"/><rect x="791.67" y="712.5" width="79.17" height="79.17" fill="#ffffff"/><rect x="791.67" y="712.5" width="79.17" height="79.17" fill="#e3e3e3"/><rect x="870.83" y="712.5" width="79.17" height="79.17" fill="#666666"/><rect x="870.83" y="712.5" width="79.17" height="79.17" fill="#ffffff"/><rect x="950" y="712.5" width="79.17" height="79.17" fill="#ffffff"/><path d="M 950 712.5 A 79.17 79.17 0 0 1 1029.17 791.67 L 950 791.67L950 712.5" fill="#f7f7f7"/><rect x="1029.17" y="712.5" width="79.17" height="79.17" fill="#ffffff"/><path d="M 1029.17 791.67 A 79.17 79.17 0 0 1  1108.3400000000001 712.5 L 1108.3400000000001 791.67L1029.17 791.67" fill="#d0d0d0"/><rect x="1108.33" y="712.5" width="79.17" height="79.17" fill="#bdbdbd"/><g transform="translate(1108.33,712.5) scale(3.9585) rotate(0)"><rect width="20" height="2" fill="#4c4c4c"/><rect y="4" width="20" height="2" fill="#4c4c4c"/><rect y="8" width="20" height="2" fill="#4c4c4c"/><rect y="12" width="20" height="2" fill="#4c4c4c"/><rect y="16" width="20" height="2" fill="#4c4c4c"/></g><rect x="1187.5" y="712.5" width="79.17" height="79.17" fill="#e2e2e2"/><polygon points="1266.67,712.5 1266.67,791.67 1187.5,791.67" fill="#6f6f6f"/><rect x="1266.67" y="712.5" width="79.17" height="79.17" fill="#ffffff"/><polygon points="1266.67,712.5 1345.8400000000001,712.5 1345.8400000000001,791.67" fill="#a6a6a6"/><rect x="0" y="791.67" width="79.17" height="79.17" fill="#d0d0d0"/><rect x="0" y="791.67" width="79.17" height="79.17" fill="#e2e2e2"/><rect x="79.17" y="791.67" width="79.17" height="79.17" fill="#ffffff"/><path d="M 79.17 791.67 A 79.17 79.17 0 0 1  158.34 870.8399999999999 L 79.17 791.67 A 79.17 79.17 0 0 0 158.34 870.8399999999999" fill="#ffffff"/><rect x="158.33" y="791.67" width="79.17" height="79.17" fill="#373737"/><rect x="158.33" y="791.67" width="79.17" height="79.17" fill="#f9f9f9"/><rect x="237.5" y="791.67" width="79.17" height="79.17" fill="#ffffff"/><polygon points="316.67,791.67 316.67,870.8399999999999 237.5,870.8399999999999" fill="#f4f4f4"/><rect x="316.67" y="791.67" width="79.17" height="79.17" fill="#707070"/><path d="M 316.67 870.8399999999999 A 79.17 79.17 0 0 1  395.84000000000003 791.67 L 316.67 870.8399999999999 A 79.17 79.17 0 0 0 395.84000000000003 791.67" fill="#b9b9b9"/><rect x="395.83" y="791.67" width="79.17" height="79.17" fill="#ffffff"/><polygon points="395.83,791.67 475,791.67 395.83,870.8399999999999" fill="#c9c9c9"/><rect x="475" y="791.67" width="79.17" height="79.17" fill="#b2b2b2"/><path d="M 475 791.67 A 79.17 79.17 0 0 1 554.17 870.8399999999999 L 475 870.8399999999999L475 791.67" fill="#ffffff"/><rect x="554.17" y="791.67" width="79.17" height="79.17" fill="#c9c9c9"/><g transform="translate(554.17,791.67) scale(3.9585) rotate(0)"><rect width="20" height="2" fill="#bababa"/><rect y="4" width="20" height="2" fill="#bababa"/><rect y="8" width="20" height="2" fill="#bababa"/><rect y="12" width="20" height="2" fill="#bababa"/><rect y="16" width="20" height="2" fill="#bababa"/></g><rect x="633.33" y="791.67" width="79.17" height="79.17" fill="#f7f7f7"/><rect x="633.33" y="791.67" width="79.17" height="79.17" fill="#9d9d9d"/><rect x="712.5" y="791.67" width="79.17" height="79.17" fill="#ffffff"/><polygon points="712.5,791.67 791.67,870.8399999999999 712.5,870.8399999999999" fill="#f8f8f8"/><rect x="791.67" y="791.67" width="79.17" height="79.17" fill="#ffffff"/><polygon points="791.67,791.67 870.8399999999999,791.67 870.8399999999999,870.8399999999999" fill="#e2e2e2"/><rect x="870.83" y="791.67" width="79.17" height="79.17" fill="#f0f0f0"/><path d="M 870.83 791.67 A 79.17 79.17 0 0 1  950 870.8399999999999 L 870.83 791.67 A 79.17 79.17 0 0 0 950 870.8399999999999" fill="#ffffff"/><rect x="950" y="791.67" width="79.17" height="79.17" fill="#2f2f2f"/><rect x="950" y="791.67" width="79.17" height="79.17" fill="#626262"/><rect x="1029.17" y="791.67" width="79.17" height="79.17" fill="#ffffff"/><path d="M 1029.17 791.67 A 79.17 79.17 0 0 1 1108.3400000000001 870.8399999999999 L 1029.17 870.8399999999999L1029.17 791.67" fill="#7c7c7c"/><rect x="1108.33" y="791.67" width="79.17" height="79.17" fill="#afafaf"/><rect x="1108.33" y="791.67" width="79.17" height="79.17" fill="#6e6e6e"/><rect x="1187.5" y="791.67" width="79.17" height="79.17" fill="#dedede"/><path d="M 1187.5 791.67 A 79.17 79.17 0 0 1  1266.67 870.8399999999999 L 1187.5 791.67 A 79.17 79.17 0 0 0 1266.67 870.8399999999999" fill="#ffffff"/><rect x="1266.67" y="791.67" width="79.17" height="79.17" fill="#cdcdcd"/><polygon points="1345.8400000000001,791.67 1345.8400000000001,870.8399999999999 1266.67,870.8399999999999" fill="#ffffff"/><rect x="0" y="870.83" width="79.17" height="79.17" fill="#d9d9d9"/><path d="M 0 950 A 79.17 79.17 0 0 1  79.17 870.83 L 0 950 A 79.17 79.17 0 0 0 79.17 870.83" fill="#aeaeae"/><rect x="79.17" y="870.83" width="79.17" height="79.17" fill="#959595"/><path d="M 79.17 950 A 79.17 79.17 0 0 0 158.34 870.83 L 79.17 870.83L79.17 950" fill="#ffffff"/><rect x="158.33" y="870.83" width="79.17" height="79.17" fill="#8e8e8e"/><path d="M 158.33 870.83 A 79.17 79.17 0 0 1 237.5 950 L 158.33 950L158.33 870.83" fill="#fcfcfc"/><rect x="237.5" y="870.83" width="79.17" height="79.17" fill="#f1f1f1"/><rect x="237.5" y="870.83" width="79.17" height="79.17" fill="#c4c4c4"/><rect x="316.67" y="870.83" width="79.17" height="79.17" fill="#ececec"/><polygon points="316.67,870.83 395.84000000000003,870.83 395.84000000000003,950" fill="#202020"/><rect x="395.83" y="870.83" width="79.17" height="79.17" fill="#d8d8d8"/><polygon points="395.83,870.83 475,870.83 475,950" fill="#ffffff"/><rect x="475" y="870.83" width="79.17" height="79.17" fill="#b8b8b8"/><rect x="475" y="870.83" width="79.17" height="79.17" fill="#464646"/><rect x="554.17" y="870.83" width="79.17" height="79.17" fill="#f7f7f7"/><path d="M 554.17 950 A 79.17 79.17 0 0 1  633.3399999999999 870.83 L 633.3399999999999 950L554.17 950" fill="#ffffff"/><rect x="633.33" y="870.83" width="79.17" height="79.17" fill="#f4f4f4"/><polygon points="712.5,870.83 712.5,950 633.33,950" fill="#f7f7f7"/><rect x="712.5" y="870.83" width="79.17" height="79.17" fill="#ffffff"/><g transform="translate(712.5,870.83) scale(3.9585) rotate(0)"><rect width="20" height="2" fill="#ffffff"/><rect y="4" width="20" height="2" fill="#ffffff"/><rect y="8" width="20" height="2" fill="#ffffff"/><rect y="12" width="20" height="2" fill="#ffffff"/><rect y="16" width="20" height="2" fill="#ffffff"/></g><rect x="791.67" y="870.83" width="79.17" height="79.17" fill="#ffffff"/><rect x="791.67" y="870.83" width="79.17" height="79.17" fill="#ffffff"/><rect x="870.83" y="870.83" width="79.17" height="79.17" fill="#bababa"/><rect x="870.83" y="870.83" width="79.17" height="79.17" fill="#1f1f1f"/><rect x="950" y="870.83" width="79.17" height="79.17" fill="#ffffff"/><path d="M 950 870.83 A 79.17 79.17 0 0 1 1029.17 950 L 950 950L950 870.83" fill="#fbfbfb"/><rect x="1029.17" y="870.83" width="79.17" height="79.17" fill="#b4b4b4"/><polygon points="1029.17,870.83 1108.3400000000001,950 1029.17,950" fill="#dcdcdc"/><rect x="1108.33" y="870.83" width="79.17" height="79.17" fill="#d0d0d0"/><path d="M 1108.33 870.83 A 79.17 79.17 0 0 1  1187.5 950 L 1108.33 870.83 A 79.17 79.17 0 0 0 1187.5 950" fill="#424242"/><rect x="1187.5" y="870.83" width="79.17" height="79.17" fill="#7f7f7f"/><rect x="1187.5" y="870.83" width="79.17" height="79.17" fill="#8a8a8a"/><rect x="1266.67" y="870.83" width="79.17" height="79.17" fill="#d6d6d6"/><g transform="translate(1266.67,870.83) scale(3.9585) rotate(0)"><rect width="20" height="2" fill="#b3b3b3"/><rect y="4" width="20" height="2" fill="#b3b3b3"/><rect y="8" width="20" height="2" fill="#b3b3b3"/><rect y="12" width="20" height="2" fill="#b3b3b3"/><rect y="16" width="20" height="2" fill="#b3b3b3"/></g></g></svg>